<svg xmlns="http://www.w3.org/2000/svg" xmlns:xlink="http://www.w3.org/1999/xlink" width="336" zoomAndPan="magnify" viewBox="0 0 252 190.499994" height="254" preserveAspectRatio="xMidYMid meet" version="1.0"><defs><g/><clipPath id="7b7858c860"><path d="M 110.046875 17.546875 L 177.371094 17.546875 L 177.371094 139.476562 L 110.046875 139.476562 Z M 110.046875 17.546875 " clip-rule="nonzero"/></clipPath></defs><g fill="#000000" fill-opacity="1"><g transform="translate(20.626154, 140.043623)"><g><path d="M 13.421875 -29.875 L 1.46875 -29.875 L 1.46875 -29.15625 L 5.296875 -29.15625 L 5.296875 -0.71875 L 1.46875 -0.71875 L 1.46875 0 L 13.421875 0 L 13.421875 -0.71875 L 9.609375 -0.71875 L 9.609375 -15.515625 L 21.375 -15.515625 L 21.375 -0.71875 L 17.5625 -0.71875 L 17.5625 0 L 29.515625 0 L 29.515625 -0.71875 L 25.6875 -0.71875 L 25.6875 -29.15625 L 29.515625 -29.15625 L 29.515625 -29.875 L 17.5625 -29.875 L 17.5625 -29.15625 L 21.375 -29.15625 L 21.375 -16.265625 L 9.609375 -16.265625 L 9.609375 -29.15625 L 13.421875 -29.15625 Z M 13.421875 -29.875 "/></g></g></g><g fill="#000000" fill-opacity="1"><g transform="translate(45.560253, 140.043623)"><g><path d="M 0.984375 -0.71875 L 0.984375 0 L 10.84375 0 L 10.84375 -0.71875 L 5.59375 -0.71875 L 8.40625 -9.296875 L 17.34375 -9.296875 L 20.21875 -0.71875 L 15.640625 -0.71875 L 15.640625 0 L 28.671875 0 L 28.671875 -0.71875 L 24.8125 -0.71875 L 15.0625 -30.265625 L 14.53125 -30.265625 L 4.796875 -0.71875 Z M 12.84375 -22.71875 L 17.109375 -10 L 8.671875 -10 Z M 12.84375 -22.71875 "/></g></g></g><g fill="#000000" fill-opacity="1"><g transform="translate(69.427621, 140.043623)"><g><path d="M 12.484375 -29.875 L 0.484375 -29.875 L 0.484375 -29.15625 L 4.3125 -29.15625 L 14.3125 0.4375 L 15.109375 0.4375 L 24.625 -29.15625 L 27.828125 -29.15625 L 27.828125 -29.875 L 19.875 -29.875 L 19.875 -29.15625 L 23.6875 -29.15625 L 16.3125 -6.171875 L 8.484375 -29.15625 L 12.484375 -29.15625 Z M 12.484375 -29.875 "/></g></g></g><g fill="#000000" fill-opacity="1"><g transform="translate(92.006022, 140.043623)"><g><path d="M 23.34375 -22.9375 C 23.34375 -24.03125 23.085938 -25.015625 22.578125 -25.890625 C 22.078125 -26.765625 21.40625 -27.488281 20.5625 -28.0625 C 19.71875 -28.644531 18.742188 -29.09375 17.640625 -29.40625 C 16.546875 -29.71875 15.40625 -29.875 14.21875 -29.875 L 1.296875 -29.875 L 1.296875 -29.15625 L 5.109375 -29.15625 L 5.109375 -0.71875 L 1.296875 -0.71875 L 1.296875 0 L 14.578125 0 C 17.660156 0 20.050781 -0.707031 21.75 -2.125 C 23.457031 -3.550781 24.3125 -5.523438 24.3125 -8.046875 C 24.3125 -9.347656 24.050781 -10.488281 23.53125 -11.46875 C 23.019531 -12.445312 22.378906 -13.273438 21.609375 -13.953125 C 20.835938 -14.640625 19.984375 -15.164062 19.046875 -15.53125 C 18.109375 -15.90625 17.242188 -16.132812 16.453125 -16.21875 C 17.429688 -16.394531 18.34375 -16.65625 19.1875 -17 C 20.03125 -17.34375 20.753906 -17.785156 21.359375 -18.328125 C 21.960938 -18.878906 22.441406 -19.53125 22.796875 -20.28125 C 23.160156 -21.039062 23.34375 -21.925781 23.34375 -22.9375 Z M 9.421875 -16.484375 L 9.421875 -29.15625 L 14.21875 -29.15625 C 14.96875 -29.15625 15.632812 -29.054688 16.21875 -28.859375 C 16.8125 -28.671875 17.316406 -28.347656 17.734375 -27.890625 C 18.148438 -27.429688 18.476562 -26.820312 18.71875 -26.0625 C 18.957031 -25.3125 19.078125 -24.390625 19.078125 -23.296875 L 19.078125 -22.578125 C 19.078125 -21.390625 18.957031 -20.40625 18.71875 -19.625 C 18.476562 -18.84375 18.148438 -18.21875 17.734375 -17.75 C 17.316406 -17.289062 16.804688 -16.960938 16.203125 -16.765625 C 15.597656 -16.578125 14.9375 -16.484375 14.21875 -16.484375 Z M 9.421875 -0.71875 L 9.421875 -15.78125 L 14.21875 -15.78125 C 16.269531 -15.78125 17.734375 -15.15625 18.609375 -13.90625 C 19.484375 -12.664062 19.921875 -10.890625 19.921875 -8.578125 L 19.921875 -7.515625 C 19.921875 -5.347656 19.503906 -3.671875 18.671875 -2.484375 C 17.835938 -1.304688 16.351562 -0.71875 14.21875 -0.71875 Z M 9.421875 -0.71875 "/></g></g></g><g fill="#000000" fill-opacity="1"><g transform="translate(113.073215, 140.043623)"><g><path d="M 24.671875 -8.21875 C 24.429688 -7.09375 24.175781 -6.070312 23.90625 -5.15625 C 23.644531 -4.238281 23.289062 -3.445312 22.84375 -2.78125 C 22.40625 -2.113281 21.84375 -1.601562 21.15625 -1.25 C 20.476562 -0.894531 19.617188 -0.71875 18.578125 -0.71875 L 9.46875 -0.71875 L 9.46875 -29.15625 L 13.6875 -29.15625 L 13.6875 -29.875 L 1.328125 -29.875 L 1.328125 -29.15625 L 5.15625 -29.15625 L 5.15625 -0.71875 L 1.328125 -0.71875 L 1.328125 0 L 24.234375 0 C 25.085938 0 25.515625 -0.472656 25.515625 -1.421875 L 25.515625 -8.09375 C 25.515625 -8.800781 25.394531 -9.15625 25.15625 -9.15625 C 24.945312 -9.15625 24.785156 -8.84375 24.671875 -8.21875 Z M 24.671875 -8.21875 "/></g></g></g><g fill="#000000" fill-opacity="1"><g transform="translate(134.190817, 140.043623)"><g/></g></g><g fill="#000000" fill-opacity="1"><g transform="translate(140.634869, 140.043623)"><g/></g></g><g fill="#000000" fill-opacity="1"><g transform="translate(147.084053, 140.043623)"><g><path d="M 1.203125 -0.71875 L 1.203125 0 L 9.5625 0 L 9.5625 -0.71875 L 5.734375 -0.71875 L 5.734375 -27.875 L 22.9375 0.359375 L 24.453125 0.359375 L 24.453125 -29.15625 L 28.265625 -29.15625 L 28.265625 -29.875 L 19.921875 -29.875 L 19.921875 -29.15625 L 23.734375 -29.15625 L 23.734375 -7.328125 L 9.953125 -29.875 L 1.203125 -29.875 L 1.203125 -29.15625 L 5.015625 -29.15625 L 5.015625 -0.71875 Z M 1.203125 -0.71875 "/></g></g></g><g fill="#000000" fill-opacity="1"><g transform="translate(170.773628, 140.043623)"><g><path d="M 12.9375 -29.15625 L 12.9375 -29.875 L 1.515625 -29.875 L 1.515625 -29.15625 L 5.0625 -29.15625 L 5.0625 -0.71875 L 1.515625 -0.71875 L 1.515625 0 L 12.9375 0 L 12.9375 -0.71875 L 9.375 -0.71875 L 9.375 -29.15625 Z M 22.5 -29.15625 L 9.6875 -16.359375 L 20.671875 -0.71875 L 16.796875 -0.71875 L 16.796875 0 L 29.390625 0 L 29.390625 -0.71875 L 25.828125 -0.71875 L 13.25 -18.765625 L 23.65625 -29.15625 L 27.421875 -29.15625 L 27.421875 -29.875 L 18.671875 -29.875 L 18.671875 -29.15625 Z M 22.5 -29.15625 "/></g></g></g><g fill="#000000" fill-opacity="1"><g transform="translate(113.369048, 163.443541)"><g><path d="M 54.890625 -26.5625 C 54.910156 -26.46875 54.859375 -26.445312 54.734375 -26.5 C 54.609375 -26.550781 54.367188 -26.578125 54.015625 -26.578125 C 53.910156 -26.578125 53.78125 -26.566406 53.625 -26.546875 C 53.46875 -26.535156 53.304688 -26.515625 53.140625 -26.484375 C 52.867188 -26.441406 52.554688 -26.359375 52.203125 -26.234375 C 51.847656 -26.109375 51.460938 -25.976562 51.046875 -25.84375 C 50.660156 -25.71875 50.285156 -25.582031 49.921875 -25.4375 C 49.554688 -25.289062 49.171875 -25.132812 48.765625 -24.96875 C 48.597656 -24.90625 48.375 -24.816406 48.09375 -24.703125 C 47.820312 -24.585938 47.59375 -24.492188 47.40625 -24.421875 C 47.363281 -24.398438 47.316406 -24.378906 47.265625 -24.359375 C 47.222656 -24.347656 47.179688 -24.335938 47.140625 -24.328125 C 46.890625 -24.222656 46.625 -24.085938 46.34375 -23.921875 C 46.070312 -23.765625 45.804688 -23.625 45.546875 -23.5 C 45.304688 -23.375 45.050781 -23.25 44.78125 -23.125 C 44.519531 -23.007812 44.257812 -22.878906 44 -22.734375 C 43.800781 -22.628906 43.601562 -22.519531 43.40625 -22.40625 C 43.21875 -22.300781 43.023438 -22.191406 42.828125 -22.078125 C 42.648438 -21.960938 42.507812 -21.878906 42.40625 -21.828125 C 42.300781 -21.773438 42.195312 -21.710938 42.09375 -21.640625 C 41.800781 -21.484375 41.535156 -21.3125 41.296875 -21.125 L 40.46875 -20.625 C 40.125 -20.425781 39.78125 -20.207031 39.4375 -19.96875 C 39.09375 -19.738281 38.75 -19.503906 38.40625 -19.265625 L 37.71875 -18.78125 C 37.363281 -18.53125 37.007812 -18.265625 36.65625 -17.984375 C 36.3125 -17.710938 35.960938 -17.429688 35.609375 -17.140625 C 35.441406 -17.003906 35.269531 -16.867188 35.09375 -16.734375 C 34.925781 -16.609375 34.757812 -16.46875 34.59375 -16.3125 C 34.3125 -16.101562 34.035156 -15.882812 33.765625 -15.65625 C 33.503906 -15.425781 33.25 -15.179688 33 -14.921875 C 32.925781 -14.835938 32.835938 -14.753906 32.734375 -14.671875 C 32.640625 -14.597656 32.546875 -14.523438 32.453125 -14.453125 L 32.40625 -14.4375 C 32.3125 -14.351562 32.265625 -14.289062 32.265625 -14.25 C 32.191406 -14.1875 32.125 -14.125 32.0625 -14.0625 C 32 -14 31.945312 -13.953125 31.90625 -13.921875 C 32.019531 -13.890625 32.128906 -13.863281 32.234375 -13.84375 C 32.347656 -13.820312 32.457031 -13.796875 32.5625 -13.765625 C 32.789062 -13.703125 33.03125 -13.644531 33.28125 -13.59375 C 33.539062 -13.539062 33.78125 -13.5 34 -13.46875 C 34.164062 -13.4375 34.332031 -13.40625 34.5 -13.375 C 34.664062 -13.34375 34.828125 -13.3125 34.984375 -13.28125 C 35.285156 -13.21875 35.578125 -13.160156 35.859375 -13.109375 C 36.148438 -13.066406 36.441406 -13.023438 36.734375 -12.984375 C 36.898438 -12.953125 37.066406 -12.921875 37.234375 -12.890625 C 37.410156 -12.867188 37.582031 -12.84375 37.75 -12.8125 C 37.914062 -12.800781 38.085938 -12.78125 38.265625 -12.75 C 38.441406 -12.71875 38.609375 -12.6875 38.765625 -12.65625 C 38.960938 -12.625 39.125 -12.601562 39.25 -12.59375 C 39.382812 -12.59375 39.523438 -12.582031 39.671875 -12.5625 C 39.859375 -12.550781 40.039062 -12.535156 40.21875 -12.515625 C 40.394531 -12.503906 40.613281 -12.5 40.875 -12.5 L 41.5 -12.5 C 41.570312 -12.5 41.644531 -12.5 41.71875 -12.5 C 41.800781 -12.5 41.875 -12.5 41.9375 -12.5 C 42.007812 -12.5 42.085938 -12.5 42.171875 -12.5 C 42.253906 -12.5 42.34375 -12.503906 42.4375 -12.515625 C 42.601562 -12.515625 42.75 -12.515625 42.875 -12.515625 C 43.007812 -12.515625 43.132812 -12.523438 43.25 -12.546875 C 43.289062 -12.554688 43.367188 -12.5625 43.484375 -12.5625 C 43.816406 -12.5625 44.179688 -12.601562 44.578125 -12.6875 C 44.984375 -12.769531 45.375 -12.851562 45.75 -12.9375 C 46.394531 -13.070312 47.007812 -13.257812 47.59375 -13.5 C 48.175781 -13.738281 48.691406 -14.023438 49.140625 -14.359375 L 49.390625 -14.546875 C 49.554688 -14.671875 49.710938 -14.789062 49.859375 -14.90625 C 50.003906 -15.019531 50.15625 -15.160156 50.3125 -15.328125 C 50.351562 -15.367188 50.394531 -15.410156 50.4375 -15.453125 C 50.488281 -15.503906 50.546875 -15.53125 50.609375 -15.53125 C 50.671875 -15.53125 50.707031 -15.519531 50.71875 -15.5 C 50.726562 -15.488281 50.738281 -15.46875 50.75 -15.4375 C 50.75 -15.4375 50.75 -15.429688 50.75 -15.421875 C 50.75 -15.421875 50.753906 -15.410156 50.765625 -15.390625 L 50.765625 -15.34375 C 50.742188 -15.269531 50.703125 -15.203125 50.640625 -15.140625 C 50.585938 -15.078125 50.523438 -15.015625 50.453125 -14.953125 C 49.898438 -14.492188 49.359375 -14.101562 48.828125 -13.78125 C 48.296875 -13.457031 47.75 -13.195312 47.1875 -13 C 46.84375 -12.894531 46.503906 -12.800781 46.171875 -12.71875 C 45.847656 -12.644531 45.519531 -12.570312 45.1875 -12.5 C 45.070312 -12.476562 44.972656 -12.457031 44.890625 -12.4375 C 44.804688 -12.425781 44.710938 -12.40625 44.609375 -12.375 C 44.128906 -12.300781 43.710938 -12.253906 43.359375 -12.234375 C 43.003906 -12.210938 42.632812 -12.203125 42.25 -12.203125 C 42.019531 -12.203125 41.796875 -12.203125 41.578125 -12.203125 C 41.359375 -12.203125 41.117188 -12.207031 40.859375 -12.21875 C 40.609375 -12.207031 40.351562 -12.21875 40.09375 -12.25 C 39.84375 -12.28125 39.597656 -12.300781 39.359375 -12.3125 L 38.78125 -12.375 C 38.613281 -12.394531 38.441406 -12.414062 38.265625 -12.4375 C 38.097656 -12.457031 37.929688 -12.476562 37.765625 -12.5 C 37.660156 -12.53125 37.554688 -12.546875 37.453125 -12.546875 C 37.359375 -12.554688 37.265625 -12.570312 37.171875 -12.59375 C 36.941406 -12.625 36.710938 -12.65625 36.484375 -12.6875 C 36.265625 -12.726562 36.046875 -12.769531 35.828125 -12.8125 C 35.617188 -12.863281 35.398438 -12.90625 35.171875 -12.9375 C 34.941406 -12.96875 34.71875 -13.003906 34.5 -13.046875 C 34.007812 -13.140625 33.613281 -13.21875 33.3125 -13.28125 C 33.007812 -13.34375 32.6875 -13.410156 32.34375 -13.484375 C 32.25 -13.515625 32.160156 -13.535156 32.078125 -13.546875 C 31.992188 -13.566406 31.910156 -13.585938 31.828125 -13.609375 L 31.578125 -13.640625 C 31.554688 -13.628906 31.53125 -13.613281 31.5 -13.59375 C 31.476562 -13.582031 31.453125 -13.570312 31.421875 -13.5625 L 31.203125 -13.375 C 31.148438 -13.320312 31.097656 -13.273438 31.046875 -13.234375 L 29.390625 -11.578125 C 29.378906 -11.554688 29.351562 -11.53125 29.3125 -11.5 C 29.269531 -11.476562 29.234375 -11.453125 29.203125 -11.421875 C 29.097656 -11.304688 29.015625 -11.222656 28.953125 -11.171875 C 28.890625 -11.117188 28.820312 -11.070312 28.75 -11.03125 C 28.6875 -10.976562 28.632812 -10.9375 28.59375 -10.90625 C 28.5625 -10.875 28.53125 -10.84375 28.5 -10.8125 C 28.382812 -10.675781 28.253906 -10.539062 28.109375 -10.40625 C 27.960938 -10.269531 27.820312 -10.140625 27.6875 -10.015625 C 27.488281 -9.816406 27.332031 -9.660156 27.21875 -9.546875 C 27.113281 -9.441406 27.007812 -9.328125 26.90625 -9.203125 C 26.707031 -8.972656 26.503906 -8.742188 26.296875 -8.515625 C 26.085938 -8.285156 25.867188 -8.0625 25.640625 -7.84375 C 25.578125 -7.769531 25.503906 -7.691406 25.421875 -7.609375 C 25.335938 -7.523438 25.253906 -7.441406 25.171875 -7.359375 C 24.972656 -7.160156 24.820312 -7.007812 24.71875 -6.90625 C 24.613281 -6.800781 24.503906 -6.6875 24.390625 -6.5625 C 24.160156 -6.269531 23.914062 -5.988281 23.65625 -5.71875 C 23.394531 -5.445312 23.132812 -5.179688 22.875 -4.921875 C 22.71875 -4.765625 22.5625 -4.609375 22.40625 -4.453125 C 22.257812 -4.296875 22.101562 -4.128906 21.9375 -3.953125 C 21.882812 -3.910156 21.832031 -3.859375 21.78125 -3.796875 C 21.726562 -3.734375 21.671875 -3.679688 21.609375 -3.640625 C 21.453125 -3.484375 21.335938 -3.363281 21.265625 -3.28125 C 21.191406 -3.195312 21.113281 -3.097656 21.03125 -2.984375 C 21 -2.941406 20.953125 -2.894531 20.890625 -2.84375 C 20.835938 -2.800781 20.78125 -2.757812 20.71875 -2.71875 C 20.65625 -2.664062 20.601562 -2.625 20.5625 -2.59375 C 20.519531 -2.570312 20.488281 -2.546875 20.46875 -2.515625 C 20.3125 -2.328125 20.140625 -2.140625 19.953125 -1.953125 C 19.765625 -1.773438 19.585938 -1.597656 19.421875 -1.421875 C 19.316406 -1.316406 19.234375 -1.238281 19.171875 -1.1875 C 19.109375 -1.132812 19.039062 -1.066406 18.96875 -0.984375 L 18.25 -0.28125 C 17.914062 0.0703125 17.570312 0.425781 17.21875 0.78125 C 16.863281 1.132812 16.492188 1.476562 16.109375 1.8125 L 15.046875 2.8125 C 14.835938 3.007812 14.617188 3.207031 14.390625 3.40625 C 14.171875 3.601562 13.945312 3.8125 13.71875 4.03125 C 13.382812 4.300781 13.050781 4.570312 12.71875 4.84375 C 12.382812 5.113281 12.050781 5.398438 11.71875 5.703125 C 10.707031 6.535156 9.644531 7.273438 8.53125 7.921875 C 8.445312 7.960938 8.347656 8.015625 8.234375 8.078125 C 8.128906 8.140625 8.023438 8.203125 7.921875 8.265625 C 7.703125 8.390625 7.53125 8.484375 7.40625 8.546875 C 7.289062 8.617188 7.171875 8.691406 7.046875 8.765625 C 6.234375 9.191406 5.488281 9.492188 4.8125 9.671875 C 4.132812 9.847656 3.703125 9.953125 3.515625 9.984375 C 3.367188 10.003906 3.132812 10.035156 2.8125 10.078125 C 2.488281 10.128906 2.269531 10.15625 2.15625 10.15625 C 2.019531 10.164062 1.878906 10.171875 1.734375 10.171875 C 1.585938 10.171875 1.460938 10.1875 1.359375 10.21875 C 1.066406 10.175781 0.921875 10.125 0.921875 10.0625 C 0.921875 10.03125 0.96875 10 1.0625 9.96875 C 1.164062 9.9375 1.28125 9.921875 1.40625 9.921875 C 1.53125 9.890625 1.664062 9.867188 1.8125 9.859375 C 1.957031 9.847656 2.101562 9.835938 2.25 9.828125 C 2.425781 9.796875 2.585938 9.769531 2.734375 9.75 C 2.878906 9.738281 3.082031 9.695312 3.34375 9.625 C 3.6875 9.507812 3.976562 9.40625 4.21875 9.3125 C 4.457031 9.226562 4.738281 9.109375 5.0625 8.953125 C 5.664062 8.691406 6.296875 8.328125 6.953125 7.859375 C 7.609375 7.390625 8.222656 6.960938 8.796875 6.578125 C 9.285156 6.273438 9.765625 5.9375 10.234375 5.5625 C 10.710938 5.195312 11.175781 4.816406 11.625 4.421875 C 11.882812 4.203125 12.128906 3.976562 12.359375 3.75 C 12.585938 3.53125 12.828125 3.304688 13.078125 3.078125 C 13.148438 3.003906 13.222656 2.929688 13.296875 2.859375 C 13.378906 2.796875 13.457031 2.734375 13.53125 2.671875 C 13.664062 2.546875 13.769531 2.441406 13.84375 2.359375 C 13.925781 2.285156 14.003906 2.210938 14.078125 2.140625 C 14.367188 1.835938 14.664062 1.539062 14.96875 1.25 C 15.269531 0.957031 15.566406 0.664062 15.859375 0.375 C 17.054688 -0.789062 18.238281 -1.972656 19.40625 -3.171875 L 20.09375 -3.90625 C 20.320312 -4.144531 20.546875 -4.378906 20.765625 -4.609375 C 20.992188 -4.847656 21.210938 -5.09375 21.421875 -5.34375 C 21.546875 -5.476562 21.671875 -5.613281 21.796875 -5.75 C 21.929688 -5.894531 22.0625 -6.035156 22.1875 -6.171875 C 22.351562 -6.335938 22.515625 -6.503906 22.671875 -6.671875 C 22.835938 -6.835938 23 -7.023438 23.15625 -7.234375 C 23.289062 -7.398438 23.4375 -7.570312 23.59375 -7.75 C 23.757812 -7.925781 23.921875 -8.085938 24.078125 -8.234375 C 24.253906 -8.421875 24.429688 -8.609375 24.609375 -8.796875 C 24.785156 -8.992188 24.960938 -9.195312 25.140625 -9.40625 C 25.316406 -9.65625 25.519531 -9.882812 25.75 -10.09375 C 25.976562 -10.3125 26.207031 -10.53125 26.4375 -10.75 C 26.53125 -10.84375 26.628906 -10.941406 26.734375 -11.046875 C 26.847656 -11.148438 26.953125 -11.257812 27.046875 -11.375 C 27.316406 -11.664062 27.585938 -11.945312 27.859375 -12.21875 C 28.140625 -12.5 28.453125 -12.769531 28.796875 -13.03125 C 28.828125 -13.0625 28.867188 -13.101562 28.921875 -13.15625 C 28.972656 -13.207031 29.019531 -13.265625 29.0625 -13.328125 C 29.15625 -13.421875 29.269531 -13.53125 29.40625 -13.65625 C 29.550781 -13.789062 29.691406 -13.921875 29.828125 -14.046875 C 29.640625 -14.085938 29.441406 -14.128906 29.234375 -14.171875 C 29.035156 -14.222656 28.804688 -14.269531 28.546875 -14.3125 C 28.429688 -14.34375 28.273438 -14.378906 28.078125 -14.421875 C 27.890625 -14.460938 27.753906 -14.488281 27.671875 -14.5 C 27.671875 -14.5 27.566406 -14.519531 27.359375 -14.5625 C 27.148438 -14.613281 26.890625 -14.671875 26.578125 -14.734375 C 26.273438 -14.804688 25.976562 -14.867188 25.6875 -14.921875 C 25.5625 -14.960938 25.453125 -15 25.359375 -15.03125 C 25.265625 -15.0625 25.175781 -15.082031 25.09375 -15.09375 L 24.140625 -15.3125 C 23.804688 -15.382812 23.484375 -15.453125 23.171875 -15.515625 C 22.972656 -15.523438 22.78125 -15.570312 22.59375 -15.65625 C 22.457031 -15.539062 22.332031 -15.421875 22.21875 -15.296875 C 22.101562 -15.179688 21.945312 -15.015625 21.75 -14.796875 C 21.6875 -14.703125 21.609375 -14.617188 21.515625 -14.546875 C 21.421875 -14.472656 21.335938 -14.394531 21.265625 -14.3125 C 21.203125 -14.25 21.148438 -14.203125 21.109375 -14.171875 C 21.078125 -14.140625 21.046875 -14.109375 21.015625 -14.078125 L 20.46875 -13.53125 C 20.195312 -13.269531 19.929688 -13.007812 19.671875 -12.75 C 19.410156 -12.488281 19.148438 -12.207031 18.890625 -11.90625 C 18.785156 -11.75 18.664062 -11.597656 18.53125 -11.453125 C 18.394531 -11.316406 18.253906 -11.179688 18.109375 -11.046875 L 17.5625 -10.5 C 17.40625 -10.3125 17.238281 -10.125 17.0625 -9.9375 C 16.882812 -9.757812 16.710938 -9.578125 16.546875 -9.390625 C 16.347656 -9.191406 16.148438 -8.988281 15.953125 -8.78125 C 15.753906 -8.570312 15.550781 -8.351562 15.34375 -8.125 C 15.207031 -7.96875 15.0625 -7.800781 14.90625 -7.625 C 14.757812 -7.445312 14.601562 -7.273438 14.4375 -7.109375 C 14.320312 -6.984375 14.234375 -6.882812 14.171875 -6.8125 C 14.109375 -6.75 14.039062 -6.679688 13.96875 -6.609375 C 13.738281 -6.328125 13.492188 -6.039062 13.234375 -5.75 C 12.972656 -5.457031 12.675781 -5.207031 12.34375 -5 C 12.28125 -4.96875 12.21875 -4.921875 12.15625 -4.859375 C 12.101562 -4.796875 12.046875 -4.734375 11.984375 -4.671875 C 11.929688 -4.609375 11.890625 -4.5625 11.859375 -4.53125 C 11.828125 -4.5 11.796875 -4.46875 11.765625 -4.4375 C 11.410156 -4.082031 11.046875 -3.738281 10.671875 -3.40625 C 10.296875 -3.070312 9.90625 -2.734375 9.5 -2.390625 C 9.257812 -2.210938 9.023438 -2.019531 8.796875 -1.8125 C 8.566406 -1.601562 8.328125 -1.390625 8.078125 -1.171875 C 8.066406 -1.171875 8.050781 -1.160156 8.03125 -1.140625 C 8.019531 -1.117188 8 -1.097656 7.96875 -1.078125 C 7.9375 -1.015625 7.890625 -0.96875 7.828125 -0.9375 C 7.722656 -0.863281 7.609375 -0.773438 7.484375 -0.671875 C 7.359375 -0.578125 7.234375 -0.484375 7.109375 -0.390625 C 6.867188 -0.203125 6.625 -0.0195312 6.375 0.15625 C 6.125 0.332031 5.867188 0.519531 5.609375 0.71875 C 5.046875 1.125 4.429688 1.476562 3.765625 1.78125 C 3.097656 2.082031 2.394531 2.296875 1.65625 2.421875 C 1.582031 2.429688 1.503906 2.441406 1.421875 2.453125 C 1.347656 2.460938 1.273438 2.46875 1.203125 2.46875 C 1.085938 2.476562 0.992188 2.484375 0.921875 2.484375 C 0.859375 2.484375 0.796875 2.484375 0.734375 2.484375 C 0.691406 2.484375 0.644531 2.484375 0.59375 2.484375 C 0.550781 2.484375 0.492188 2.476562 0.421875 2.46875 C 0.265625 2.445312 0.15625 2.425781 0.09375 2.40625 C 0.0390625 2.394531 0.0078125 2.359375 0 2.296875 C 0.03125 2.234375 0.113281 2.207031 0.25 2.21875 C 0.382812 2.226562 0.53125 2.234375 0.6875 2.234375 C 0.945312 2.234375 1.191406 2.210938 1.421875 2.171875 C 1.648438 2.140625 1.84375 2.09375 2 2.03125 C 2.375 1.90625 2.691406 1.757812 2.953125 1.59375 C 3.210938 1.4375 3.507812 1.25 3.84375 1.03125 C 4.164062 0.820312 4.523438 0.5625 4.921875 0.25 C 5.328125 -0.0507812 5.726562 -0.367188 6.125 -0.703125 C 6.519531 -1.035156 6.875 -1.332031 7.1875 -1.59375 C 7.519531 -1.851562 7.847656 -2.128906 8.171875 -2.421875 C 8.492188 -2.710938 8.816406 -3.003906 9.140625 -3.296875 C 9.316406 -3.460938 9.457031 -3.59375 9.5625 -3.6875 C 9.675781 -3.789062 9.785156 -3.890625 9.890625 -3.984375 C 10.265625 -4.316406 10.628906 -4.65625 10.984375 -5 C 11.335938 -5.351562 11.6875 -5.695312 12.03125 -6.03125 C 12.4375 -6.457031 12.820312 -6.882812 13.1875 -7.3125 C 13.351562 -7.519531 13.484375 -7.675781 13.578125 -7.78125 C 13.671875 -7.882812 13.769531 -7.988281 13.875 -8.09375 C 13.90625 -8.144531 13.945312 -8.195312 14 -8.25 C 14.050781 -8.300781 14.101562 -8.351562 14.15625 -8.40625 C 14.289062 -8.570312 14.421875 -8.726562 14.546875 -8.875 C 14.679688 -9.019531 14.816406 -9.175781 14.953125 -9.34375 C 15.128906 -9.539062 15.3125 -9.738281 15.5 -9.9375 C 15.6875 -10.132812 15.875 -10.335938 16.0625 -10.546875 C 16.1875 -10.679688 16.285156 -10.789062 16.359375 -10.875 C 16.441406 -10.957031 16.519531 -11.035156 16.59375 -11.109375 C 16.6875 -11.222656 16.78125 -11.332031 16.875 -11.4375 C 16.976562 -11.539062 17.078125 -11.648438 17.171875 -11.765625 C 17.535156 -12.171875 17.921875 -12.578125 18.328125 -12.984375 C 18.921875 -13.597656 19.523438 -14.203125 20.140625 -14.796875 L 20.375 -15.046875 C 20.4375 -15.109375 20.476562 -15.15625 20.5 -15.1875 C 20.519531 -15.21875 20.546875 -15.25 20.578125 -15.28125 L 21.3125 -15.90625 L 21.375 -15.96875 C 21.320312 -15.988281 21.257812 -16.003906 21.1875 -16.015625 C 21.113281 -16.035156 21.039062 -16.050781 20.96875 -16.0625 C 20.84375 -16.09375 20.71875 -16.125 20.59375 -16.15625 C 20.476562 -16.1875 20.359375 -16.21875 20.234375 -16.25 C 19.953125 -16.320312 19.675781 -16.378906 19.40625 -16.421875 C 19.144531 -16.460938 18.882812 -16.503906 18.625 -16.546875 C 18.5 -16.566406 18.367188 -16.585938 18.234375 -16.609375 C 18.109375 -16.628906 17.984375 -16.644531 17.859375 -16.65625 L 16.96875 -16.796875 C 16.8125 -16.828125 16.648438 -16.851562 16.484375 -16.875 C 16.328125 -16.90625 16.171875 -16.9375 16.015625 -16.96875 C 15.953125 -16.976562 15.894531 -16.988281 15.84375 -17 C 15.789062 -17.007812 15.710938 -17.019531 15.609375 -17.03125 C 15.554688 -17.03125 15.503906 -17.03125 15.453125 -17.03125 C 15.398438 -17.03125 15.351562 -17.035156 15.3125 -17.046875 C 15.0625 -17.097656 14.804688 -17.128906 14.546875 -17.140625 C 14.296875 -17.160156 14.039062 -17.175781 13.78125 -17.1875 C 13.675781 -17.1875 13.566406 -17.1875 13.453125 -17.1875 C 13.335938 -17.1875 13.226562 -17.195312 13.125 -17.21875 C 13.0625 -17.21875 12.992188 -17.21875 12.921875 -17.21875 C 12.847656 -17.226562 12.785156 -17.242188 12.734375 -17.265625 C 12.640625 -17.273438 12.550781 -17.28125 12.46875 -17.28125 C 12.382812 -17.28125 12.296875 -17.28125 12.203125 -17.28125 C 12.140625 -17.28125 12.070312 -17.28125 12 -17.28125 C 11.9375 -17.28125 11.863281 -17.265625 11.78125 -17.234375 C 11.800781 -17.222656 11.78125 -17.21875 11.71875 -17.21875 C 11.488281 -17.257812 11.257812 -17.28125 11.03125 -17.28125 C 10.882812 -17.28125 10.742188 -17.273438 10.609375 -17.265625 C 10.484375 -17.265625 10.351562 -17.253906 10.21875 -17.234375 C 9.945312 -17.191406 9.671875 -17.171875 9.390625 -17.171875 C 9.234375 -17.171875 9.066406 -17.15625 8.890625 -17.125 C 8.710938 -17.09375 8.539062 -17.0625 8.375 -17.03125 C 8.28125 -17.019531 8.1875 -17.003906 8.09375 -16.984375 C 8.007812 -16.972656 7.910156 -16.957031 7.796875 -16.9375 C 7.328125 -16.863281 6.847656 -16.753906 6.359375 -16.609375 C 5.878906 -16.460938 5.398438 -16.304688 4.921875 -16.140625 C 4.535156 -15.992188 4.171875 -15.8125 3.828125 -15.59375 C 3.484375 -15.375 3.148438 -15.117188 2.828125 -14.828125 C 2.828125 -14.734375 2.820312 -14.65625 2.8125 -14.59375 L 2.8125 -14.453125 C 2.726562 -14.378906 2.644531 -14.34375 2.5625 -14.34375 C 2.476562 -14.34375 2.34375 -14.378906 2.15625 -14.453125 L 2.15625 -14.515625 C 2.15625 -14.597656 2.210938 -14.6875 2.328125 -14.78125 C 2.535156 -15.019531 2.773438 -15.222656 3.046875 -15.390625 C 3.316406 -15.566406 3.597656 -15.738281 3.890625 -15.90625 C 4.242188 -16.101562 4.613281 -16.265625 5 -16.390625 C 5.394531 -16.523438 5.789062 -16.644531 6.1875 -16.75 C 6.632812 -16.875 7.101562 -16.984375 7.59375 -17.078125 C 8.082031 -17.179688 8.585938 -17.265625 9.109375 -17.328125 C 9.523438 -17.390625 9.941406 -17.441406 10.359375 -17.484375 C 10.785156 -17.535156 11.210938 -17.546875 11.640625 -17.515625 C 11.835938 -17.492188 12.03125 -17.484375 12.21875 -17.484375 C 12.414062 -17.484375 12.613281 -17.484375 12.8125 -17.484375 L 13.21875 -17.484375 C 13.382812 -17.484375 13.554688 -17.484375 13.734375 -17.484375 C 13.910156 -17.484375 14.070312 -17.457031 14.21875 -17.40625 C 14.332031 -17.375 14.40625 -17.363281 14.4375 -17.375 C 14.601562 -17.394531 14.769531 -17.394531 14.9375 -17.375 C 15.101562 -17.363281 15.265625 -17.34375 15.421875 -17.3125 C 15.546875 -17.289062 15.664062 -17.269531 15.78125 -17.25 C 15.894531 -17.238281 16.003906 -17.234375 16.109375 -17.234375 C 16.140625 -17.222656 16.203125 -17.21875 16.296875 -17.21875 C 16.554688 -17.132812 16.816406 -17.078125 17.078125 -17.046875 C 17.347656 -17.023438 17.625 -16.988281 17.90625 -16.9375 C 18.125 -16.90625 18.347656 -16.875 18.578125 -16.84375 C 18.804688 -16.8125 19.023438 -16.765625 19.234375 -16.703125 C 19.378906 -16.671875 19.519531 -16.644531 19.65625 -16.625 C 19.789062 -16.601562 19.921875 -16.578125 20.046875 -16.546875 C 20.472656 -16.472656 20.878906 -16.378906 21.265625 -16.265625 C 21.359375 -16.234375 21.484375 -16.207031 21.640625 -16.1875 C 21.753906 -16.289062 21.875 -16.394531 22 -16.5 C 22.132812 -16.601562 22.273438 -16.71875 22.421875 -16.84375 C 22.535156 -16.9375 22.660156 -17.035156 22.796875 -17.140625 C 22.929688 -17.253906 23.054688 -17.363281 23.171875 -17.46875 L 24.28125 -18.390625 C 24.769531 -18.785156 25.269531 -19.148438 25.78125 -19.484375 C 26.300781 -19.828125 26.84375 -20.125 27.40625 -20.375 C 27.894531 -20.582031 28.4375 -20.734375 29.03125 -20.828125 C 29.625 -20.929688 30.070312 -20.984375 30.375 -20.984375 C 30.59375 -20.984375 30.785156 -20.925781 30.953125 -20.8125 C 30.941406 -20.75 30.878906 -20.722656 30.765625 -20.734375 C 30.660156 -20.753906 30.507812 -20.765625 30.3125 -20.765625 C 30.1875 -20.765625 30.035156 -20.75 29.859375 -20.71875 C 29.679688 -20.6875 29.488281 -20.628906 29.28125 -20.546875 C 28.9375 -20.429688 28.597656 -20.289062 28.265625 -20.125 C 27.941406 -19.96875 27.582031 -19.734375 27.1875 -19.421875 C 26.875 -19.191406 26.5625 -18.957031 26.25 -18.71875 C 25.9375 -18.476562 25.625 -18.226562 25.3125 -17.96875 C 25.070312 -17.789062 24.835938 -17.597656 24.609375 -17.390625 C 24.390625 -17.179688 24.164062 -16.96875 23.9375 -16.75 C 23.84375 -16.664062 23.738281 -16.578125 23.625 -16.484375 C 23.519531 -16.390625 23.414062 -16.300781 23.3125 -16.21875 C 23.238281 -16.164062 23.175781 -16.113281 23.125 -16.0625 C 23.082031 -16.019531 23.039062 -15.984375 23 -15.953125 L 22.90625 -15.875 C 22.976562 -15.863281 23.050781 -15.84375 23.125 -15.8125 C 23.207031 -15.789062 23.285156 -15.773438 23.359375 -15.765625 C 23.753906 -15.660156 24.144531 -15.566406 24.53125 -15.484375 L 25.015625 -15.390625 C 25.179688 -15.378906 25.359375 -15.347656 25.546875 -15.296875 C 25.734375 -15.253906 25.898438 -15.195312 26.046875 -15.125 C 26.335938 -15.070312 26.546875 -15.035156 26.671875 -15.015625 C 26.796875 -15.003906 26.894531 -14.988281 26.96875 -14.96875 C 27.050781 -14.945312 27.15625 -14.914062 27.28125 -14.875 C 27.414062 -14.84375 27.632812 -14.785156 27.9375 -14.703125 L 28.65625 -14.5625 C 28.882812 -14.519531 29.070312 -14.484375 29.21875 -14.453125 C 29.375 -14.421875 29.597656 -14.375 29.890625 -14.3125 L 30.078125 -14.265625 C 30.160156 -14.359375 30.238281 -14.4375 30.3125 -14.5 C 30.382812 -14.570312 30.453125 -14.632812 30.515625 -14.6875 C 30.703125 -14.820312 30.84375 -14.929688 30.9375 -15.015625 C 31.039062 -15.097656 31.140625 -15.1875 31.234375 -15.28125 C 31.398438 -15.445312 31.582031 -15.613281 31.78125 -15.78125 C 31.976562 -15.957031 32.179688 -16.117188 32.390625 -16.265625 C 32.503906 -16.359375 32.585938 -16.425781 32.640625 -16.46875 C 32.703125 -16.519531 32.765625 -16.578125 32.828125 -16.640625 C 32.898438 -16.703125 32.976562 -16.765625 33.0625 -16.828125 C 33.144531 -16.898438 33.222656 -16.96875 33.296875 -17.03125 C 33.453125 -17.164062 33.570312 -17.269531 33.65625 -17.34375 C 33.738281 -17.425781 33.828125 -17.503906 33.921875 -17.578125 C 34.148438 -17.765625 34.390625 -17.953125 34.640625 -18.140625 C 34.898438 -18.335938 35.148438 -18.535156 35.390625 -18.734375 C 35.578125 -18.867188 35.722656 -18.972656 35.828125 -19.046875 C 35.941406 -19.128906 36.050781 -19.21875 36.15625 -19.3125 C 36.40625 -19.5 36.660156 -19.675781 36.921875 -19.84375 C 37.179688 -20.019531 37.441406 -20.195312 37.703125 -20.375 L 38.734375 -21.0625 C 38.921875 -21.1875 39.117188 -21.304688 39.328125 -21.421875 C 39.546875 -21.546875 39.753906 -21.660156 39.953125 -21.765625 L 40.5 -22.09375 C 40.582031 -22.144531 40.671875 -22.191406 40.765625 -22.234375 C 40.859375 -22.273438 40.945312 -22.320312 41.03125 -22.375 C 41.1875 -22.445312 41.304688 -22.507812 41.390625 -22.5625 C 41.472656 -22.613281 41.5625 -22.671875 41.65625 -22.734375 C 41.8125 -22.828125 41.976562 -22.921875 42.15625 -23.015625 C 42.332031 -23.109375 42.503906 -23.191406 42.671875 -23.265625 C 42.867188 -23.359375 43.054688 -23.453125 43.234375 -23.546875 C 43.410156 -23.640625 43.59375 -23.75 43.78125 -23.875 C 43.863281 -23.925781 43.957031 -23.972656 44.0625 -24.015625 C 44.175781 -24.054688 44.285156 -24.097656 44.390625 -24.140625 L 44.71875 -24.28125 C 45.257812 -24.53125 45.800781 -24.753906 46.34375 -24.953125 C 46.882812 -25.160156 47.441406 -25.367188 48.015625 -25.578125 C 48.535156 -25.773438 49.0625 -25.957031 49.59375 -26.125 C 50.132812 -26.289062 50.679688 -26.4375 51.234375 -26.5625 C 51.679688 -26.664062 52.125 -26.75 52.5625 -26.8125 C 53.007812 -26.882812 53.460938 -26.914062 53.921875 -26.90625 C 54.003906 -26.90625 54.09375 -26.898438 54.1875 -26.890625 C 54.289062 -26.878906 54.390625 -26.867188 54.484375 -26.859375 C 54.753906 -26.847656 54.890625 -26.75 54.890625 -26.5625 Z M 54.890625 -26.5625 "/></g></g></g><g fill="#000000" fill-opacity="1"><g transform="translate(143.195513, 163.443541)"><g><path d="M -1.359375 -0.203125 C -1.773438 -0.160156 -2.144531 -0.269531 -2.46875 -0.53125 C -2.675781 -0.75 -2.78125 -1.015625 -2.78125 -1.328125 C -2.78125 -1.546875 -2.738281 -1.769531 -2.65625 -2 C -2.570312 -2.226562 -2.476562 -2.453125 -2.375 -2.671875 C -2.226562 -2.929688 -2.085938 -3.179688 -1.953125 -3.421875 C -1.828125 -3.671875 -1.675781 -3.90625 -1.5 -4.125 C -1.40625 -4.226562 -1.257812 -4.398438 -1.0625 -4.640625 C -0.875 -4.890625 -0.734375 -5.066406 -0.640625 -5.171875 C -0.378906 -5.484375 -0.175781 -5.722656 -0.03125 -5.890625 C 0.113281 -6.054688 0.332031 -6.285156 0.625 -6.578125 C 0.75 -6.722656 0.898438 -6.890625 1.078125 -7.078125 C 1.265625 -7.265625 1.46875 -7.4375 1.6875 -7.59375 C 1.820312 -7.71875 1.976562 -7.78125 2.15625 -7.78125 C 2.445312 -7.78125 2.6875 -7.566406 2.875 -7.140625 C 2.875 -6.890625 2.804688 -6.679688 2.671875 -6.515625 C 2.535156 -6.359375 2.40625 -6.203125 2.28125 -6.046875 C 2 -5.753906 1.71875 -5.460938 1.4375 -5.171875 C 1.15625 -4.878906 0.859375 -4.585938 0.546875 -4.296875 C 0.222656 -3.984375 -0.09375 -3.660156 -0.40625 -3.328125 C -0.726562 -2.992188 -1.03125 -2.644531 -1.3125 -2.28125 C -1.46875 -2.03125 -1.617188 -1.765625 -1.765625 -1.484375 C -1.910156 -1.203125 -1.984375 -0.96875 -1.984375 -0.78125 C -1.984375 -0.707031 -1.957031 -0.644531 -1.90625 -0.59375 C -1.769531 -0.5 -1.640625 -0.453125 -1.515625 -0.453125 C -1.410156 -0.453125 -1.304688 -0.472656 -1.203125 -0.515625 C -1.109375 -0.554688 -1.003906 -0.582031 -0.890625 -0.59375 C -0.742188 -0.625 -0.492188 -0.71875 -0.140625 -0.875 C 0.203125 -1.039062 0.507812 -1.203125 0.78125 -1.359375 C 1.238281 -1.597656 1.691406 -1.84375 2.140625 -2.09375 C 2.585938 -2.34375 3.03125 -2.585938 3.46875 -2.828125 C 3.75 -2.992188 4.019531 -3.164062 4.28125 -3.34375 C 4.550781 -3.519531 4.828125 -3.703125 5.109375 -3.890625 C 5.390625 -4.085938 5.660156 -4.28125 5.921875 -4.46875 C 6.191406 -4.664062 6.472656 -4.863281 6.765625 -5.0625 C 6.640625 -5.519531 6.578125 -5.972656 6.578125 -6.421875 C 6.578125 -7.265625 6.769531 -8 7.15625 -8.625 C 7.476562 -9.207031 7.820312 -9.664062 8.1875 -10 C 8.5625 -10.34375 9.03125 -10.6875 9.59375 -11.03125 C 9.675781 -11.070312 9.765625 -11.109375 9.859375 -11.140625 C 9.960938 -11.179688 10.050781 -11.21875 10.125 -11.25 C 10.3125 -11.3125 10.539062 -11.34375 10.8125 -11.34375 C 11.101562 -11.34375 11.378906 -11.289062 11.640625 -11.1875 C 11.898438 -11.082031 12.0625 -10.910156 12.125 -10.671875 C 12.144531 -10.617188 12.15625 -10.5625 12.15625 -10.5 C 12.15625 -10.445312 12.15625 -10.390625 12.15625 -10.328125 C 12.15625 -10.066406 12.109375 -9.820312 12.015625 -9.59375 C 11.859375 -9.207031 11.65625 -8.835938 11.40625 -8.484375 C 11.164062 -8.140625 10.867188 -7.8125 10.515625 -7.5 C 10.253906 -7.257812 10 -7.035156 9.75 -6.828125 C 9.507812 -6.617188 9.179688 -6.367188 8.765625 -6.078125 C 8.722656 -6.046875 8.679688 -6.015625 8.640625 -5.984375 C 8.597656 -5.953125 8.550781 -5.921875 8.5 -5.890625 C 8.382812 -5.828125 8.253906 -5.726562 8.109375 -5.59375 C 7.960938 -5.457031 7.757812 -5.300781 7.5 -5.125 C 7.53125 -4.914062 7.632812 -4.691406 7.8125 -4.453125 C 8 -4.210938 8.21875 -4.03125 8.46875 -3.90625 C 8.78125 -3.757812 9.15625 -3.6875 9.59375 -3.6875 C 9.875 -3.6875 10.179688 -3.722656 10.515625 -3.796875 C 10.859375 -3.867188 11.21875 -4 11.59375 -4.1875 C 11.8125 -4.289062 12.082031 -4.4375 12.40625 -4.625 C 12.726562 -4.8125 13.003906 -4.992188 13.234375 -5.171875 C 13.398438 -5.296875 13.535156 -5.40625 13.640625 -5.5 C 13.753906 -5.59375 13.890625 -5.691406 14.046875 -5.796875 C 14.054688 -5.816406 14.082031 -5.828125 14.125 -5.828125 C 14.1875 -5.828125 14.226562 -5.796875 14.25 -5.734375 C 14.28125 -5.671875 14.253906 -5.613281 14.171875 -5.5625 C 14.066406 -5.476562 13.957031 -5.390625 13.84375 -5.296875 C 13.726562 -5.203125 13.632812 -5.132812 13.5625 -5.09375 C 13.300781 -4.882812 13.066406 -4.710938 12.859375 -4.578125 C 12.648438 -4.441406 12.40625 -4.296875 12.125 -4.140625 C 11.832031 -3.984375 11.554688 -3.847656 11.296875 -3.734375 C 11.035156 -3.617188 10.753906 -3.523438 10.453125 -3.453125 C 10.304688 -3.421875 10.160156 -3.394531 10.015625 -3.375 C 9.878906 -3.363281 9.722656 -3.359375 9.546875 -3.359375 C 9.253906 -3.359375 8.96875 -3.390625 8.6875 -3.453125 C 8.414062 -3.515625 8.164062 -3.613281 7.9375 -3.75 C 7.78125 -3.820312 7.59375 -3.953125 7.375 -4.140625 C 7.164062 -4.328125 7 -4.535156 6.875 -4.765625 C 6.675781 -4.609375 6.519531 -4.488281 6.40625 -4.40625 C 6.289062 -4.320312 6.171875 -4.242188 6.046875 -4.171875 C 5.523438 -3.785156 4.992188 -3.425781 4.453125 -3.09375 C 3.910156 -2.757812 3.351562 -2.4375 2.78125 -2.125 C 2.3125 -1.84375 1.828125 -1.570312 1.328125 -1.3125 C 0.828125 -1.0625 0.332031 -0.816406 -0.15625 -0.578125 C -0.34375 -0.484375 -0.535156 -0.410156 -0.734375 -0.359375 C -0.929688 -0.304688 -1.140625 -0.253906 -1.359375 -0.203125 Z M 7.484375 -5.453125 C 7.585938 -5.515625 7.707031 -5.597656 7.84375 -5.703125 C 7.988281 -5.816406 8.082031 -5.890625 8.125 -5.921875 C 8.425781 -6.128906 8.671875 -6.304688 8.859375 -6.453125 C 9.046875 -6.597656 9.207031 -6.722656 9.34375 -6.828125 C 9.882812 -7.234375 10.347656 -7.65625 10.734375 -8.09375 C 11.128906 -8.539062 11.378906 -8.894531 11.484375 -9.15625 C 11.609375 -9.320312 11.703125 -9.539062 11.765625 -9.8125 C 11.835938 -10.082031 11.882812 -10.316406 11.90625 -10.515625 C 11.84375 -10.734375 11.742188 -10.847656 11.609375 -10.859375 C 11.484375 -10.878906 11.378906 -10.894531 11.296875 -10.90625 C 11.085938 -10.894531 10.867188 -10.816406 10.640625 -10.671875 C 10.421875 -10.535156 10.234375 -10.414062 10.078125 -10.3125 C 9.523438 -9.851562 9.039062 -9.347656 8.625 -8.796875 C 8.320312 -8.378906 8.046875 -7.863281 7.796875 -7.25 C 7.554688 -6.632812 7.453125 -6.035156 7.484375 -5.453125 Z M 7.484375 -5.453125 "/></g></g></g><g fill="#000000" fill-opacity="1"><g transform="translate(156.819895, 163.443541)"><g><path d="M 6.875 -11 C 6.84375 -11 6.8125 -11.003906 6.78125 -11.015625 C 6.757812 -11.023438 6.734375 -11.03125 6.703125 -11.03125 C 6.421875 -11.132812 6.242188 -11.335938 6.171875 -11.640625 C 6.171875 -11.816406 6.21875 -11.960938 6.3125 -12.078125 C 6.414062 -12.203125 6.53125 -12.3125 6.65625 -12.40625 C 6.726562 -12.476562 6.8125 -12.535156 6.90625 -12.578125 C 7 -12.617188 7.097656 -12.640625 7.203125 -12.640625 C 7.242188 -12.640625 7.328125 -12.625 7.453125 -12.59375 C 7.671875 -12.375 7.78125 -12.128906 7.78125 -11.859375 C 7.78125 -11.804688 7.773438 -11.753906 7.765625 -11.703125 C 7.753906 -11.648438 7.742188 -11.59375 7.734375 -11.53125 C 7.515625 -11.175781 7.226562 -11 6.875 -11 Z M -0.96875 -0.375 C -1.289062 -0.375 -1.632812 -0.460938 -2 -0.640625 C -2.1875 -0.804688 -2.328125 -0.96875 -2.421875 -1.125 C -2.515625 -1.28125 -2.5625 -1.488281 -2.5625 -1.75 C -2.5625 -1.820312 -2.5625 -1.890625 -2.5625 -1.953125 C -2.5625 -2.015625 -2.550781 -2.082031 -2.53125 -2.15625 C -2.46875 -2.425781 -2.351562 -2.726562 -2.1875 -3.0625 C -2.019531 -3.394531 -1.859375 -3.671875 -1.703125 -3.890625 C -1.597656 -4.054688 -1.457031 -4.257812 -1.28125 -4.5 C -1.113281 -4.75 -0.878906 -5.050781 -0.578125 -5.40625 L -0.28125 -5.734375 C -0.0625 -5.972656 0.0976562 -6.15625 0.203125 -6.28125 C 0.316406 -6.414062 0.445312 -6.570312 0.59375 -6.75 C 0.875 -6.976562 1.085938 -7.15625 1.234375 -7.28125 C 1.390625 -7.414062 1.53125 -7.523438 1.65625 -7.609375 C 1.789062 -7.703125 1.957031 -7.820312 2.15625 -7.96875 C 2.3125 -8.070312 2.492188 -8.164062 2.703125 -8.25 C 2.910156 -8.332031 3.113281 -8.359375 3.3125 -8.328125 C 3.5 -8.253906 3.59375 -8.109375 3.59375 -7.890625 C 3.59375 -7.859375 3.59375 -7.816406 3.59375 -7.765625 C 3.59375 -7.722656 3.582031 -7.691406 3.5625 -7.671875 C 3.488281 -7.515625 3.378906 -7.378906 3.234375 -7.265625 C 3.085938 -7.148438 2.953125 -7.03125 2.828125 -6.90625 C 2.671875 -6.769531 2.515625 -6.632812 2.359375 -6.5 C 2.210938 -6.375 2.054688 -6.25 1.890625 -6.125 C 1.535156 -5.84375 1.207031 -5.554688 0.90625 -5.265625 C 0.601562 -4.972656 0.296875 -4.648438 -0.015625 -4.296875 C -0.0664062 -4.273438 -0.148438 -4.191406 -0.265625 -4.046875 C -0.390625 -3.910156 -0.484375 -3.804688 -0.546875 -3.734375 C -0.722656 -3.546875 -0.867188 -3.359375 -0.984375 -3.171875 C -1.109375 -2.992188 -1.253906 -2.773438 -1.421875 -2.515625 C -1.503906 -2.398438 -1.585938 -2.269531 -1.671875 -2.125 C -1.765625 -1.976562 -1.828125 -1.835938 -1.859375 -1.703125 C -1.910156 -1.609375 -1.9375 -1.5 -1.9375 -1.375 C -1.9375 -1.289062 -1.914062 -1.195312 -1.875 -1.09375 C -1.832031 -0.988281 -1.757812 -0.898438 -1.65625 -0.828125 C -1.53125 -0.765625 -1.398438 -0.71875 -1.265625 -0.6875 C -1.140625 -0.65625 -1.007812 -0.640625 -0.875 -0.640625 C -0.550781 -0.640625 -0.289062 -0.6875 -0.09375 -0.78125 C 0.1875 -0.90625 0.5 -1.023438 0.84375 -1.140625 C 1.1875 -1.265625 1.441406 -1.398438 1.609375 -1.546875 C 1.773438 -1.617188 1.921875 -1.6875 2.046875 -1.75 C 2.179688 -1.820312 2.320312 -1.898438 2.46875 -1.984375 C 2.707031 -2.117188 2.929688 -2.265625 3.140625 -2.421875 C 3.347656 -2.585938 3.578125 -2.734375 3.828125 -2.859375 C 4.160156 -3.054688 4.484375 -3.257812 4.796875 -3.46875 C 5.109375 -3.6875 5.410156 -3.90625 5.703125 -4.125 C 6.015625 -4.332031 6.34375 -4.5625 6.6875 -4.8125 C 7.03125 -5.070312 7.367188 -5.320312 7.703125 -5.5625 C 7.785156 -5.625 7.863281 -5.6875 7.9375 -5.75 C 8.019531 -5.8125 8.085938 -5.835938 8.140625 -5.828125 C 8.171875 -5.804688 8.1875 -5.773438 8.1875 -5.734375 C 8.1875 -5.710938 8.175781 -5.6875 8.15625 -5.65625 C 8.132812 -5.625 8.113281 -5.59375 8.09375 -5.5625 L 7.984375 -5.453125 C 7.328125 -4.929688 6.648438 -4.421875 5.953125 -3.921875 C 5.265625 -3.421875 4.539062 -2.957031 3.78125 -2.53125 C 3.34375 -2.238281 2.882812 -1.957031 2.40625 -1.6875 C 1.925781 -1.414062 1.414062 -1.160156 0.875 -0.921875 C 0.769531 -0.878906 0.664062 -0.828125 0.5625 -0.765625 C 0.46875 -0.710938 0.359375 -0.671875 0.234375 -0.640625 C 0.046875 -0.578125 -0.144531 -0.515625 -0.34375 -0.453125 C -0.539062 -0.398438 -0.75 -0.375 -0.96875 -0.375 Z M -0.96875 -0.375 "/></g></g></g><g fill="#000000" fill-opacity="1"><g transform="translate(164.460551, 163.443541)"><g><path d="M 27.140625 -20.4375 C 27.210938 -20.375 27.265625 -20.300781 27.296875 -20.21875 C 27.335938 -20.144531 27.367188 -20.082031 27.390625 -20.03125 C 27.367188 -19.5 27.226562 -19.050781 26.96875 -18.6875 C 26.707031 -18.320312 26.425781 -17.976562 26.125 -17.65625 C 25.894531 -17.40625 25.648438 -17.175781 25.390625 -16.96875 C 25.128906 -16.757812 24.882812 -16.539062 24.65625 -16.3125 C 24.332031 -16.050781 24.082031 -15.835938 23.90625 -15.671875 C 23.726562 -15.515625 23.476562 -15.304688 23.15625 -15.046875 C 23.050781 -14.941406 22.890625 -14.828125 22.671875 -14.703125 C 22.453125 -14.578125 22.285156 -14.460938 22.171875 -14.359375 C 21.929688 -14.191406 21.6875 -14.035156 21.4375 -13.890625 C 21.195312 -13.742188 20.957031 -13.59375 20.71875 -13.4375 L 20.140625 -13.078125 C 19.710938 -12.847656 19.269531 -12.628906 18.8125 -12.421875 C 18.363281 -12.210938 17.914062 -12 17.46875 -11.78125 C 16.851562 -11.519531 16.222656 -11.300781 15.578125 -11.125 C 14.929688 -10.945312 14.296875 -10.769531 13.671875 -10.59375 C 13.515625 -10.5625 13.367188 -10.519531 13.234375 -10.46875 C 13.097656 -10.425781 12.953125 -10.390625 12.796875 -10.359375 C 12.535156 -10.296875 12.265625 -10.238281 11.984375 -10.1875 C 11.710938 -10.132812 11.445312 -10.09375 11.1875 -10.0625 C 10.84375 -10.007812 10.535156 -9.863281 10.265625 -9.625 L 9.546875 -9 C 9.367188 -8.84375 9.191406 -8.6875 9.015625 -8.53125 C 8.835938 -8.382812 8.664062 -8.226562 8.5 -8.0625 C 8.25 -7.820312 8.007812 -7.585938 7.78125 -7.359375 C 7.550781 -7.128906 7.320312 -6.882812 7.09375 -6.625 C 6.832031 -6.332031 6.566406 -6.046875 6.296875 -5.765625 C 6.023438 -5.484375 5.757812 -5.1875 5.5 -4.875 C 5.007812 -4.3125 4.601562 -3.769531 4.28125 -3.25 C 3.957031 -2.738281 3.796875 -2.175781 3.796875 -1.5625 C 3.796875 -1.269531 3.875 -1.023438 4.03125 -0.828125 C 4.195312 -0.628906 4.441406 -0.53125 4.765625 -0.53125 C 5.222656 -0.53125 5.722656 -0.617188 6.265625 -0.796875 C 6.816406 -0.984375 7.351562 -1.210938 7.875 -1.484375 C 8.40625 -1.765625 8.890625 -2.039062 9.328125 -2.3125 C 9.765625 -2.59375 10.109375 -2.816406 10.359375 -2.984375 C 10.648438 -3.191406 10.957031 -3.40625 11.28125 -3.625 C 11.601562 -3.84375 11.910156 -4.078125 12.203125 -4.328125 C 12.503906 -4.554688 12.828125 -4.800781 13.171875 -5.0625 C 13.515625 -5.320312 13.8125 -5.535156 14.0625 -5.703125 C 14.21875 -5.796875 14.332031 -5.835938 14.40625 -5.828125 C 14.457031 -5.828125 14.484375 -5.8125 14.484375 -5.78125 C 14.484375 -5.726562 14.390625 -5.632812 14.203125 -5.5 C 13.566406 -5.039062 12.960938 -4.582031 12.390625 -4.125 C 11.828125 -3.675781 11.21875 -3.238281 10.5625 -2.8125 C 10.300781 -2.644531 9.941406 -2.414062 9.484375 -2.125 C 9.035156 -1.84375 8.539062 -1.554688 8 -1.265625 C 7.457031 -0.972656 6.910156 -0.726562 6.359375 -0.53125 C 5.804688 -0.332031 5.296875 -0.234375 4.828125 -0.234375 C 4.328125 -0.234375 3.914062 -0.382812 3.59375 -0.6875 C 3.28125 -1 3.125 -1.382812 3.125 -1.84375 C 3.125 -1.914062 3.128906 -1.992188 3.140625 -2.078125 C 3.148438 -2.160156 3.160156 -2.242188 3.171875 -2.328125 C 3.484375 -3.554688 4.03125 -4.632812 4.8125 -5.5625 L 5.125 -5.984375 C 5.070312 -5.921875 5.015625 -5.859375 4.953125 -5.796875 C 4.890625 -5.734375 4.800781 -5.65625 4.6875 -5.5625 L 4.53125 -5.40625 C 3.875 -4.8125 3.28125 -4.289062 2.75 -3.84375 C 2.21875 -3.394531 1.660156 -2.9375 1.078125 -2.46875 C 0.898438 -2.3125 0.710938 -2.175781 0.515625 -2.0625 C 0.328125 -1.957031 0.125 -1.859375 -0.09375 -1.765625 C -0.226562 -1.710938 -0.390625 -1.6875 -0.578125 -1.6875 C -0.785156 -1.6875 -0.992188 -1.742188 -1.203125 -1.859375 C -1.316406 -1.984375 -1.398438 -2.125 -1.453125 -2.28125 C -1.515625 -2.445312 -1.546875 -2.613281 -1.546875 -2.78125 C -1.546875 -2.84375 -1.539062 -2.90625 -1.53125 -2.96875 C -1.519531 -3.03125 -1.507812 -3.09375 -1.5 -3.15625 C -1.4375 -3.488281 -1.335938 -3.804688 -1.203125 -4.109375 C -1.078125 -4.421875 -0.929688 -4.71875 -0.765625 -5 C -0.503906 -5.375 -0.242188 -5.722656 0.015625 -6.046875 C 0.253906 -6.335938 0.503906 -6.628906 0.765625 -6.921875 C 0.878906 -7.066406 1.003906 -7.203125 1.140625 -7.328125 C 1.285156 -7.460938 1.4375 -7.585938 1.59375 -7.703125 C 1.757812 -7.847656 1.921875 -7.992188 2.078125 -8.140625 C 2.242188 -8.285156 2.410156 -8.410156 2.578125 -8.515625 C 2.992188 -8.796875 3.5 -9.050781 4.09375 -9.28125 C 4.226562 -9.34375 4.367188 -9.378906 4.515625 -9.390625 C 4.660156 -9.398438 4.796875 -9.40625 4.921875 -9.40625 C 5.367188 -9.40625 5.703125 -9.335938 5.921875 -9.203125 C 6.066406 -9.097656 6.238281 -8.953125 6.4375 -8.765625 C 6.644531 -8.585938 6.785156 -8.320312 6.859375 -7.96875 L 8.453125 -9.625 C 8.460938 -9.65625 8.503906 -9.695312 8.578125 -9.75 C 8.660156 -9.800781 8.707031 -9.84375 8.71875 -9.875 L 9.625 -10.671875 C 9.957031 -11.015625 10.300781 -11.332031 10.65625 -11.625 C 11.019531 -11.925781 11.378906 -12.234375 11.734375 -12.546875 C 12.117188 -12.867188 12.507812 -13.1875 12.90625 -13.5 C 13.3125 -13.8125 13.710938 -14.125 14.109375 -14.4375 C 14.566406 -14.78125 15.039062 -15.113281 15.53125 -15.4375 C 16.019531 -15.757812 16.515625 -16.082031 17.015625 -16.40625 C 17.160156 -16.519531 17.3125 -16.617188 17.46875 -16.703125 C 17.632812 -16.785156 17.796875 -16.878906 17.953125 -16.984375 C 18.398438 -17.242188 18.835938 -17.492188 19.265625 -17.734375 C 19.691406 -17.972656 20.113281 -18.207031 20.53125 -18.4375 C 21.1875 -18.800781 21.835938 -19.132812 22.484375 -19.4375 C 23.128906 -19.75 23.78125 -20.035156 24.4375 -20.296875 C 24.84375 -20.429688 25.242188 -20.546875 25.640625 -20.640625 C 25.734375 -20.660156 25.820312 -20.671875 25.90625 -20.671875 C 26 -20.679688 26.09375 -20.6875 26.1875 -20.6875 C 26.53125 -20.6875 26.847656 -20.601562 27.140625 -20.4375 Z M 26.875 -19.234375 C 26.90625 -19.296875 26.945312 -19.390625 27 -19.515625 C 27.0625 -19.640625 27.0625 -19.753906 27 -19.859375 C 26.90625 -19.890625 26.835938 -19.90625 26.796875 -19.90625 C 26.617188 -19.90625 26.425781 -19.863281 26.21875 -19.78125 C 26.019531 -19.695312 25.859375 -19.640625 25.734375 -19.609375 C 25.484375 -19.515625 25.226562 -19.414062 24.96875 -19.3125 C 24.707031 -19.21875 24.457031 -19.109375 24.21875 -18.984375 C 23.988281 -18.878906 23.753906 -18.757812 23.515625 -18.625 C 23.285156 -18.5 23.066406 -18.375 22.859375 -18.25 L 21.296875 -17.453125 C 21.085938 -17.335938 20.878906 -17.222656 20.671875 -17.109375 C 20.472656 -16.992188 20.265625 -16.875 20.046875 -16.75 C 19.796875 -16.613281 19.550781 -16.476562 19.3125 -16.34375 C 19.082031 -16.207031 18.84375 -16.0625 18.59375 -15.90625 C 18.351562 -15.769531 18.113281 -15.617188 17.875 -15.453125 C 17.632812 -15.296875 17.390625 -15.140625 17.140625 -14.984375 L 15.78125 -14.046875 C 15.582031 -13.890625 15.382812 -13.742188 15.1875 -13.609375 C 14.988281 -13.484375 14.789062 -13.34375 14.59375 -13.1875 C 14.394531 -13.03125 14.191406 -12.867188 13.984375 -12.703125 C 13.773438 -12.546875 13.5625 -12.382812 13.34375 -12.21875 C 13.082031 -12.007812 12.8125 -11.800781 12.53125 -11.59375 C 12.257812 -11.382812 11.992188 -11.171875 11.734375 -10.953125 C 11.660156 -10.890625 11.582031 -10.820312 11.5 -10.75 C 11.414062 -10.675781 11.34375 -10.578125 11.28125 -10.453125 C 11.4375 -10.453125 11.582031 -10.457031 11.71875 -10.46875 C 11.863281 -10.488281 12.015625 -10.515625 12.171875 -10.546875 C 12.722656 -10.628906 13.265625 -10.738281 13.796875 -10.875 C 14.335938 -11.019531 14.882812 -11.1875 15.4375 -11.375 C 15.550781 -11.40625 15.660156 -11.4375 15.765625 -11.46875 C 15.867188 -11.507812 15.976562 -11.546875 16.09375 -11.578125 C 16.519531 -11.734375 16.941406 -11.90625 17.359375 -12.09375 C 17.785156 -12.28125 18.195312 -12.46875 18.59375 -12.65625 C 19.082031 -12.875 19.535156 -13.101562 19.953125 -13.34375 C 20.378906 -13.59375 20.835938 -13.882812 21.328125 -14.21875 C 21.359375 -14.238281 21.390625 -14.257812 21.421875 -14.28125 C 21.453125 -14.300781 21.484375 -14.320312 21.515625 -14.34375 C 21.921875 -14.582031 22.34375 -14.867188 22.78125 -15.203125 C 23.21875 -15.546875 23.625 -15.882812 24 -16.21875 C 24.320312 -16.507812 24.640625 -16.785156 24.953125 -17.046875 C 25.273438 -17.316406 25.582031 -17.597656 25.875 -17.890625 C 26.050781 -18.066406 26.234375 -18.273438 26.421875 -18.515625 C 26.617188 -18.753906 26.769531 -18.992188 26.875 -19.234375 Z M 5.984375 -7.0625 C 6.054688 -7.125 6.132812 -7.195312 6.21875 -7.28125 C 6.3125 -7.363281 6.429688 -7.46875 6.578125 -7.59375 C 6.566406 -7.695312 6.53125 -7.828125 6.46875 -7.984375 C 6.414062 -8.140625 6.257812 -8.335938 6 -8.578125 C 5.925781 -8.660156 5.796875 -8.703125 5.609375 -8.703125 C 5.378906 -8.703125 5.125 -8.644531 4.84375 -8.53125 C 4.570312 -8.414062 4.347656 -8.296875 4.171875 -8.171875 C 3.859375 -7.953125 3.597656 -7.757812 3.390625 -7.59375 C 3.179688 -7.4375 2.976562 -7.273438 2.78125 -7.109375 C 2.71875 -7.066406 2.65625 -7.015625 2.59375 -6.953125 C 2.539062 -6.898438 2.472656 -6.835938 2.390625 -6.765625 C 2.085938 -6.515625 1.8125 -6.253906 1.5625 -5.984375 C 1.320312 -5.722656 1.078125 -5.445312 0.828125 -5.15625 L 0.328125 -4.515625 C 0.148438 -4.296875 -0.00390625 -4.085938 -0.140625 -3.890625 C -0.273438 -3.703125 -0.40625 -3.488281 -0.53125 -3.25 C -0.632812 -2.957031 -0.6875 -2.695312 -0.6875 -2.46875 C -0.6875 -2.320312 -0.671875 -2.226562 -0.640625 -2.1875 C -0.597656 -2.09375 -0.507812 -2.046875 -0.375 -2.046875 C -0.25 -2.046875 -0.128906 -2.078125 -0.015625 -2.140625 C 0.128906 -2.210938 0.25 -2.28125 0.34375 -2.34375 C 0.445312 -2.40625 0.601562 -2.503906 0.8125 -2.640625 C 1.15625 -2.898438 1.453125 -3.140625 1.703125 -3.359375 C 1.960938 -3.585938 2.238281 -3.816406 2.53125 -4.046875 C 2.695312 -4.171875 2.847656 -4.285156 2.984375 -4.390625 C 3.128906 -4.503906 3.265625 -4.617188 3.390625 -4.734375 C 3.828125 -5.140625 4.257812 -5.53125 4.6875 -5.90625 C 5.125 -6.289062 5.554688 -6.675781 5.984375 -7.0625 Z M 5.984375 -7.0625 "/></g></g></g><g fill="#000000" fill-opacity="1"><g transform="translate(178.246025, 163.443541)"><g><path d="M -1.359375 -0.203125 C -1.773438 -0.160156 -2.144531 -0.269531 -2.46875 -0.53125 C -2.675781 -0.75 -2.78125 -1.015625 -2.78125 -1.328125 C -2.78125 -1.546875 -2.738281 -1.769531 -2.65625 -2 C -2.570312 -2.226562 -2.476562 -2.453125 -2.375 -2.671875 C -2.226562 -2.929688 -2.085938 -3.179688 -1.953125 -3.421875 C -1.828125 -3.671875 -1.675781 -3.90625 -1.5 -4.125 C -1.40625 -4.226562 -1.257812 -4.398438 -1.0625 -4.640625 C -0.875 -4.890625 -0.734375 -5.066406 -0.640625 -5.171875 C -0.378906 -5.484375 -0.175781 -5.722656 -0.03125 -5.890625 C 0.113281 -6.054688 0.332031 -6.285156 0.625 -6.578125 C 0.75 -6.722656 0.898438 -6.890625 1.078125 -7.078125 C 1.265625 -7.265625 1.46875 -7.4375 1.6875 -7.59375 C 1.820312 -7.71875 1.976562 -7.78125 2.15625 -7.78125 C 2.445312 -7.78125 2.6875 -7.566406 2.875 -7.140625 C 2.875 -6.890625 2.804688 -6.679688 2.671875 -6.515625 C 2.535156 -6.359375 2.40625 -6.203125 2.28125 -6.046875 C 2 -5.753906 1.71875 -5.460938 1.4375 -5.171875 C 1.15625 -4.878906 0.859375 -4.585938 0.546875 -4.296875 C 0.222656 -3.984375 -0.09375 -3.660156 -0.40625 -3.328125 C -0.726562 -2.992188 -1.03125 -2.644531 -1.3125 -2.28125 C -1.46875 -2.03125 -1.617188 -1.765625 -1.765625 -1.484375 C -1.910156 -1.203125 -1.984375 -0.96875 -1.984375 -0.78125 C -1.984375 -0.707031 -1.957031 -0.644531 -1.90625 -0.59375 C -1.769531 -0.5 -1.640625 -0.453125 -1.515625 -0.453125 C -1.410156 -0.453125 -1.304688 -0.472656 -1.203125 -0.515625 C -1.109375 -0.554688 -1.003906 -0.582031 -0.890625 -0.59375 C -0.742188 -0.625 -0.492188 -0.71875 -0.140625 -0.875 C 0.203125 -1.039062 0.507812 -1.203125 0.78125 -1.359375 C 1.238281 -1.597656 1.691406 -1.84375 2.140625 -2.09375 C 2.585938 -2.34375 3.03125 -2.585938 3.46875 -2.828125 C 3.75 -2.992188 4.019531 -3.164062 4.28125 -3.34375 C 4.550781 -3.519531 4.828125 -3.703125 5.109375 -3.890625 C 5.390625 -4.085938 5.660156 -4.28125 5.921875 -4.46875 C 6.191406 -4.664062 6.472656 -4.863281 6.765625 -5.0625 C 6.640625 -5.519531 6.578125 -5.972656 6.578125 -6.421875 C 6.578125 -7.265625 6.769531 -8 7.15625 -8.625 C 7.476562 -9.207031 7.820312 -9.664062 8.1875 -10 C 8.5625 -10.34375 9.03125 -10.6875 9.59375 -11.03125 C 9.675781 -11.070312 9.765625 -11.109375 9.859375 -11.140625 C 9.960938 -11.179688 10.050781 -11.21875 10.125 -11.25 C 10.3125 -11.3125 10.539062 -11.34375 10.8125 -11.34375 C 11.101562 -11.34375 11.378906 -11.289062 11.640625 -11.1875 C 11.898438 -11.082031 12.0625 -10.910156 12.125 -10.671875 C 12.144531 -10.617188 12.15625 -10.5625 12.15625 -10.5 C 12.15625 -10.445312 12.15625 -10.390625 12.15625 -10.328125 C 12.15625 -10.066406 12.109375 -9.820312 12.015625 -9.59375 C 11.859375 -9.207031 11.65625 -8.835938 11.40625 -8.484375 C 11.164062 -8.140625 10.867188 -7.8125 10.515625 -7.5 C 10.253906 -7.257812 10 -7.035156 9.75 -6.828125 C 9.507812 -6.617188 9.179688 -6.367188 8.765625 -6.078125 C 8.722656 -6.046875 8.679688 -6.015625 8.640625 -5.984375 C 8.597656 -5.953125 8.550781 -5.921875 8.5 -5.890625 C 8.382812 -5.828125 8.253906 -5.726562 8.109375 -5.59375 C 7.960938 -5.457031 7.757812 -5.300781 7.5 -5.125 C 7.53125 -4.914062 7.632812 -4.691406 7.8125 -4.453125 C 8 -4.210938 8.21875 -4.03125 8.46875 -3.90625 C 8.78125 -3.757812 9.15625 -3.6875 9.59375 -3.6875 C 9.875 -3.6875 10.179688 -3.722656 10.515625 -3.796875 C 10.859375 -3.867188 11.21875 -4 11.59375 -4.1875 C 11.8125 -4.289062 12.082031 -4.4375 12.40625 -4.625 C 12.726562 -4.8125 13.003906 -4.992188 13.234375 -5.171875 C 13.398438 -5.296875 13.535156 -5.40625 13.640625 -5.5 C 13.753906 -5.59375 13.890625 -5.691406 14.046875 -5.796875 C 14.054688 -5.816406 14.082031 -5.828125 14.125 -5.828125 C 14.1875 -5.828125 14.226562 -5.796875 14.25 -5.734375 C 14.28125 -5.671875 14.253906 -5.613281 14.171875 -5.5625 C 14.066406 -5.476562 13.957031 -5.390625 13.84375 -5.296875 C 13.726562 -5.203125 13.632812 -5.132812 13.5625 -5.09375 C 13.300781 -4.882812 13.066406 -4.710938 12.859375 -4.578125 C 12.648438 -4.441406 12.40625 -4.296875 12.125 -4.140625 C 11.832031 -3.984375 11.554688 -3.847656 11.296875 -3.734375 C 11.035156 -3.617188 10.753906 -3.523438 10.453125 -3.453125 C 10.304688 -3.421875 10.160156 -3.394531 10.015625 -3.375 C 9.878906 -3.363281 9.722656 -3.359375 9.546875 -3.359375 C 9.253906 -3.359375 8.96875 -3.390625 8.6875 -3.453125 C 8.414062 -3.515625 8.164062 -3.613281 7.9375 -3.75 C 7.78125 -3.820312 7.59375 -3.953125 7.375 -4.140625 C 7.164062 -4.328125 7 -4.535156 6.875 -4.765625 C 6.675781 -4.609375 6.519531 -4.488281 6.40625 -4.40625 C 6.289062 -4.320312 6.171875 -4.242188 6.046875 -4.171875 C 5.523438 -3.785156 4.992188 -3.425781 4.453125 -3.09375 C 3.910156 -2.757812 3.351562 -2.4375 2.78125 -2.125 C 2.3125 -1.84375 1.828125 -1.570312 1.328125 -1.3125 C 0.828125 -1.0625 0.332031 -0.816406 -0.15625 -0.578125 C -0.34375 -0.484375 -0.535156 -0.410156 -0.734375 -0.359375 C -0.929688 -0.304688 -1.140625 -0.253906 -1.359375 -0.203125 Z M 7.484375 -5.453125 C 7.585938 -5.515625 7.707031 -5.597656 7.84375 -5.703125 C 7.988281 -5.816406 8.082031 -5.890625 8.125 -5.921875 C 8.425781 -6.128906 8.671875 -6.304688 8.859375 -6.453125 C 9.046875 -6.597656 9.207031 -6.722656 9.34375 -6.828125 C 9.882812 -7.234375 10.347656 -7.65625 10.734375 -8.09375 C 11.128906 -8.539062 11.378906 -8.894531 11.484375 -9.15625 C 11.609375 -9.320312 11.703125 -9.539062 11.765625 -9.8125 C 11.835938 -10.082031 11.882812 -10.316406 11.90625 -10.515625 C 11.84375 -10.734375 11.742188 -10.847656 11.609375 -10.859375 C 11.484375 -10.878906 11.378906 -10.894531 11.296875 -10.90625 C 11.085938 -10.894531 10.867188 -10.816406 10.640625 -10.671875 C 10.421875 -10.535156 10.234375 -10.414062 10.078125 -10.3125 C 9.523438 -9.851562 9.039062 -9.347656 8.625 -8.796875 C 8.320312 -8.378906 8.046875 -7.863281 7.796875 -7.25 C 7.554688 -6.632812 7.453125 -6.035156 7.484375 -5.453125 Z M 7.484375 -5.453125 "/></g></g></g><g fill="#000000" fill-opacity="1"><g transform="translate(191.870404, 163.443541)"><g><path d="M 6.875 -11 C 6.84375 -11 6.8125 -11.003906 6.78125 -11.015625 C 6.757812 -11.023438 6.734375 -11.03125 6.703125 -11.03125 C 6.421875 -11.132812 6.242188 -11.335938 6.171875 -11.640625 C 6.171875 -11.816406 6.21875 -11.960938 6.3125 -12.078125 C 6.414062 -12.203125 6.53125 -12.3125 6.65625 -12.40625 C 6.726562 -12.476562 6.8125 -12.535156 6.90625 -12.578125 C 7 -12.617188 7.097656 -12.640625 7.203125 -12.640625 C 7.242188 -12.640625 7.328125 -12.625 7.453125 -12.59375 C 7.671875 -12.375 7.78125 -12.128906 7.78125 -11.859375 C 7.78125 -11.804688 7.773438 -11.753906 7.765625 -11.703125 C 7.753906 -11.648438 7.742188 -11.59375 7.734375 -11.53125 C 7.515625 -11.175781 7.226562 -11 6.875 -11 Z M -0.96875 -0.375 C -1.289062 -0.375 -1.632812 -0.460938 -2 -0.640625 C -2.1875 -0.804688 -2.328125 -0.96875 -2.421875 -1.125 C -2.515625 -1.28125 -2.5625 -1.488281 -2.5625 -1.75 C -2.5625 -1.820312 -2.5625 -1.890625 -2.5625 -1.953125 C -2.5625 -2.015625 -2.550781 -2.082031 -2.53125 -2.15625 C -2.46875 -2.425781 -2.351562 -2.726562 -2.1875 -3.0625 C -2.019531 -3.394531 -1.859375 -3.671875 -1.703125 -3.890625 C -1.597656 -4.054688 -1.457031 -4.257812 -1.28125 -4.5 C -1.113281 -4.75 -0.878906 -5.050781 -0.578125 -5.40625 L -0.28125 -5.734375 C -0.0625 -5.972656 0.0976562 -6.15625 0.203125 -6.28125 C 0.316406 -6.414062 0.445312 -6.570312 0.59375 -6.75 C 0.875 -6.976562 1.085938 -7.15625 1.234375 -7.28125 C 1.390625 -7.414062 1.53125 -7.523438 1.65625 -7.609375 C 1.789062 -7.703125 1.957031 -7.820312 2.15625 -7.96875 C 2.3125 -8.070312 2.492188 -8.164062 2.703125 -8.25 C 2.910156 -8.332031 3.113281 -8.359375 3.3125 -8.328125 C 3.5 -8.253906 3.59375 -8.109375 3.59375 -7.890625 C 3.59375 -7.859375 3.59375 -7.816406 3.59375 -7.765625 C 3.59375 -7.722656 3.582031 -7.691406 3.5625 -7.671875 C 3.488281 -7.515625 3.378906 -7.378906 3.234375 -7.265625 C 3.085938 -7.148438 2.953125 -7.03125 2.828125 -6.90625 C 2.671875 -6.769531 2.515625 -6.632812 2.359375 -6.5 C 2.210938 -6.375 2.054688 -6.25 1.890625 -6.125 C 1.535156 -5.84375 1.207031 -5.554688 0.90625 -5.265625 C 0.601562 -4.972656 0.296875 -4.648438 -0.015625 -4.296875 C -0.0664062 -4.273438 -0.148438 -4.191406 -0.265625 -4.046875 C -0.390625 -3.910156 -0.484375 -3.804688 -0.546875 -3.734375 C -0.722656 -3.546875 -0.867188 -3.359375 -0.984375 -3.171875 C -1.109375 -2.992188 -1.253906 -2.773438 -1.421875 -2.515625 C -1.503906 -2.398438 -1.585938 -2.269531 -1.671875 -2.125 C -1.765625 -1.976562 -1.828125 -1.835938 -1.859375 -1.703125 C -1.910156 -1.609375 -1.9375 -1.5 -1.9375 -1.375 C -1.9375 -1.289062 -1.914062 -1.195312 -1.875 -1.09375 C -1.832031 -0.988281 -1.757812 -0.898438 -1.65625 -0.828125 C -1.53125 -0.765625 -1.398438 -0.71875 -1.265625 -0.6875 C -1.140625 -0.65625 -1.007812 -0.640625 -0.875 -0.640625 C -0.550781 -0.640625 -0.289062 -0.6875 -0.09375 -0.78125 C 0.1875 -0.90625 0.5 -1.023438 0.84375 -1.140625 C 1.1875 -1.265625 1.441406 -1.398438 1.609375 -1.546875 C 1.773438 -1.617188 1.921875 -1.6875 2.046875 -1.75 C 2.179688 -1.820312 2.320312 -1.898438 2.46875 -1.984375 C 2.707031 -2.117188 2.929688 -2.265625 3.140625 -2.421875 C 3.347656 -2.585938 3.578125 -2.734375 3.828125 -2.859375 C 4.160156 -3.054688 4.484375 -3.257812 4.796875 -3.46875 C 5.109375 -3.6875 5.410156 -3.90625 5.703125 -4.125 C 6.015625 -4.332031 6.34375 -4.5625 6.6875 -4.8125 C 7.03125 -5.070312 7.367188 -5.320312 7.703125 -5.5625 C 7.785156 -5.625 7.863281 -5.6875 7.9375 -5.75 C 8.019531 -5.8125 8.085938 -5.835938 8.140625 -5.828125 C 8.171875 -5.804688 8.1875 -5.773438 8.1875 -5.734375 C 8.1875 -5.710938 8.175781 -5.6875 8.15625 -5.65625 C 8.132812 -5.625 8.113281 -5.59375 8.09375 -5.5625 L 7.984375 -5.453125 C 7.328125 -4.929688 6.648438 -4.421875 5.953125 -3.921875 C 5.265625 -3.421875 4.539062 -2.957031 3.78125 -2.53125 C 3.34375 -2.238281 2.882812 -1.957031 2.40625 -1.6875 C 1.925781 -1.414062 1.414062 -1.160156 0.875 -0.921875 C 0.769531 -0.878906 0.664062 -0.828125 0.5625 -0.765625 C 0.46875 -0.710938 0.359375 -0.671875 0.234375 -0.640625 C 0.046875 -0.578125 -0.144531 -0.515625 -0.34375 -0.453125 C -0.539062 -0.398438 -0.75 -0.375 -0.96875 -0.375 Z M -0.96875 -0.375 "/></g></g></g><g fill="#000000" fill-opacity="1"><g transform="translate(199.511055, 163.443541)"><g><path d="M 4.609375 -0.15625 C 4.460938 -0.15625 4.320312 -0.160156 4.1875 -0.171875 C 4.050781 -0.191406 3.921875 -0.21875 3.796875 -0.25 C 3.566406 -0.363281 3.410156 -0.5 3.328125 -0.65625 C 3.242188 -0.8125 3.203125 -0.984375 3.203125 -1.171875 C 3.203125 -1.398438 3.242188 -1.628906 3.328125 -1.859375 C 3.410156 -2.085938 3.484375 -2.257812 3.546875 -2.375 C 3.703125 -2.664062 3.820312 -2.882812 3.90625 -3.03125 C 4 -3.175781 4.125 -3.347656 4.28125 -3.546875 C 4.4375 -3.753906 4.59375 -3.960938 4.75 -4.171875 C 4.914062 -4.378906 5.070312 -4.59375 5.21875 -4.8125 C 5.269531 -4.875 5.3125 -4.9375 5.34375 -5 C 5.375 -5.0625 5.410156 -5.128906 5.453125 -5.203125 C 5.585938 -5.429688 5.65625 -5.609375 5.65625 -5.734375 C 5.65625 -5.941406 5.488281 -6.046875 5.15625 -6.046875 C 4.875 -6.046875 4.535156 -5.984375 4.140625 -5.859375 C 3.753906 -5.742188 3.429688 -5.632812 3.171875 -5.53125 C 2.785156 -5.34375 2.394531 -5.132812 2 -4.90625 C 1.601562 -4.675781 1.351562 -4.519531 1.25 -4.4375 C 0.957031 -4.257812 0.632812 -4.050781 0.28125 -3.8125 C -0.0703125 -3.582031 -0.378906 -3.363281 -0.640625 -3.15625 C -0.796875 -3.0625 -0.992188 -2.90625 -1.234375 -2.6875 C -1.484375 -2.476562 -1.785156 -2.195312 -2.140625 -1.84375 C -2.304688 -1.707031 -2.425781 -1.59375 -2.5 -1.5 C -2.582031 -1.414062 -2.675781 -1.335938 -2.78125 -1.265625 C -2.8125 -1.253906 -2.851562 -1.238281 -2.90625 -1.21875 C -2.957031 -1.207031 -3 -1.191406 -3.03125 -1.171875 C -3.25 -1.222656 -3.394531 -1.351562 -3.46875 -1.5625 C -3.46875 -1.59375 -3.472656 -1.628906 -3.484375 -1.671875 C -3.492188 -1.722656 -3.488281 -1.753906 -3.46875 -1.765625 C -3.394531 -2.054688 -3.296875 -2.3125 -3.171875 -2.53125 C -2.804688 -2.988281 -2.476562 -3.375 -2.1875 -3.6875 C -2.019531 -3.851562 -1.847656 -4.035156 -1.671875 -4.234375 C -1.492188 -4.429688 -1.273438 -4.671875 -1.015625 -4.953125 L -0.296875 -5.6875 C -0.171875 -5.8125 -0.0546875 -5.929688 0.046875 -6.046875 C 0.148438 -6.160156 0.257812 -6.269531 0.375 -6.375 C 0.632812 -6.65625 0.894531 -6.925781 1.15625 -7.1875 C 1.425781 -7.445312 1.660156 -7.675781 1.859375 -7.875 C 2.085938 -8.082031 2.3125 -8.28125 2.53125 -8.46875 C 2.757812 -8.65625 3 -8.832031 3.25 -9 C 3.445312 -9.132812 3.582031 -9.21875 3.65625 -9.25 C 3.738281 -9.28125 3.898438 -9.296875 4.140625 -9.296875 C 4.398438 -9.191406 4.53125 -9.03125 4.53125 -8.8125 C 4.613281 -8.644531 4.539062 -8.472656 4.3125 -8.296875 C 4.09375 -8.117188 3.859375 -7.898438 3.609375 -7.640625 C 3.484375 -7.535156 3.347656 -7.425781 3.203125 -7.3125 C 3.054688 -7.195312 2.925781 -7.078125 2.8125 -6.953125 L 2.078125 -6.265625 C 2.015625 -6.210938 1.960938 -6.160156 1.921875 -6.109375 C 1.878906 -6.054688 1.828125 -6 1.765625 -5.9375 C 1.390625 -5.570312 1.007812 -5.195312 0.625 -4.8125 C 0.25 -4.425781 -0.117188 -4.035156 -0.484375 -3.640625 L -0.671875 -3.453125 C -0.679688 -3.429688 -0.753906 -3.363281 -0.890625 -3.25 C -1.035156 -3.132812 -1.125 -3.0625 -1.15625 -3.03125 C -0.34375 -3.601562 0.335938 -4.078125 0.890625 -4.453125 C 1.441406 -4.828125 1.726562 -5.015625 1.75 -5.015625 C 2.195312 -5.296875 2.65625 -5.539062 3.125 -5.75 C 3.601562 -5.96875 4.101562 -6.140625 4.625 -6.265625 C 4.75 -6.296875 4.894531 -6.320312 5.0625 -6.34375 C 5.226562 -6.363281 5.375 -6.375 5.5 -6.375 C 5.726562 -6.375 5.914062 -6.347656 6.0625 -6.296875 C 6.207031 -6.242188 6.347656 -6.109375 6.484375 -5.890625 C 6.546875 -5.816406 6.578125 -5.679688 6.578125 -5.484375 C 6.578125 -5.273438 6.546875 -5.101562 6.484375 -4.96875 C 6.347656 -4.613281 6.207031 -4.320312 6.0625 -4.09375 C 5.914062 -3.863281 5.738281 -3.597656 5.53125 -3.296875 C 5.320312 -3.035156 5.128906 -2.804688 4.953125 -2.609375 C 4.773438 -2.421875 4.617188 -2.242188 4.484375 -2.078125 C 4.378906 -1.921875 4.285156 -1.765625 4.203125 -1.609375 C 4.117188 -1.453125 4.0625 -1.269531 4.03125 -1.0625 C 4.03125 -1 4.039062 -0.90625 4.0625 -0.78125 C 4.082031 -0.65625 4.160156 -0.546875 4.296875 -0.453125 C 4.378906 -0.441406 4.453125 -0.429688 4.515625 -0.421875 C 4.585938 -0.421875 4.660156 -0.421875 4.734375 -0.421875 C 4.941406 -0.421875 5.144531 -0.4375 5.34375 -0.46875 C 5.539062 -0.507812 5.71875 -0.550781 5.875 -0.59375 C 6.175781 -0.6875 6.46875 -0.796875 6.75 -0.921875 C 7.039062 -1.046875 7.332031 -1.175781 7.625 -1.3125 C 7.988281 -1.5 8.390625 -1.710938 8.828125 -1.953125 C 9.273438 -2.203125 9.65625 -2.425781 9.96875 -2.625 C 10.5 -2.945312 10.921875 -3.226562 11.234375 -3.46875 C 11.554688 -3.71875 11.953125 -4.007812 12.421875 -4.34375 C 12.671875 -4.550781 12.929688 -4.75 13.203125 -4.9375 C 13.472656 -5.125 13.738281 -5.320312 14 -5.53125 C 14.113281 -5.613281 14.207031 -5.675781 14.28125 -5.71875 C 14.363281 -5.769531 14.4375 -5.804688 14.5 -5.828125 L 14.515625 -5.828125 C 14.671875 -5.828125 14.695312 -5.773438 14.59375 -5.671875 C 14.488281 -5.578125 14.351562 -5.472656 14.1875 -5.359375 C 14.03125 -5.253906 13.9375 -5.1875 13.90625 -5.15625 C 13.613281 -4.9375 13.351562 -4.734375 13.125 -4.546875 C 12.894531 -4.367188 12.601562 -4.148438 12.25 -3.890625 C 11.601562 -3.410156 10.972656 -2.960938 10.359375 -2.546875 C 9.753906 -2.140625 9.09375 -1.757812 8.375 -1.40625 C 7.988281 -1.207031 7.582031 -1.019531 7.15625 -0.84375 C 6.738281 -0.664062 6.328125 -0.507812 5.921875 -0.375 C 5.453125 -0.226562 5.015625 -0.15625 4.609375 -0.15625 Z M 4.609375 -0.15625 "/></g></g></g><g clip-path="url(#7b7858c860)"><path fill="#231f20" d="M 176.570312 58.964844 C 176.519531 61.28125 176.21875 63.246094 175.675781 64.804688 C 174.507812 68.152344 172.707031 71.550781 169.597656 74.652344 C 151.171875 93.066406 136.300781 92.363281 118.578125 74.652344 C 115.472656 71.550781 113.667969 68.152344 112.5 64.804688 C 111.960938 63.246094 111.65625 61.28125 111.605469 58.964844 C 111.550781 56.566406 111.765625 53.757812 112.242188 50.613281 C 113.480469 42.40625 116.277344 33.316406 118.40625 27.136719 C 119.707031 23.359375 120.984375 19.414062 121.539062 18.007812 L 166.316406 18.003906 C 166.875 19.410156 168.46875 23.359375 169.769531 27.136719 C 171.898438 33.316406 174.699219 42.40625 175.9375 50.613281 C 176.410156 53.757812 176.625 56.566406 176.570312 58.964844 Z M 177.378906 50.394531 C 176.140625 42.199219 173.394531 33.175781 171.152344 26.660156 C 169.28125 21.230469 167.761719 17.546875 167.761719 17.546875 C 167.382812 17.546875 167.003906 17.546875 166.625 17.546875 C 166.296875 17.546875 165.964844 17.546875 165.632812 17.546875 C 165.207031 17.546875 164.785156 17.546875 164.359375 17.546875 C 163.324219 17.546875 162.292969 17.546875 161.257812 17.546875 C 158.851562 17.546875 156.441406 17.546875 154.035156 17.546875 C 150.703125 17.546875 147.371094 17.546875 144.039062 17.546875 C 141.316406 17.546875 138.59375 17.546875 135.875 17.546875 C 132.804688 17.546875 129.734375 17.546875 126.664062 17.546875 C 126.070312 17.546875 125.476562 17.546875 124.882812 17.546875 C 124.359375 17.546875 123.835938 17.546875 123.3125 17.546875 C 122.652344 17.546875 121.996094 17.546875 121.339844 17.546875 C 121.03125 17.546875 120.722656 17.546875 120.417969 17.546875 C 120.417969 17.546875 118.898438 21.230469 117.027344 26.660156 C 114.78125 33.175781 112.035156 42.199219 110.796875 50.394531 C 110.339844 53.433594 110.089844 56.355469 110.148438 58.996094 C 110.199219 61.359375 110.5 63.496094 111.125 65.285156 C 112.46875 69.144531 114.765625 72.570312 117.488281 75.625 C 122.203125 80.914062 128.1875 85.085938 132.683594 88.460938 C 136.304688 91.179688 138.957031 93.382812 139.195312 95.230469 C 139.195312 95.238281 139.195312 95.246094 139.203125 95.257812 C 139.203125 95.257812 139.207031 95.261719 139.207031 95.261719 C 139.222656 95.285156 139.242188 95.304688 139.257812 95.328125 C 139.269531 95.34375 139.773438 96.839844 140.628906 98.789062 C 140.738281 99.039062 140.859375 99.289062 140.953125 99.542969 C 141.113281 99.976562 141.265625 100.539062 141.40625 101.234375 C 142.269531 105.539062 142.707031 114.867188 142.707031 129.058594 C 142.707031 132.367188 142.660156 135.183594 142.578125 137.582031 C 142.3125 145.625 141.667969 148.953125 141.160156 150.414062 C 140.867188 151.25 140.621094 151.476562 140.515625 151.628906 C 140.433594 151.75 140.375 151.835938 140.359375 152.078125 C 130.316406 152.339844 122.699219 153.597656 122.699219 155.105469 C 122.699219 156.800781 132.332031 158.175781 144.222656 158.175781 C 156.109375 158.175781 165.746094 156.800781 165.746094 155.105469 C 165.746094 153.585938 157.996094 152.316406 147.824219 152.074219 C 147.808594 151.835938 147.75 151.75 147.667969 151.628906 C 147.558594 151.476562 147.328125 151.25 147.058594 150.410156 C 146.582031 148.945312 145.992188 145.617188 145.742188 137.566406 C 145.667969 135.175781 145.625 132.363281 145.625 129.058594 C 145.625 114.863281 145.957031 105.535156 146.789062 101.226562 C 146.921875 100.535156 147.070312 99.96875 147.234375 99.539062 C 147.328125 99.285156 147.441406 99.03125 147.554688 98.78125 C 148.410156 96.835938 148.914062 95.320312 148.925781 95.304688 C 148.945312 95.277344 148.964844 95.253906 148.980469 95.226562 C 148.984375 95.226562 148.984375 95.226562 148.984375 95.226562 C 149.222656 93.378906 151.875 91.179688 155.496094 88.460938 C 159.988281 85.085938 165.972656 80.914062 170.6875 75.625 C 173.410156 72.570312 175.707031 69.144531 177.054688 65.285156 C 177.675781 63.496094 177.976562 61.359375 178.03125 58.996094 C 178.089844 56.355469 177.835938 53.433594 177.378906 50.394531 " fill-opacity="1" fill-rule="nonzero"/></g><path fill="#231f20" d="M 113.839844 52.113281 C 113.472656 54.777344 113.3125 57.160156 113.355469 59.207031 C 113.402344 61.296875 113.664062 63.035156 114.132812 64.378906 C 115.378906 67.957031 117.195312 70.910156 119.6875 73.398438 C 128.5 82.203125 136.105469 86.304688 143.628906 86.304688 C 147.363281 86.304688 151.085938 85.292969 155.003906 83.207031 C 159.023438 81.066406 163.148438 77.859375 167.613281 73.398438 C 170.105469 70.910156 171.921875 67.957031 173.171875 64.378906 C 173.636719 63.035156 173.898438 61.296875 173.945312 59.207031 C 173.996094 56.933594 173.789062 54.25 173.335938 51.230469 C 173.097656 49.660156 172.800781 48.054688 172.460938 46.441406 C 140.9375 45.074219 138.53125 73.507812 113.839844 52.113281 " fill-opacity="1" fill-rule="nonzero"/></svg>