<svg xmlns="http://www.w3.org/2000/svg" xmlns:xlink="http://www.w3.org/1999/xlink" width="258" zoomAndPan="magnify" viewBox="0 0 193.5 193.499992" height="258" preserveAspectRatio="xMidYMid meet" version="1.0"><defs><g/><clipPath id="0910462475"><path d="M 83.835938 35.019531 L 137.695312 35.019531 L 137.695312 131.519531 L 83.835938 131.519531 Z M 83.835938 35.019531 " clip-rule="nonzero"/></clipPath></defs><g fill="#000000" fill-opacity="1"><g transform="translate(12.853615, 132.256289)"><g><path d="M 10.65625 -23.703125 L 1.171875 -23.703125 L 1.171875 -23.140625 L 4.203125 -23.140625 L 4.203125 -0.5625 L 1.171875 -0.5625 L 1.171875 0 L 10.65625 0 L 10.65625 -0.5625 L 7.625 -0.5625 L 7.625 -12.3125 L 16.96875 -12.3125 L 16.96875 -0.5625 L 13.9375 -0.5625 L 13.9375 0 L 23.421875 0 L 23.421875 -0.5625 L 20.390625 -0.5625 L 20.390625 -23.140625 L 23.421875 -23.140625 L 23.421875 -23.703125 L 13.9375 -23.703125 L 13.9375 -23.140625 L 16.96875 -23.140625 L 16.96875 -12.90625 L 7.625 -12.90625 L 7.625 -23.140625 L 10.65625 -23.140625 Z M 10.65625 -23.703125 "/></g></g></g><g fill="#000000" fill-opacity="1"><g transform="translate(32.646604, 132.256289)"><g><path d="M 0.78125 -0.5625 L 0.78125 0 L 8.609375 0 L 8.609375 -0.5625 L 4.453125 -0.5625 L 6.671875 -7.375 L 13.765625 -7.375 L 16.046875 -0.5625 L 12.421875 -0.5625 L 12.421875 0 L 22.75 0 L 22.75 -0.5625 L 19.6875 -0.5625 L 11.953125 -24.03125 L 11.53125 -24.03125 L 3.8125 -0.5625 Z M 10.203125 -18.03125 L 13.578125 -7.9375 L 6.875 -7.9375 Z M 10.203125 -18.03125 "/></g></g></g><g fill="#000000" fill-opacity="1"><g transform="translate(51.592807, 132.256289)"><g><path d="M 9.90625 -23.703125 L 0.390625 -23.703125 L 0.390625 -23.140625 L 3.421875 -23.140625 L 11.359375 0.359375 L 12 0.359375 L 19.546875 -23.140625 L 22.09375 -23.140625 L 22.09375 -23.703125 L 15.765625 -23.703125 L 15.765625 -23.140625 L 18.8125 -23.140625 L 12.953125 -4.90625 L 6.734375 -23.140625 L 9.90625 -23.140625 Z M 9.90625 -23.703125 "/></g></g></g><g fill="#000000" fill-opacity="1"><g transform="translate(69.515815, 132.256289)"><g><path d="M 18.515625 -18.203125 C 18.515625 -19.078125 18.316406 -19.859375 17.921875 -20.546875 C 17.523438 -21.242188 16.988281 -21.820312 16.3125 -22.28125 C 15.644531 -22.738281 14.875 -23.085938 14 -23.328125 C 13.132812 -23.578125 12.234375 -23.703125 11.296875 -23.703125 L 1.015625 -23.703125 L 1.015625 -23.140625 L 4.0625 -23.140625 L 4.0625 -0.5625 L 1.015625 -0.5625 L 1.015625 0 L 11.578125 0 C 14.015625 0 15.910156 -0.5625 17.265625 -1.6875 C 18.617188 -2.820312 19.296875 -4.390625 19.296875 -6.390625 C 19.296875 -7.421875 19.085938 -8.320312 18.671875 -9.09375 C 18.265625 -9.875 17.753906 -10.535156 17.140625 -11.078125 C 16.535156 -11.617188 15.859375 -12.035156 15.109375 -12.328125 C 14.367188 -12.617188 13.679688 -12.800781 13.046875 -12.875 C 13.828125 -13.019531 14.550781 -13.226562 15.21875 -13.5 C 15.894531 -13.769531 16.472656 -14.117188 16.953125 -14.546875 C 17.429688 -14.984375 17.8125 -15.5 18.09375 -16.09375 C 18.375 -16.695312 18.515625 -17.398438 18.515625 -18.203125 Z M 7.484375 -13.09375 L 7.484375 -23.140625 L 11.296875 -23.140625 C 11.878906 -23.140625 12.40625 -23.0625 12.875 -22.90625 C 13.34375 -22.757812 13.742188 -22.503906 14.078125 -22.140625 C 14.410156 -21.773438 14.671875 -21.289062 14.859375 -20.6875 C 15.046875 -20.09375 15.140625 -19.359375 15.140625 -18.484375 L 15.140625 -17.921875 C 15.140625 -16.984375 15.046875 -16.203125 14.859375 -15.578125 C 14.671875 -14.953125 14.410156 -14.457031 14.078125 -14.09375 C 13.742188 -13.726562 13.335938 -13.46875 12.859375 -13.3125 C 12.378906 -13.164062 11.859375 -13.09375 11.296875 -13.09375 Z M 7.484375 -0.5625 L 7.484375 -12.53125 L 11.296875 -12.53125 C 12.910156 -12.53125 14.066406 -12.035156 14.765625 -11.046875 C 15.460938 -10.054688 15.8125 -8.644531 15.8125 -6.8125 L 15.8125 -5.96875 C 15.8125 -4.25 15.476562 -2.914062 14.8125 -1.96875 C 14.15625 -1.03125 12.984375 -0.5625 11.296875 -0.5625 Z M 7.484375 -0.5625 "/></g></g></g><g fill="#000000" fill-opacity="1"><g transform="translate(86.239207, 132.256289)"><g><path d="M 19.578125 -6.53125 C 19.390625 -5.632812 19.1875 -4.820312 18.96875 -4.09375 C 18.757812 -3.363281 18.476562 -2.734375 18.125 -2.203125 C 17.78125 -1.671875 17.335938 -1.265625 16.796875 -0.984375 C 16.253906 -0.703125 15.570312 -0.5625 14.75 -0.5625 L 7.515625 -0.5625 L 7.515625 -23.140625 L 10.859375 -23.140625 L 10.859375 -23.703125 L 1.0625 -23.703125 L 1.0625 -23.140625 L 4.09375 -23.140625 L 4.09375 -0.5625 L 1.0625 -0.5625 L 1.0625 0 L 19.234375 0 C 19.910156 0 20.25 -0.375 20.25 -1.125 L 20.25 -6.421875 C 20.25 -6.984375 20.15625 -7.265625 19.96875 -7.265625 C 19.800781 -7.265625 19.671875 -7.019531 19.578125 -6.53125 Z M 19.578125 -6.53125 "/></g></g></g><g fill="#000000" fill-opacity="1"><g transform="translate(103.002614, 132.256289)"><g/></g></g><g fill="#000000" fill-opacity="1"><g transform="translate(108.11798, 132.256289)"><g/></g></g><g fill="#000000" fill-opacity="1"><g transform="translate(113.23742, 132.256289)"><g><path d="M 0.953125 -0.5625 L 0.953125 0 L 7.578125 0 L 7.578125 -0.5625 L 4.546875 -0.5625 L 4.546875 -22.125 L 18.203125 0.28125 L 19.40625 0.28125 L 19.40625 -23.140625 L 22.4375 -23.140625 L 22.4375 -23.703125 L 15.8125 -23.703125 L 15.8125 -23.140625 L 18.84375 -23.140625 L 18.84375 -5.828125 L 7.90625 -23.703125 L 0.953125 -23.703125 L 0.953125 -23.140625 L 3.984375 -23.140625 L 3.984375 -0.5625 Z M 0.953125 -0.5625 "/></g></g></g><g fill="#000000" fill-opacity="1"><g transform="translate(132.04249, 132.256289)"><g><path d="M 10.265625 -23.140625 L 10.265625 -23.703125 L 1.203125 -23.703125 L 1.203125 -23.140625 L 4.015625 -23.140625 L 4.015625 -0.5625 L 1.203125 -0.5625 L 1.203125 0 L 10.265625 0 L 10.265625 -0.5625 L 7.4375 -0.5625 L 7.4375 -23.140625 Z M 17.859375 -23.140625 L 7.6875 -12.984375 L 16.40625 -0.5625 L 13.34375 -0.5625 L 13.34375 0 L 23.328125 0 L 23.328125 -0.5625 L 20.5 -0.5625 L 10.515625 -14.890625 L 18.765625 -23.140625 L 21.765625 -23.140625 L 21.765625 -23.703125 L 14.8125 -23.703125 L 14.8125 -23.140625 Z M 17.859375 -23.140625 "/></g></g></g><g fill="#000000" fill-opacity="1"><g transform="translate(86.474042, 150.831434)"><g><path d="M 43.5625 -21.078125 C 43.570312 -21.003906 43.53125 -20.988281 43.4375 -21.03125 C 43.34375 -21.070312 43.15625 -21.09375 42.875 -21.09375 C 42.78125 -21.09375 42.671875 -21.085938 42.546875 -21.078125 C 42.429688 -21.066406 42.304688 -21.050781 42.171875 -21.03125 C 41.953125 -20.988281 41.703125 -20.914062 41.421875 -20.8125 C 41.140625 -20.71875 40.835938 -20.617188 40.515625 -20.515625 C 40.210938 -20.410156 39.914062 -20.300781 39.625 -20.1875 C 39.332031 -20.070312 39.023438 -19.945312 38.703125 -19.8125 C 38.566406 -19.769531 38.390625 -19.703125 38.171875 -19.609375 C 37.953125 -19.515625 37.769531 -19.4375 37.625 -19.375 C 37.59375 -19.363281 37.554688 -19.351562 37.515625 -19.34375 C 37.484375 -19.332031 37.445312 -19.320312 37.40625 -19.3125 C 37.207031 -19.21875 37 -19.109375 36.78125 -18.984375 C 36.5625 -18.859375 36.347656 -18.75 36.140625 -18.65625 C 35.953125 -18.550781 35.753906 -18.445312 35.546875 -18.34375 C 35.335938 -18.25 35.128906 -18.148438 34.921875 -18.046875 C 34.765625 -17.960938 34.609375 -17.875 34.453125 -17.78125 C 34.304688 -17.695312 34.15625 -17.609375 34 -17.515625 C 33.84375 -17.429688 33.722656 -17.367188 33.640625 -17.328125 C 33.566406 -17.285156 33.488281 -17.234375 33.40625 -17.171875 C 33.175781 -17.046875 32.960938 -16.910156 32.765625 -16.765625 L 32.109375 -16.359375 C 31.835938 -16.203125 31.566406 -16.03125 31.296875 -15.84375 C 31.023438 -15.664062 30.753906 -15.476562 30.484375 -15.28125 L 29.9375 -14.90625 C 29.65625 -14.707031 29.375 -14.5 29.09375 -14.28125 C 28.8125 -14.0625 28.53125 -13.835938 28.25 -13.609375 C 28.125 -13.492188 27.992188 -13.382812 27.859375 -13.28125 C 27.722656 -13.1875 27.585938 -13.078125 27.453125 -12.953125 C 27.234375 -12.773438 27.015625 -12.59375 26.796875 -12.40625 C 26.585938 -12.226562 26.382812 -12.039062 26.1875 -11.84375 C 26.132812 -11.78125 26.066406 -11.71875 25.984375 -11.65625 C 25.898438 -11.59375 25.820312 -11.53125 25.75 -11.46875 L 25.71875 -11.453125 C 25.644531 -11.390625 25.609375 -11.34375 25.609375 -11.3125 C 25.546875 -11.257812 25.488281 -11.207031 25.4375 -11.15625 C 25.394531 -11.113281 25.351562 -11.078125 25.3125 -11.046875 C 25.414062 -11.023438 25.507812 -11.003906 25.59375 -10.984375 C 25.675781 -10.960938 25.757812 -10.941406 25.84375 -10.921875 C 26.03125 -10.867188 26.222656 -10.820312 26.421875 -10.78125 C 26.617188 -10.738281 26.804688 -10.707031 26.984375 -10.6875 C 27.109375 -10.664062 27.238281 -10.640625 27.375 -10.609375 C 27.507812 -10.585938 27.640625 -10.566406 27.765625 -10.546875 C 28.003906 -10.492188 28.238281 -10.445312 28.46875 -10.40625 C 28.695312 -10.375 28.925781 -10.335938 29.15625 -10.296875 C 29.289062 -10.273438 29.421875 -10.253906 29.546875 -10.234375 C 29.679688 -10.210938 29.816406 -10.191406 29.953125 -10.171875 C 30.085938 -10.160156 30.222656 -10.140625 30.359375 -10.109375 C 30.503906 -10.085938 30.640625 -10.066406 30.765625 -10.046875 C 30.921875 -10.023438 31.050781 -10.007812 31.15625 -10 C 31.257812 -9.988281 31.367188 -9.976562 31.484375 -9.96875 C 31.628906 -9.957031 31.769531 -9.945312 31.90625 -9.9375 C 32.050781 -9.925781 32.226562 -9.921875 32.4375 -9.921875 L 32.9375 -9.921875 C 33 -9.921875 33.054688 -9.921875 33.109375 -9.921875 C 33.171875 -9.921875 33.226562 -9.921875 33.28125 -9.921875 C 33.34375 -9.921875 33.40625 -9.921875 33.46875 -9.921875 C 33.539062 -9.921875 33.613281 -9.925781 33.6875 -9.9375 C 33.820312 -9.9375 33.9375 -9.9375 34.03125 -9.9375 C 34.132812 -9.9375 34.234375 -9.941406 34.328125 -9.953125 C 34.359375 -9.960938 34.414062 -9.96875 34.5 -9.96875 C 34.769531 -9.96875 35.0625 -10 35.375 -10.0625 C 35.695312 -10.132812 36.007812 -10.203125 36.3125 -10.265625 C 36.820312 -10.378906 37.304688 -10.53125 37.765625 -10.71875 C 38.234375 -10.90625 38.644531 -11.128906 39 -11.390625 L 39.203125 -11.546875 C 39.335938 -11.640625 39.460938 -11.734375 39.578125 -11.828125 C 39.691406 -11.921875 39.804688 -12.035156 39.921875 -12.171875 C 39.960938 -12.203125 40 -12.234375 40.03125 -12.265625 C 40.070312 -12.304688 40.117188 -12.328125 40.171875 -12.328125 C 40.210938 -12.328125 40.234375 -12.320312 40.234375 -12.3125 C 40.242188 -12.300781 40.257812 -12.28125 40.28125 -12.25 C 40.28125 -12.25 40.28125 -12.242188 40.28125 -12.234375 C 40.28125 -12.234375 40.285156 -12.226562 40.296875 -12.21875 L 40.296875 -12.1875 C 40.265625 -12.125 40.226562 -12.066406 40.1875 -12.015625 C 40.144531 -11.972656 40.09375 -11.925781 40.03125 -11.875 C 39.59375 -11.507812 39.164062 -11.195312 38.75 -10.9375 C 38.332031 -10.6875 37.894531 -10.476562 37.4375 -10.3125 C 37.175781 -10.226562 36.910156 -10.15625 36.640625 -10.09375 C 36.378906 -10.039062 36.117188 -9.984375 35.859375 -9.921875 C 35.773438 -9.910156 35.695312 -9.894531 35.625 -9.875 C 35.5625 -9.863281 35.488281 -9.847656 35.40625 -9.828125 C 35.019531 -9.765625 34.6875 -9.722656 34.40625 -9.703125 C 34.132812 -9.691406 33.84375 -9.6875 33.53125 -9.6875 C 33.351562 -9.6875 33.175781 -9.6875 33 -9.6875 C 32.820312 -9.6875 32.628906 -9.691406 32.421875 -9.703125 C 32.222656 -9.691406 32.023438 -9.695312 31.828125 -9.71875 C 31.628906 -9.738281 31.429688 -9.753906 31.234375 -9.765625 L 30.78125 -9.828125 C 30.644531 -9.835938 30.507812 -9.851562 30.375 -9.875 C 30.238281 -9.894531 30.101562 -9.910156 29.96875 -9.921875 C 29.882812 -9.941406 29.800781 -9.953125 29.71875 -9.953125 C 29.644531 -9.960938 29.570312 -9.972656 29.5 -9.984375 C 29.3125 -10.015625 29.128906 -10.046875 28.953125 -10.078125 C 28.785156 -10.109375 28.613281 -10.140625 28.4375 -10.171875 C 28.269531 -10.210938 28.09375 -10.242188 27.90625 -10.265625 C 27.726562 -10.285156 27.550781 -10.316406 27.375 -10.359375 C 26.988281 -10.429688 26.675781 -10.488281 26.4375 -10.53125 C 26.195312 -10.582031 25.9375 -10.640625 25.65625 -10.703125 C 25.582031 -10.722656 25.515625 -10.738281 25.453125 -10.75 C 25.390625 -10.769531 25.328125 -10.785156 25.265625 -10.796875 L 25.0625 -10.828125 C 25.050781 -10.816406 25.03125 -10.804688 25 -10.796875 C 24.976562 -10.785156 24.957031 -10.773438 24.9375 -10.765625 L 24.765625 -10.609375 C 24.710938 -10.578125 24.671875 -10.539062 24.640625 -10.5 L 23.328125 -9.1875 C 23.316406 -9.175781 23.296875 -9.15625 23.265625 -9.125 C 23.234375 -9.101562 23.203125 -9.082031 23.171875 -9.0625 C 23.085938 -8.976562 23.019531 -8.910156 22.96875 -8.859375 C 22.925781 -8.816406 22.875 -8.78125 22.8125 -8.75 C 22.757812 -8.707031 22.71875 -8.675781 22.6875 -8.65625 C 22.664062 -8.632812 22.640625 -8.609375 22.609375 -8.578125 C 22.523438 -8.472656 22.425781 -8.363281 22.3125 -8.25 C 22.195312 -8.144531 22.082031 -8.046875 21.96875 -7.953125 C 21.8125 -7.785156 21.691406 -7.660156 21.609375 -7.578125 C 21.523438 -7.492188 21.441406 -7.40625 21.359375 -7.3125 C 21.191406 -7.125 21.023438 -6.9375 20.859375 -6.75 C 20.703125 -6.570312 20.53125 -6.398438 20.34375 -6.234375 C 20.300781 -6.171875 20.242188 -6.101562 20.171875 -6.03125 C 20.109375 -5.96875 20.046875 -5.90625 19.984375 -5.84375 C 19.828125 -5.6875 19.703125 -5.566406 19.609375 -5.484375 C 19.523438 -5.398438 19.441406 -5.304688 19.359375 -5.203125 C 19.179688 -4.972656 18.988281 -4.75 18.78125 -4.53125 C 18.570312 -4.320312 18.363281 -4.113281 18.15625 -3.90625 C 18.03125 -3.78125 17.90625 -3.65625 17.78125 -3.53125 C 17.664062 -3.40625 17.539062 -3.273438 17.40625 -3.140625 C 17.375 -3.109375 17.332031 -3.066406 17.28125 -3.015625 C 17.238281 -2.960938 17.195312 -2.921875 17.15625 -2.890625 C 17.03125 -2.765625 16.9375 -2.664062 16.875 -2.59375 C 16.8125 -2.53125 16.75 -2.457031 16.6875 -2.375 C 16.664062 -2.332031 16.628906 -2.289062 16.578125 -2.25 C 16.535156 -2.21875 16.488281 -2.1875 16.4375 -2.15625 C 16.382812 -2.113281 16.34375 -2.082031 16.3125 -2.0625 C 16.289062 -2.039062 16.265625 -2.015625 16.234375 -1.984375 C 16.117188 -1.835938 15.988281 -1.691406 15.84375 -1.546875 C 15.695312 -1.398438 15.554688 -1.257812 15.421875 -1.125 C 15.328125 -1.039062 15.253906 -0.976562 15.203125 -0.9375 C 15.160156 -0.894531 15.109375 -0.84375 15.046875 -0.78125 L 14.484375 -0.21875 C 14.210938 0.0625 13.9375 0.34375 13.65625 0.625 C 13.382812 0.90625 13.09375 1.175781 12.78125 1.4375 L 11.953125 2.234375 C 11.773438 2.390625 11.597656 2.546875 11.421875 2.703125 C 11.242188 2.859375 11.066406 3.023438 10.890625 3.203125 C 10.617188 3.421875 10.351562 3.632812 10.09375 3.84375 C 9.832031 4.0625 9.566406 4.289062 9.296875 4.53125 C 8.492188 5.1875 7.65625 5.769531 6.78125 6.28125 C 6.707031 6.320312 6.625 6.363281 6.53125 6.40625 C 6.445312 6.457031 6.363281 6.507812 6.28125 6.5625 C 6.113281 6.65625 5.976562 6.726562 5.875 6.78125 C 5.78125 6.84375 5.6875 6.898438 5.59375 6.953125 C 4.945312 7.296875 4.351562 7.535156 3.8125 7.671875 C 3.28125 7.816406 2.941406 7.898438 2.796875 7.921875 C 2.671875 7.941406 2.476562 7.96875 2.21875 8 C 1.96875 8.039062 1.800781 8.0625 1.71875 8.0625 C 1.601562 8.070312 1.488281 8.078125 1.375 8.078125 C 1.257812 8.078125 1.160156 8.085938 1.078125 8.109375 C 0.847656 8.078125 0.734375 8.035156 0.734375 7.984375 C 0.734375 7.960938 0.769531 7.9375 0.84375 7.90625 C 0.925781 7.882812 1.015625 7.875 1.109375 7.875 C 1.210938 7.851562 1.320312 7.835938 1.4375 7.828125 C 1.550781 7.816406 1.671875 7.804688 1.796875 7.796875 C 1.921875 7.773438 2.039062 7.753906 2.15625 7.734375 C 2.28125 7.722656 2.445312 7.691406 2.65625 7.640625 C 2.925781 7.546875 3.15625 7.460938 3.34375 7.390625 C 3.539062 7.316406 3.765625 7.222656 4.015625 7.109375 C 4.492188 6.898438 4.992188 6.609375 5.515625 6.234375 C 6.035156 5.867188 6.523438 5.53125 6.984375 5.21875 C 7.367188 4.976562 7.75 4.710938 8.125 4.421875 C 8.5 4.128906 8.863281 3.820312 9.21875 3.5 C 9.425781 3.332031 9.617188 3.160156 9.796875 2.984375 C 9.984375 2.804688 10.175781 2.628906 10.375 2.453125 C 10.4375 2.390625 10.5 2.328125 10.5625 2.265625 C 10.625 2.210938 10.679688 2.164062 10.734375 2.125 C 10.847656 2.019531 10.9375 1.9375 11 1.875 C 11.0625 1.820312 11.117188 1.765625 11.171875 1.703125 C 11.410156 1.453125 11.644531 1.210938 11.875 0.984375 C 12.113281 0.753906 12.347656 0.523438 12.578125 0.296875 C 13.535156 -0.628906 14.472656 -1.566406 15.390625 -2.515625 L 15.953125 -3.109375 C 16.128906 -3.285156 16.304688 -3.46875 16.484375 -3.65625 C 16.660156 -3.851562 16.832031 -4.046875 17 -4.234375 C 17.101562 -4.347656 17.207031 -4.457031 17.3125 -4.5625 C 17.414062 -4.675781 17.515625 -4.785156 17.609375 -4.890625 C 17.742188 -5.023438 17.875 -5.160156 18 -5.296875 C 18.125 -5.429688 18.25 -5.578125 18.375 -5.734375 C 18.488281 -5.867188 18.609375 -6.003906 18.734375 -6.140625 C 18.859375 -6.285156 18.984375 -6.421875 19.109375 -6.546875 C 19.253906 -6.691406 19.394531 -6.835938 19.53125 -6.984375 C 19.675781 -7.140625 19.816406 -7.300781 19.953125 -7.46875 C 20.097656 -7.664062 20.257812 -7.847656 20.4375 -8.015625 C 20.625 -8.191406 20.804688 -8.363281 20.984375 -8.53125 C 21.054688 -8.601562 21.132812 -8.679688 21.21875 -8.765625 C 21.3125 -8.847656 21.394531 -8.929688 21.46875 -9.015625 C 21.6875 -9.253906 21.90625 -9.484375 22.125 -9.703125 C 22.34375 -9.921875 22.582031 -10.132812 22.84375 -10.34375 C 22.875 -10.363281 22.910156 -10.394531 22.953125 -10.4375 C 22.992188 -10.476562 23.03125 -10.523438 23.0625 -10.578125 C 23.132812 -10.648438 23.226562 -10.738281 23.34375 -10.84375 C 23.457031 -10.945312 23.566406 -11.046875 23.671875 -11.140625 C 23.523438 -11.179688 23.367188 -11.21875 23.203125 -11.25 C 23.035156 -11.289062 22.851562 -11.328125 22.65625 -11.359375 C 22.5625 -11.378906 22.4375 -11.40625 22.28125 -11.4375 C 22.132812 -11.46875 22.023438 -11.488281 21.953125 -11.5 C 21.953125 -11.5 21.867188 -11.515625 21.703125 -11.546875 C 21.546875 -11.585938 21.34375 -11.632812 21.09375 -11.6875 C 20.851562 -11.75 20.617188 -11.800781 20.390625 -11.84375 C 20.285156 -11.875 20.195312 -11.898438 20.125 -11.921875 C 20.050781 -11.953125 19.976562 -11.972656 19.90625 -11.984375 L 19.15625 -12.140625 C 18.894531 -12.203125 18.640625 -12.257812 18.390625 -12.3125 C 18.234375 -12.320312 18.082031 -12.359375 17.9375 -12.421875 C 17.820312 -12.335938 17.71875 -12.242188 17.625 -12.140625 C 17.539062 -12.046875 17.421875 -11.914062 17.265625 -11.75 C 17.210938 -11.675781 17.148438 -11.609375 17.078125 -11.546875 C 17.003906 -11.484375 16.9375 -11.421875 16.875 -11.359375 C 16.820312 -11.304688 16.78125 -11.269531 16.75 -11.25 C 16.726562 -11.226562 16.703125 -11.203125 16.671875 -11.171875 L 16.234375 -10.734375 C 16.023438 -10.535156 15.816406 -10.332031 15.609375 -10.125 C 15.410156 -9.914062 15.207031 -9.6875 15 -9.4375 C 14.914062 -9.320312 14.816406 -9.207031 14.703125 -9.09375 C 14.597656 -8.988281 14.488281 -8.878906 14.375 -8.765625 L 13.9375 -8.328125 C 13.8125 -8.179688 13.675781 -8.035156 13.53125 -7.890625 C 13.394531 -7.742188 13.265625 -7.597656 13.140625 -7.453125 C 12.972656 -7.296875 12.8125 -7.132812 12.65625 -6.96875 C 12.5 -6.800781 12.34375 -6.628906 12.1875 -6.453125 C 12.070312 -6.328125 11.953125 -6.191406 11.828125 -6.046875 C 11.710938 -5.910156 11.585938 -5.773438 11.453125 -5.640625 C 11.367188 -5.546875 11.300781 -5.46875 11.25 -5.40625 C 11.195312 -5.351562 11.144531 -5.300781 11.09375 -5.25 C 10.90625 -5.019531 10.707031 -4.789062 10.5 -4.5625 C 10.289062 -4.332031 10.054688 -4.132812 9.796875 -3.96875 C 9.742188 -3.9375 9.695312 -3.894531 9.65625 -3.84375 C 9.613281 -3.800781 9.566406 -3.753906 9.515625 -3.703125 C 9.460938 -3.660156 9.425781 -3.625 9.40625 -3.59375 C 9.382812 -3.570312 9.359375 -3.550781 9.328125 -3.53125 C 9.046875 -3.25 8.753906 -2.972656 8.453125 -2.703125 C 8.160156 -2.429688 7.859375 -2.164062 7.546875 -1.90625 C 7.347656 -1.757812 7.15625 -1.601562 6.96875 -1.4375 C 6.789062 -1.269531 6.601562 -1.101562 6.40625 -0.9375 C 6.394531 -0.9375 6.382812 -0.925781 6.375 -0.90625 C 6.363281 -0.882812 6.34375 -0.867188 6.3125 -0.859375 C 6.289062 -0.804688 6.253906 -0.769531 6.203125 -0.75 C 6.117188 -0.6875 6.03125 -0.613281 5.9375 -0.53125 C 5.84375 -0.457031 5.742188 -0.382812 5.640625 -0.3125 C 5.453125 -0.164062 5.257812 -0.0234375 5.0625 0.109375 C 4.863281 0.253906 4.660156 0.40625 4.453125 0.5625 C 4.003906 0.894531 3.515625 1.175781 2.984375 1.40625 C 2.453125 1.644531 1.894531 1.816406 1.3125 1.921875 C 1.25 1.929688 1.1875 1.9375 1.125 1.9375 C 1.070312 1.945312 1.015625 1.953125 0.953125 1.953125 C 0.867188 1.960938 0.796875 1.96875 0.734375 1.96875 C 0.679688 1.96875 0.628906 1.96875 0.578125 1.96875 C 0.546875 1.96875 0.507812 1.96875 0.46875 1.96875 C 0.4375 1.96875 0.390625 1.960938 0.328125 1.953125 C 0.203125 1.941406 0.117188 1.929688 0.078125 1.921875 C 0.0351562 1.910156 0.0078125 1.878906 0 1.828125 C 0.0195312 1.773438 0.0820312 1.75 0.1875 1.75 C 0.300781 1.757812 0.421875 1.765625 0.546875 1.765625 C 0.753906 1.765625 0.945312 1.75 1.125 1.71875 C 1.3125 1.695312 1.46875 1.660156 1.59375 1.609375 C 1.882812 1.515625 2.132812 1.398438 2.34375 1.265625 C 2.550781 1.140625 2.785156 0.992188 3.046875 0.828125 C 3.304688 0.648438 3.59375 0.4375 3.90625 0.1875 C 4.226562 -0.0507812 4.546875 -0.300781 4.859375 -0.5625 C 5.171875 -0.820312 5.453125 -1.054688 5.703125 -1.265625 C 5.960938 -1.472656 6.222656 -1.691406 6.484375 -1.921875 C 6.742188 -2.148438 7 -2.378906 7.25 -2.609375 C 7.394531 -2.742188 7.507812 -2.847656 7.59375 -2.921875 C 7.675781 -3.003906 7.765625 -3.082031 7.859375 -3.15625 C 8.148438 -3.425781 8.4375 -3.695312 8.71875 -3.96875 C 9 -4.25 9.273438 -4.519531 9.546875 -4.78125 C 9.867188 -5.125 10.175781 -5.46875 10.46875 -5.8125 C 10.601562 -5.96875 10.707031 -6.085938 10.78125 -6.171875 C 10.851562 -6.253906 10.929688 -6.335938 11.015625 -6.421875 C 11.035156 -6.460938 11.066406 -6.503906 11.109375 -6.546875 C 11.148438 -6.585938 11.191406 -6.628906 11.234375 -6.671875 C 11.335938 -6.804688 11.441406 -6.929688 11.546875 -7.046875 C 11.648438 -7.160156 11.757812 -7.285156 11.875 -7.421875 C 12.007812 -7.578125 12.148438 -7.734375 12.296875 -7.890625 C 12.453125 -8.046875 12.601562 -8.203125 12.75 -8.359375 C 12.84375 -8.472656 12.921875 -8.5625 12.984375 -8.625 C 13.046875 -8.695312 13.109375 -8.765625 13.171875 -8.828125 C 13.242188 -8.910156 13.316406 -8.992188 13.390625 -9.078125 C 13.472656 -9.160156 13.550781 -9.242188 13.625 -9.328125 C 13.914062 -9.660156 14.222656 -9.984375 14.546875 -10.296875 C 15.015625 -10.785156 15.492188 -11.269531 15.984375 -11.75 L 16.171875 -11.953125 C 16.210938 -11.992188 16.242188 -12.023438 16.265625 -12.046875 C 16.285156 -12.078125 16.304688 -12.101562 16.328125 -12.125 L 16.90625 -12.625 L 16.96875 -12.671875 C 16.914062 -12.679688 16.863281 -12.691406 16.8125 -12.703125 C 16.757812 -12.722656 16.703125 -12.738281 16.640625 -12.75 C 16.546875 -12.769531 16.445312 -12.789062 16.34375 -12.8125 C 16.25 -12.84375 16.15625 -12.867188 16.0625 -12.890625 C 15.84375 -12.953125 15.625 -13 15.40625 -13.03125 C 15.195312 -13.0625 14.988281 -13.097656 14.78125 -13.140625 C 14.675781 -13.148438 14.570312 -13.160156 14.46875 -13.171875 C 14.375 -13.191406 14.273438 -13.207031 14.171875 -13.21875 L 13.46875 -13.328125 C 13.34375 -13.359375 13.210938 -13.378906 13.078125 -13.390625 C 12.953125 -13.410156 12.832031 -13.4375 12.71875 -13.46875 C 12.664062 -13.476562 12.617188 -13.484375 12.578125 -13.484375 C 12.535156 -13.492188 12.472656 -13.503906 12.390625 -13.515625 C 12.347656 -13.515625 12.304688 -13.515625 12.265625 -13.515625 C 12.222656 -13.515625 12.179688 -13.519531 12.140625 -13.53125 C 11.953125 -13.570312 11.753906 -13.597656 11.546875 -13.609375 C 11.347656 -13.617188 11.144531 -13.628906 10.9375 -13.640625 C 10.851562 -13.640625 10.765625 -13.640625 10.671875 -13.640625 C 10.585938 -13.640625 10.5 -13.644531 10.40625 -13.65625 C 10.363281 -13.65625 10.3125 -13.660156 10.25 -13.671875 C 10.195312 -13.679688 10.144531 -13.691406 10.09375 -13.703125 C 10.019531 -13.710938 9.953125 -13.71875 9.890625 -13.71875 C 9.828125 -13.71875 9.757812 -13.71875 9.6875 -13.71875 C 9.632812 -13.71875 9.578125 -13.71875 9.515625 -13.71875 C 9.460938 -13.71875 9.410156 -13.707031 9.359375 -13.6875 C 9.367188 -13.664062 9.347656 -13.65625 9.296875 -13.65625 C 9.109375 -13.695312 8.925781 -13.71875 8.75 -13.71875 C 8.632812 -13.71875 8.523438 -13.710938 8.421875 -13.703125 C 8.328125 -13.703125 8.222656 -13.695312 8.109375 -13.6875 C 7.890625 -13.644531 7.671875 -13.625 7.453125 -13.625 C 7.328125 -13.625 7.191406 -13.609375 7.046875 -13.578125 C 6.910156 -13.554688 6.78125 -13.535156 6.65625 -13.515625 C 6.582031 -13.503906 6.503906 -13.492188 6.421875 -13.484375 C 6.347656 -13.472656 6.269531 -13.457031 6.1875 -13.4375 C 5.8125 -13.382812 5.429688 -13.296875 5.046875 -13.171875 C 4.660156 -13.054688 4.28125 -12.929688 3.90625 -12.796875 C 3.601562 -12.691406 3.3125 -12.550781 3.03125 -12.375 C 2.757812 -12.195312 2.5 -11.992188 2.25 -11.765625 C 2.25 -11.691406 2.242188 -11.628906 2.234375 -11.578125 L 2.234375 -11.46875 C 2.171875 -11.40625 2.101562 -11.375 2.03125 -11.375 C 1.96875 -11.375 1.863281 -11.40625 1.71875 -11.46875 L 1.71875 -11.53125 C 1.71875 -11.582031 1.757812 -11.648438 1.84375 -11.734375 C 2.007812 -11.921875 2.195312 -12.082031 2.40625 -12.21875 C 2.625 -12.351562 2.851562 -12.488281 3.09375 -12.625 C 3.363281 -12.78125 3.65625 -12.910156 3.96875 -13.015625 C 4.28125 -13.117188 4.59375 -13.210938 4.90625 -13.296875 C 5.257812 -13.390625 5.628906 -13.476562 6.015625 -13.5625 C 6.410156 -13.644531 6.816406 -13.707031 7.234375 -13.75 C 7.554688 -13.800781 7.882812 -13.84375 8.21875 -13.875 C 8.5625 -13.914062 8.90625 -13.925781 9.25 -13.90625 C 9.40625 -13.882812 9.554688 -13.875 9.703125 -13.875 C 9.859375 -13.875 10.015625 -13.875 10.171875 -13.875 L 10.484375 -13.875 C 10.617188 -13.875 10.753906 -13.875 10.890625 -13.875 C 11.035156 -13.875 11.164062 -13.851562 11.28125 -13.8125 C 11.375 -13.78125 11.429688 -13.773438 11.453125 -13.796875 C 11.585938 -13.804688 11.722656 -13.800781 11.859375 -13.78125 C 11.992188 -13.769531 12.117188 -13.753906 12.234375 -13.734375 C 12.335938 -13.722656 12.429688 -13.710938 12.515625 -13.703125 C 12.609375 -13.691406 12.695312 -13.6875 12.78125 -13.6875 C 12.8125 -13.664062 12.863281 -13.65625 12.9375 -13.65625 C 13.144531 -13.601562 13.351562 -13.5625 13.5625 -13.53125 C 13.769531 -13.507812 13.984375 -13.476562 14.203125 -13.4375 C 14.378906 -13.414062 14.554688 -13.390625 14.734375 -13.359375 C 14.921875 -13.335938 15.097656 -13.304688 15.265625 -13.265625 C 15.378906 -13.234375 15.488281 -13.207031 15.59375 -13.1875 C 15.707031 -13.175781 15.8125 -13.160156 15.90625 -13.140625 C 16.25 -13.078125 16.570312 -13 16.875 -12.90625 C 16.945312 -12.882812 17.046875 -12.863281 17.171875 -12.84375 C 17.265625 -12.925781 17.363281 -13.007812 17.46875 -13.09375 C 17.570312 -13.175781 17.679688 -13.269531 17.796875 -13.375 C 17.890625 -13.445312 17.988281 -13.523438 18.09375 -13.609375 C 18.195312 -13.691406 18.296875 -13.773438 18.390625 -13.859375 L 19.265625 -14.59375 C 19.660156 -14.90625 20.0625 -15.195312 20.46875 -15.46875 C 20.875 -15.738281 21.300781 -15.972656 21.75 -16.171875 C 22.144531 -16.335938 22.578125 -16.457031 23.046875 -16.53125 C 23.515625 -16.613281 23.867188 -16.65625 24.109375 -16.65625 C 24.273438 -16.65625 24.425781 -16.609375 24.5625 -16.515625 C 24.550781 -16.460938 24.503906 -16.441406 24.421875 -16.453125 C 24.335938 -16.460938 24.21875 -16.46875 24.0625 -16.46875 C 23.957031 -16.46875 23.832031 -16.457031 23.6875 -16.4375 C 23.550781 -16.414062 23.398438 -16.375 23.234375 -16.3125 C 22.960938 -16.21875 22.695312 -16.101562 22.4375 -15.96875 C 22.175781 -15.84375 21.890625 -15.660156 21.578125 -15.421875 C 21.328125 -15.234375 21.078125 -15.046875 20.828125 -14.859375 C 20.578125 -14.671875 20.332031 -14.472656 20.09375 -14.265625 C 19.894531 -14.117188 19.707031 -13.960938 19.53125 -13.796875 C 19.351562 -13.628906 19.175781 -13.460938 19 -13.296875 C 18.925781 -13.222656 18.84375 -13.148438 18.75 -13.078125 C 18.664062 -13.003906 18.582031 -12.9375 18.5 -12.875 C 18.4375 -12.820312 18.382812 -12.773438 18.34375 -12.734375 C 18.3125 -12.703125 18.28125 -12.675781 18.25 -12.65625 L 18.171875 -12.609375 C 18.234375 -12.585938 18.296875 -12.566406 18.359375 -12.546875 C 18.421875 -12.535156 18.484375 -12.523438 18.546875 -12.515625 C 18.859375 -12.429688 19.164062 -12.359375 19.46875 -12.296875 L 19.859375 -12.21875 C 19.992188 -12.207031 20.132812 -12.179688 20.28125 -12.140625 C 20.425781 -12.109375 20.554688 -12.0625 20.671875 -12 C 20.910156 -11.96875 21.078125 -11.941406 21.171875 -11.921875 C 21.265625 -11.910156 21.34375 -11.894531 21.40625 -11.875 C 21.46875 -11.863281 21.550781 -11.84375 21.65625 -11.8125 C 21.757812 -11.78125 21.929688 -11.734375 22.171875 -11.671875 L 22.734375 -11.5625 C 22.921875 -11.519531 23.070312 -11.488281 23.1875 -11.46875 C 23.3125 -11.445312 23.492188 -11.410156 23.734375 -11.359375 L 23.875 -11.328125 C 23.9375 -11.398438 23.992188 -11.460938 24.046875 -11.515625 C 24.109375 -11.566406 24.164062 -11.613281 24.21875 -11.65625 C 24.363281 -11.757812 24.472656 -11.84375 24.546875 -11.90625 C 24.628906 -11.976562 24.707031 -12.050781 24.78125 -12.125 C 24.914062 -12.257812 25.0625 -12.394531 25.21875 -12.53125 C 25.382812 -12.664062 25.546875 -12.789062 25.703125 -12.90625 C 25.796875 -12.988281 25.863281 -13.046875 25.90625 -13.078125 C 25.945312 -13.117188 25.992188 -13.160156 26.046875 -13.203125 C 26.109375 -13.253906 26.171875 -13.304688 26.234375 -13.359375 C 26.304688 -13.410156 26.375 -13.460938 26.4375 -13.515625 C 26.550781 -13.628906 26.640625 -13.710938 26.703125 -13.765625 C 26.773438 -13.828125 26.847656 -13.890625 26.921875 -13.953125 C 27.109375 -14.097656 27.300781 -14.242188 27.5 -14.390625 C 27.695312 -14.546875 27.894531 -14.707031 28.09375 -14.875 C 28.238281 -14.976562 28.351562 -15.0625 28.4375 -15.125 C 28.519531 -15.1875 28.609375 -15.253906 28.703125 -15.328125 C 28.890625 -15.472656 29.085938 -15.613281 29.296875 -15.75 C 29.503906 -15.894531 29.710938 -16.035156 29.921875 -16.171875 L 30.734375 -16.71875 C 30.878906 -16.8125 31.035156 -16.90625 31.203125 -17 C 31.378906 -17.101562 31.546875 -17.195312 31.703125 -17.28125 L 32.140625 -17.53125 C 32.203125 -17.570312 32.269531 -17.609375 32.34375 -17.640625 C 32.414062 -17.679688 32.488281 -17.71875 32.5625 -17.75 C 32.6875 -17.8125 32.78125 -17.863281 32.84375 -17.90625 C 32.914062 -17.945312 32.988281 -17.992188 33.0625 -18.046875 C 33.1875 -18.117188 33.316406 -18.191406 33.453125 -18.265625 C 33.585938 -18.335938 33.722656 -18.40625 33.859375 -18.46875 C 34.023438 -18.539062 34.175781 -18.613281 34.3125 -18.6875 C 34.445312 -18.757812 34.585938 -18.84375 34.734375 -18.9375 C 34.804688 -18.988281 34.882812 -19.03125 34.96875 -19.0625 C 35.0625 -19.09375 35.148438 -19.125 35.234375 -19.15625 L 35.484375 -19.265625 C 35.910156 -19.460938 36.335938 -19.644531 36.765625 -19.8125 C 37.203125 -19.976562 37.648438 -20.140625 38.109375 -20.296875 C 38.515625 -20.453125 38.929688 -20.597656 39.359375 -20.734375 C 39.785156 -20.867188 40.21875 -20.984375 40.65625 -21.078125 C 41.007812 -21.160156 41.363281 -21.226562 41.71875 -21.28125 C 42.070312 -21.34375 42.429688 -21.367188 42.796875 -21.359375 C 42.859375 -21.359375 42.925781 -21.351562 43 -21.34375 C 43.082031 -21.332031 43.160156 -21.320312 43.234375 -21.3125 C 43.453125 -21.300781 43.5625 -21.222656 43.5625 -21.078125 Z M 43.5625 -21.078125 "/></g></g></g><g fill="#000000" fill-opacity="1"><g transform="translate(110.15065, 150.831434)"><g><path d="M -1.078125 -0.171875 C -1.410156 -0.128906 -1.703125 -0.210938 -1.953125 -0.421875 C -2.117188 -0.585938 -2.203125 -0.800781 -2.203125 -1.0625 C -2.203125 -1.226562 -2.171875 -1.398438 -2.109375 -1.578125 C -2.046875 -1.765625 -1.96875 -1.945312 -1.875 -2.125 C -1.769531 -2.320312 -1.664062 -2.519531 -1.5625 -2.71875 C -1.457031 -2.914062 -1.332031 -3.097656 -1.1875 -3.265625 C -1.113281 -3.347656 -1 -3.488281 -0.84375 -3.6875 C -0.695312 -3.882812 -0.585938 -4.023438 -0.515625 -4.109375 C -0.304688 -4.347656 -0.144531 -4.535156 -0.03125 -4.671875 C 0.0820312 -4.804688 0.257812 -4.988281 0.5 -5.21875 C 0.59375 -5.332031 0.710938 -5.460938 0.859375 -5.609375 C 1.003906 -5.765625 1.160156 -5.90625 1.328125 -6.03125 C 1.441406 -6.125 1.570312 -6.171875 1.71875 -6.171875 C 1.945312 -6.171875 2.132812 -6 2.28125 -5.65625 C 2.28125 -5.46875 2.222656 -5.304688 2.109375 -5.171875 C 2.003906 -5.046875 1.90625 -4.921875 1.8125 -4.796875 C 1.59375 -4.566406 1.367188 -4.335938 1.140625 -4.109375 C 0.910156 -3.878906 0.675781 -3.648438 0.4375 -3.421875 C 0.1875 -3.160156 -0.0664062 -2.898438 -0.328125 -2.640625 C -0.585938 -2.378906 -0.828125 -2.101562 -1.046875 -1.8125 C -1.160156 -1.613281 -1.273438 -1.398438 -1.390625 -1.171875 C -1.515625 -0.953125 -1.578125 -0.769531 -1.578125 -0.625 C -1.578125 -0.5625 -1.554688 -0.507812 -1.515625 -0.46875 C -1.410156 -0.394531 -1.304688 -0.359375 -1.203125 -0.359375 C -1.117188 -0.359375 -1.035156 -0.375 -0.953125 -0.40625 C -0.878906 -0.4375 -0.800781 -0.457031 -0.71875 -0.46875 C -0.59375 -0.5 -0.390625 -0.578125 -0.109375 -0.703125 C 0.160156 -0.828125 0.40625 -0.953125 0.625 -1.078125 C 0.988281 -1.273438 1.347656 -1.46875 1.703125 -1.65625 C 2.054688 -1.851562 2.410156 -2.050781 2.765625 -2.25 C 2.984375 -2.382812 3.195312 -2.519531 3.40625 -2.65625 C 3.613281 -2.800781 3.832031 -2.945312 4.0625 -3.09375 C 4.28125 -3.25 4.492188 -3.398438 4.703125 -3.546875 C 4.910156 -3.703125 5.132812 -3.859375 5.375 -4.015625 C 5.269531 -4.378906 5.21875 -4.738281 5.21875 -5.09375 C 5.21875 -5.757812 5.375 -6.34375 5.6875 -6.84375 C 5.9375 -7.3125 6.207031 -7.675781 6.5 -7.9375 C 6.789062 -8.207031 7.160156 -8.476562 7.609375 -8.75 C 7.671875 -8.78125 7.742188 -8.8125 7.828125 -8.84375 C 7.910156 -8.875 7.976562 -8.90625 8.03125 -8.9375 C 8.175781 -8.976562 8.359375 -9 8.578125 -9 C 8.816406 -9 9.035156 -8.957031 9.234375 -8.875 C 9.441406 -8.789062 9.570312 -8.65625 9.625 -8.46875 C 9.632812 -8.425781 9.640625 -8.382812 9.640625 -8.34375 C 9.640625 -8.300781 9.640625 -8.253906 9.640625 -8.203125 C 9.640625 -7.992188 9.601562 -7.796875 9.53125 -7.609375 C 9.414062 -7.304688 9.257812 -7.015625 9.0625 -6.734375 C 8.863281 -6.453125 8.625 -6.191406 8.34375 -5.953125 C 8.132812 -5.753906 7.929688 -5.570312 7.734375 -5.40625 C 7.546875 -5.25 7.285156 -5.054688 6.953125 -4.828125 C 6.921875 -4.796875 6.890625 -4.769531 6.859375 -4.75 C 6.828125 -4.726562 6.785156 -4.703125 6.734375 -4.671875 C 6.648438 -4.628906 6.550781 -4.550781 6.4375 -4.4375 C 6.320312 -4.332031 6.160156 -4.210938 5.953125 -4.078125 C 5.972656 -3.898438 6.054688 -3.71875 6.203125 -3.53125 C 6.347656 -3.34375 6.519531 -3.203125 6.71875 -3.109375 C 6.96875 -2.984375 7.265625 -2.921875 7.609375 -2.921875 C 7.835938 -2.921875 8.082031 -2.953125 8.34375 -3.015625 C 8.613281 -3.078125 8.898438 -3.179688 9.203125 -3.328125 C 9.378906 -3.410156 9.59375 -3.523438 9.84375 -3.671875 C 10.101562 -3.816406 10.320312 -3.960938 10.5 -4.109375 C 10.632812 -4.203125 10.742188 -4.285156 10.828125 -4.359375 C 10.910156 -4.429688 11.015625 -4.515625 11.140625 -4.609375 C 11.148438 -4.617188 11.175781 -4.625 11.21875 -4.625 C 11.257812 -4.625 11.289062 -4.597656 11.3125 -4.546875 C 11.332031 -4.492188 11.3125 -4.453125 11.25 -4.421875 C 11.164062 -4.347656 11.078125 -4.273438 10.984375 -4.203125 C 10.890625 -4.128906 10.816406 -4.070312 10.765625 -4.03125 C 10.554688 -3.875 10.367188 -3.738281 10.203125 -3.625 C 10.035156 -3.519531 9.84375 -3.40625 9.625 -3.28125 C 9.394531 -3.164062 9.175781 -3.0625 8.96875 -2.96875 C 8.757812 -2.875 8.535156 -2.796875 8.296875 -2.734375 C 8.179688 -2.710938 8.066406 -2.695312 7.953125 -2.6875 C 7.835938 -2.675781 7.710938 -2.671875 7.578125 -2.671875 C 7.347656 -2.671875 7.125 -2.691406 6.90625 -2.734375 C 6.6875 -2.785156 6.484375 -2.867188 6.296875 -2.984375 C 6.179688 -3.035156 6.035156 -3.132812 5.859375 -3.28125 C 5.691406 -3.425781 5.5625 -3.59375 5.46875 -3.78125 C 5.300781 -3.65625 5.171875 -3.554688 5.078125 -3.484375 C 4.992188 -3.421875 4.898438 -3.363281 4.796875 -3.3125 C 4.390625 -3 3.96875 -2.710938 3.53125 -2.453125 C 3.101562 -2.191406 2.660156 -1.9375 2.203125 -1.6875 C 1.828125 -1.46875 1.441406 -1.253906 1.046875 -1.046875 C 0.648438 -0.847656 0.257812 -0.648438 -0.125 -0.453125 C -0.269531 -0.378906 -0.421875 -0.320312 -0.578125 -0.28125 C -0.742188 -0.238281 -0.910156 -0.203125 -1.078125 -0.171875 Z M 5.9375 -4.328125 C 6.019531 -4.378906 6.113281 -4.445312 6.21875 -4.53125 C 6.332031 -4.613281 6.410156 -4.664062 6.453125 -4.6875 C 6.691406 -4.863281 6.882812 -5.007812 7.03125 -5.125 C 7.175781 -5.238281 7.304688 -5.335938 7.421875 -5.421875 C 7.847656 -5.742188 8.210938 -6.078125 8.515625 -6.421875 C 8.828125 -6.773438 9.023438 -7.054688 9.109375 -7.265625 C 9.210938 -7.398438 9.289062 -7.570312 9.34375 -7.78125 C 9.394531 -8 9.425781 -8.1875 9.4375 -8.34375 C 9.394531 -8.519531 9.320312 -8.613281 9.21875 -8.625 C 9.113281 -8.632812 9.03125 -8.644531 8.96875 -8.65625 C 8.800781 -8.644531 8.628906 -8.582031 8.453125 -8.46875 C 8.273438 -8.363281 8.125 -8.269531 8 -8.1875 C 7.5625 -7.820312 7.175781 -7.421875 6.84375 -6.984375 C 6.601562 -6.648438 6.382812 -6.238281 6.1875 -5.75 C 6 -5.257812 5.914062 -4.785156 5.9375 -4.328125 Z M 5.9375 -4.328125 "/></g></g></g><g fill="#000000" fill-opacity="1"><g transform="translate(120.965848, 150.831434)"><g><path d="M 5.46875 -8.734375 C 5.4375 -8.734375 5.410156 -8.734375 5.390625 -8.734375 C 5.367188 -8.742188 5.34375 -8.75 5.3125 -8.75 C 5.09375 -8.832031 4.953125 -9 4.890625 -9.25 C 4.890625 -9.375 4.925781 -9.484375 5 -9.578125 C 5.082031 -9.679688 5.175781 -9.769531 5.28125 -9.84375 C 5.34375 -9.90625 5.410156 -9.953125 5.484375 -9.984375 C 5.554688 -10.015625 5.632812 -10.03125 5.71875 -10.03125 C 5.75 -10.03125 5.816406 -10.015625 5.921875 -9.984375 C 6.085938 -9.816406 6.171875 -9.625 6.171875 -9.40625 C 6.171875 -9.375 6.164062 -9.332031 6.15625 -9.28125 C 6.15625 -9.238281 6.148438 -9.195312 6.140625 -9.15625 C 5.960938 -8.875 5.738281 -8.734375 5.46875 -8.734375 Z M -0.765625 -0.296875 C -1.023438 -0.296875 -1.300781 -0.367188 -1.59375 -0.515625 C -1.738281 -0.648438 -1.847656 -0.773438 -1.921875 -0.890625 C -1.992188 -1.015625 -2.03125 -1.179688 -2.03125 -1.390625 C -2.03125 -1.453125 -2.03125 -1.503906 -2.03125 -1.546875 C -2.03125 -1.597656 -2.023438 -1.65625 -2.015625 -1.71875 C -1.960938 -1.925781 -1.867188 -2.160156 -1.734375 -2.421875 C -1.597656 -2.691406 -1.472656 -2.914062 -1.359375 -3.09375 C -1.265625 -3.21875 -1.148438 -3.378906 -1.015625 -3.578125 C -0.890625 -3.773438 -0.703125 -4.015625 -0.453125 -4.296875 L -0.21875 -4.546875 C -0.0507812 -4.742188 0.0703125 -4.894531 0.15625 -5 C 0.25 -5.101562 0.351562 -5.222656 0.46875 -5.359375 C 0.6875 -5.535156 0.859375 -5.675781 0.984375 -5.78125 C 1.109375 -5.882812 1.222656 -5.972656 1.328125 -6.046875 C 1.429688 -6.117188 1.5625 -6.207031 1.71875 -6.3125 C 1.84375 -6.40625 1.984375 -6.484375 2.140625 -6.546875 C 2.304688 -6.617188 2.46875 -6.640625 2.625 -6.609375 C 2.769531 -6.546875 2.84375 -6.429688 2.84375 -6.265625 C 2.84375 -6.242188 2.84375 -6.210938 2.84375 -6.171875 C 2.84375 -6.140625 2.835938 -6.109375 2.828125 -6.078125 C 2.765625 -5.960938 2.675781 -5.859375 2.5625 -5.765625 C 2.445312 -5.671875 2.34375 -5.578125 2.25 -5.484375 C 2.125 -5.367188 2 -5.257812 1.875 -5.15625 C 1.757812 -5.050781 1.632812 -4.953125 1.5 -4.859375 C 1.21875 -4.640625 0.957031 -4.410156 0.71875 -4.171875 C 0.476562 -3.941406 0.234375 -3.691406 -0.015625 -3.421875 C -0.0546875 -3.390625 -0.125 -3.316406 -0.21875 -3.203125 C -0.3125 -3.097656 -0.382812 -3.015625 -0.4375 -2.953125 C -0.570312 -2.804688 -0.6875 -2.660156 -0.78125 -2.515625 C -0.882812 -2.367188 -1 -2.191406 -1.125 -1.984375 C -1.1875 -1.898438 -1.253906 -1.800781 -1.328125 -1.6875 C -1.398438 -1.570312 -1.453125 -1.460938 -1.484375 -1.359375 C -1.515625 -1.273438 -1.53125 -1.1875 -1.53125 -1.09375 C -1.53125 -1.019531 -1.515625 -0.941406 -1.484375 -0.859375 C -1.453125 -0.785156 -1.394531 -0.71875 -1.3125 -0.65625 C -1.21875 -0.601562 -1.117188 -0.566406 -1.015625 -0.546875 C -0.910156 -0.523438 -0.800781 -0.515625 -0.6875 -0.515625 C -0.4375 -0.515625 -0.234375 -0.550781 -0.078125 -0.625 C 0.140625 -0.71875 0.382812 -0.8125 0.65625 -0.90625 C 0.9375 -1.007812 1.144531 -1.113281 1.28125 -1.21875 C 1.414062 -1.28125 1.535156 -1.335938 1.640625 -1.390625 C 1.742188 -1.453125 1.847656 -1.515625 1.953125 -1.578125 C 2.148438 -1.679688 2.328125 -1.796875 2.484375 -1.921875 C 2.648438 -2.054688 2.832031 -2.171875 3.03125 -2.265625 C 3.300781 -2.421875 3.5625 -2.582031 3.8125 -2.75 C 4.0625 -2.925781 4.300781 -3.097656 4.53125 -3.265625 C 4.769531 -3.441406 5.023438 -3.628906 5.296875 -3.828125 C 5.578125 -4.023438 5.851562 -4.222656 6.125 -4.421875 C 6.175781 -4.472656 6.234375 -4.519531 6.296875 -4.5625 C 6.359375 -4.613281 6.414062 -4.632812 6.46875 -4.625 C 6.488281 -4.613281 6.5 -4.585938 6.5 -4.546875 C 6.5 -4.535156 6.488281 -4.515625 6.46875 -4.484375 C 6.457031 -4.460938 6.441406 -4.441406 6.421875 -4.421875 L 6.34375 -4.328125 C 5.8125 -3.910156 5.269531 -3.503906 4.71875 -3.109375 C 4.175781 -2.710938 3.601562 -2.347656 3 -2.015625 C 2.65625 -1.773438 2.289062 -1.546875 1.90625 -1.328125 C 1.519531 -1.117188 1.113281 -0.921875 0.6875 -0.734375 C 0.601562 -0.691406 0.519531 -0.648438 0.4375 -0.609375 C 0.363281 -0.566406 0.28125 -0.535156 0.1875 -0.515625 C 0.0390625 -0.460938 -0.109375 -0.410156 -0.265625 -0.359375 C -0.429688 -0.316406 -0.597656 -0.296875 -0.765625 -0.296875 Z M -0.765625 -0.296875 "/></g></g></g><g fill="#000000" fill-opacity="1"><g transform="translate(127.031093, 150.831434)"><g><path d="M 21.53125 -16.21875 C 21.59375 -16.164062 21.640625 -16.109375 21.671875 -16.046875 C 21.703125 -15.992188 21.722656 -15.941406 21.734375 -15.890625 C 21.722656 -15.472656 21.613281 -15.117188 21.40625 -14.828125 C 21.195312 -14.535156 20.972656 -14.265625 20.734375 -14.015625 C 20.546875 -13.816406 20.347656 -13.632812 20.140625 -13.46875 C 19.941406 -13.300781 19.75 -13.128906 19.5625 -12.953125 C 19.300781 -12.742188 19.101562 -12.570312 18.96875 -12.4375 C 18.832031 -12.3125 18.632812 -12.148438 18.375 -11.953125 C 18.289062 -11.859375 18.160156 -11.765625 17.984375 -11.671875 C 17.816406 -11.578125 17.6875 -11.484375 17.59375 -11.390625 C 17.40625 -11.265625 17.210938 -11.140625 17.015625 -11.015625 C 16.828125 -10.898438 16.632812 -10.785156 16.4375 -10.671875 L 15.984375 -10.375 C 15.640625 -10.1875 15.285156 -10.007812 14.921875 -9.84375 C 14.566406 -9.6875 14.210938 -9.523438 13.859375 -9.359375 C 13.378906 -9.148438 12.878906 -8.972656 12.359375 -8.828125 C 11.847656 -8.691406 11.34375 -8.550781 10.84375 -8.40625 C 10.726562 -8.375 10.613281 -8.335938 10.5 -8.296875 C 10.394531 -8.265625 10.28125 -8.238281 10.15625 -8.21875 C 9.945312 -8.164062 9.734375 -8.117188 9.515625 -8.078125 C 9.296875 -8.035156 9.082031 -8.003906 8.875 -7.984375 C 8.601562 -7.941406 8.359375 -7.828125 8.140625 -7.640625 L 7.578125 -7.140625 C 7.429688 -7.015625 7.285156 -6.890625 7.140625 -6.765625 C 7.003906 -6.648438 6.867188 -6.523438 6.734375 -6.390625 C 6.546875 -6.210938 6.359375 -6.03125 6.171875 -5.84375 C 5.992188 -5.664062 5.8125 -5.472656 5.625 -5.265625 C 5.414062 -5.023438 5.203125 -4.789062 4.984375 -4.5625 C 4.773438 -4.34375 4.566406 -4.113281 4.359375 -3.875 C 3.972656 -3.425781 3.648438 -2.992188 3.390625 -2.578125 C 3.140625 -2.171875 3.015625 -1.722656 3.015625 -1.234375 C 3.015625 -1.003906 3.078125 -0.8125 3.203125 -0.65625 C 3.328125 -0.5 3.519531 -0.421875 3.78125 -0.421875 C 4.144531 -0.421875 4.539062 -0.492188 4.96875 -0.640625 C 5.40625 -0.785156 5.832031 -0.96875 6.25 -1.1875 C 6.675781 -1.40625 7.0625 -1.625 7.40625 -1.84375 C 7.75 -2.0625 8.019531 -2.238281 8.21875 -2.375 C 8.445312 -2.53125 8.6875 -2.695312 8.9375 -2.875 C 9.195312 -3.050781 9.445312 -3.238281 9.6875 -3.4375 C 9.925781 -3.613281 10.179688 -3.804688 10.453125 -4.015625 C 10.734375 -4.222656 10.96875 -4.394531 11.15625 -4.53125 C 11.28125 -4.601562 11.375 -4.632812 11.4375 -4.625 C 11.46875 -4.625 11.484375 -4.609375 11.484375 -4.578125 C 11.484375 -4.546875 11.410156 -4.472656 11.265625 -4.359375 C 10.765625 -3.992188 10.289062 -3.628906 9.84375 -3.265625 C 9.394531 -2.910156 8.910156 -2.566406 8.390625 -2.234375 C 8.179688 -2.097656 7.894531 -1.914062 7.53125 -1.6875 C 7.175781 -1.46875 6.78125 -1.238281 6.34375 -1 C 5.914062 -0.769531 5.484375 -0.578125 5.046875 -0.421875 C 4.609375 -0.265625 4.203125 -0.1875 3.828125 -0.1875 C 3.429688 -0.1875 3.109375 -0.304688 2.859375 -0.546875 C 2.609375 -0.785156 2.484375 -1.09375 2.484375 -1.46875 C 2.484375 -1.519531 2.484375 -1.578125 2.484375 -1.640625 C 2.492188 -1.710938 2.503906 -1.78125 2.515625 -1.84375 C 2.765625 -2.820312 3.195312 -3.679688 3.8125 -4.421875 L 4.078125 -4.75 C 4.023438 -4.695312 3.972656 -4.644531 3.921875 -4.59375 C 3.878906 -4.550781 3.8125 -4.492188 3.71875 -4.421875 L 3.59375 -4.296875 C 3.070312 -3.816406 2.597656 -3.398438 2.171875 -3.046875 C 1.753906 -2.691406 1.316406 -2.328125 0.859375 -1.953125 C 0.710938 -1.828125 0.5625 -1.722656 0.40625 -1.640625 C 0.257812 -1.554688 0.0976562 -1.476562 -0.078125 -1.40625 C -0.179688 -1.351562 -0.304688 -1.328125 -0.453125 -1.328125 C -0.628906 -1.328125 -0.796875 -1.378906 -0.953125 -1.484375 C -1.046875 -1.578125 -1.113281 -1.6875 -1.15625 -1.8125 C -1.195312 -1.945312 -1.21875 -2.078125 -1.21875 -2.203125 C -1.21875 -2.253906 -1.210938 -2.300781 -1.203125 -2.34375 C -1.203125 -2.394531 -1.195312 -2.445312 -1.1875 -2.5 C -1.132812 -2.769531 -1.054688 -3.023438 -0.953125 -3.265625 C -0.847656 -3.515625 -0.734375 -3.75 -0.609375 -3.96875 C -0.398438 -4.269531 -0.191406 -4.546875 0.015625 -4.796875 C 0.203125 -5.035156 0.398438 -5.269531 0.609375 -5.5 C 0.703125 -5.601562 0.800781 -5.707031 0.90625 -5.8125 C 1.019531 -5.914062 1.140625 -6.019531 1.265625 -6.125 C 1.398438 -6.226562 1.53125 -6.335938 1.65625 -6.453125 C 1.78125 -6.566406 1.910156 -6.671875 2.046875 -6.765625 C 2.367188 -6.984375 2.769531 -7.179688 3.25 -7.359375 C 3.363281 -7.410156 3.476562 -7.441406 3.59375 -7.453125 C 3.707031 -7.460938 3.8125 -7.46875 3.90625 -7.46875 C 4.257812 -7.46875 4.519531 -7.414062 4.6875 -7.3125 C 4.8125 -7.21875 4.953125 -7.097656 5.109375 -6.953125 C 5.273438 -6.804688 5.382812 -6.59375 5.4375 -6.3125 L 6.703125 -7.640625 C 6.710938 -7.660156 6.75 -7.691406 6.8125 -7.734375 C 6.875 -7.773438 6.910156 -7.8125 6.921875 -7.84375 L 7.640625 -8.46875 C 7.898438 -8.738281 8.171875 -8.992188 8.453125 -9.234375 C 8.742188 -9.472656 9.03125 -9.710938 9.3125 -9.953125 C 9.613281 -10.210938 9.921875 -10.46875 10.234375 -10.71875 C 10.554688 -10.96875 10.878906 -11.210938 11.203125 -11.453125 C 11.566406 -11.734375 11.941406 -12 12.328125 -12.25 C 12.710938 -12.507812 13.101562 -12.769531 13.5 -13.03125 C 13.625 -13.113281 13.75 -13.1875 13.875 -13.25 C 14 -13.320312 14.125 -13.398438 14.25 -13.484375 C 14.601562 -13.691406 14.945312 -13.890625 15.28125 -14.078125 C 15.625 -14.265625 15.960938 -14.445312 16.296875 -14.625 C 16.816406 -14.914062 17.332031 -15.179688 17.84375 -15.421875 C 18.351562 -15.671875 18.867188 -15.898438 19.390625 -16.109375 C 19.710938 -16.222656 20.03125 -16.316406 20.34375 -16.390625 C 20.414062 -16.398438 20.488281 -16.40625 20.5625 -16.40625 C 20.632812 -16.414062 20.707031 -16.421875 20.78125 -16.421875 C 21.050781 -16.421875 21.300781 -16.351562 21.53125 -16.21875 Z M 21.328125 -15.265625 C 21.359375 -15.316406 21.394531 -15.390625 21.4375 -15.484375 C 21.476562 -15.585938 21.472656 -15.679688 21.421875 -15.765625 C 21.347656 -15.785156 21.296875 -15.796875 21.265625 -15.796875 C 21.128906 -15.796875 20.976562 -15.757812 20.8125 -15.6875 C 20.644531 -15.625 20.515625 -15.582031 20.421875 -15.5625 C 20.222656 -15.488281 20.019531 -15.410156 19.8125 -15.328125 C 19.601562 -15.253906 19.40625 -15.164062 19.21875 -15.0625 C 19.03125 -14.976562 18.84375 -14.882812 18.65625 -14.78125 C 18.476562 -14.675781 18.304688 -14.578125 18.140625 -14.484375 L 16.890625 -13.84375 C 16.734375 -13.757812 16.570312 -13.671875 16.40625 -13.578125 C 16.25 -13.484375 16.082031 -13.390625 15.90625 -13.296875 C 15.71875 -13.191406 15.523438 -13.082031 15.328125 -12.96875 C 15.140625 -12.851562 14.953125 -12.738281 14.765625 -12.625 C 14.566406 -12.507812 14.375 -12.390625 14.1875 -12.265625 C 14 -12.140625 13.804688 -12.015625 13.609375 -11.890625 L 12.53125 -11.140625 C 12.375 -11.015625 12.210938 -10.898438 12.046875 -10.796875 C 11.890625 -10.703125 11.734375 -10.59375 11.578125 -10.46875 C 11.421875 -10.34375 11.257812 -10.21875 11.09375 -10.09375 C 10.925781 -9.96875 10.757812 -9.835938 10.59375 -9.703125 C 10.382812 -9.523438 10.171875 -9.351562 9.953125 -9.1875 C 9.734375 -9.03125 9.519531 -8.863281 9.3125 -8.6875 C 9.25 -8.644531 9.179688 -8.59375 9.109375 -8.53125 C 9.046875 -8.46875 8.992188 -8.390625 8.953125 -8.296875 C 9.078125 -8.296875 9.195312 -8.300781 9.3125 -8.3125 C 9.425781 -8.320312 9.539062 -8.335938 9.65625 -8.359375 C 10.09375 -8.429688 10.523438 -8.519531 10.953125 -8.625 C 11.378906 -8.738281 11.8125 -8.867188 12.25 -9.015625 C 12.34375 -9.046875 12.429688 -9.078125 12.515625 -9.109375 C 12.597656 -9.140625 12.679688 -9.164062 12.765625 -9.1875 C 13.109375 -9.3125 13.445312 -9.445312 13.78125 -9.59375 C 14.113281 -9.75 14.441406 -9.898438 14.765625 -10.046875 C 15.148438 -10.210938 15.507812 -10.394531 15.84375 -10.59375 C 16.175781 -10.789062 16.539062 -11.019531 16.9375 -11.28125 C 16.957031 -11.300781 16.976562 -11.316406 17 -11.328125 C 17.03125 -11.347656 17.054688 -11.363281 17.078125 -11.375 C 17.390625 -11.570312 17.71875 -11.800781 18.0625 -12.0625 C 18.414062 -12.332031 18.742188 -12.601562 19.046875 -12.875 C 19.304688 -13.101562 19.5625 -13.320312 19.8125 -13.53125 C 20.0625 -13.738281 20.300781 -13.957031 20.53125 -14.1875 C 20.675781 -14.332031 20.820312 -14.5 20.96875 -14.6875 C 21.125 -14.882812 21.242188 -15.078125 21.328125 -15.265625 Z M 4.75 -5.609375 C 4.8125 -5.660156 4.875 -5.71875 4.9375 -5.78125 C 5.007812 -5.84375 5.101562 -5.925781 5.21875 -6.03125 C 5.207031 -6.113281 5.179688 -6.210938 5.140625 -6.328125 C 5.097656 -6.453125 4.972656 -6.613281 4.765625 -6.8125 C 4.703125 -6.875 4.597656 -6.90625 4.453125 -6.90625 C 4.273438 -6.90625 4.078125 -6.859375 3.859375 -6.765625 C 3.640625 -6.671875 3.457031 -6.578125 3.3125 -6.484375 C 3.0625 -6.316406 2.851562 -6.164062 2.6875 -6.03125 C 2.53125 -5.90625 2.367188 -5.773438 2.203125 -5.640625 C 2.160156 -5.609375 2.113281 -5.570312 2.0625 -5.53125 C 2.007812 -5.488281 1.957031 -5.4375 1.90625 -5.375 C 1.65625 -5.175781 1.429688 -4.96875 1.234375 -4.75 C 1.046875 -4.539062 0.851562 -4.320312 0.65625 -4.09375 L 0.25 -3.578125 C 0.125 -3.410156 0.00390625 -3.25 -0.109375 -3.09375 C -0.222656 -2.945312 -0.328125 -2.773438 -0.421875 -2.578125 C -0.503906 -2.347656 -0.546875 -2.140625 -0.546875 -1.953125 C -0.546875 -1.847656 -0.535156 -1.773438 -0.515625 -1.734375 C -0.472656 -1.660156 -0.398438 -1.625 -0.296875 -1.625 C -0.191406 -1.625 -0.0976562 -1.648438 -0.015625 -1.703125 C 0.109375 -1.765625 0.207031 -1.816406 0.28125 -1.859375 C 0.363281 -1.910156 0.484375 -1.988281 0.640625 -2.09375 C 0.921875 -2.300781 1.160156 -2.492188 1.359375 -2.671875 C 1.554688 -2.847656 1.773438 -3.03125 2.015625 -3.21875 C 2.140625 -3.3125 2.253906 -3.398438 2.359375 -3.484375 C 2.472656 -3.566406 2.582031 -3.660156 2.6875 -3.765625 C 3.039062 -4.078125 3.382812 -4.382812 3.71875 -4.6875 C 4.0625 -5 4.40625 -5.304688 4.75 -5.609375 Z M 4.75 -5.609375 "/></g></g></g><g fill="#000000" fill-opacity="1"><g transform="translate(137.974168, 150.831434)"><g><path d="M -1.078125 -0.171875 C -1.410156 -0.128906 -1.703125 -0.210938 -1.953125 -0.421875 C -2.117188 -0.585938 -2.203125 -0.800781 -2.203125 -1.0625 C -2.203125 -1.226562 -2.171875 -1.398438 -2.109375 -1.578125 C -2.046875 -1.765625 -1.96875 -1.945312 -1.875 -2.125 C -1.769531 -2.320312 -1.664062 -2.519531 -1.5625 -2.71875 C -1.457031 -2.914062 -1.332031 -3.097656 -1.1875 -3.265625 C -1.113281 -3.347656 -1 -3.488281 -0.84375 -3.6875 C -0.695312 -3.882812 -0.585938 -4.023438 -0.515625 -4.109375 C -0.304688 -4.347656 -0.144531 -4.535156 -0.03125 -4.671875 C 0.0820312 -4.804688 0.257812 -4.988281 0.5 -5.21875 C 0.59375 -5.332031 0.710938 -5.460938 0.859375 -5.609375 C 1.003906 -5.765625 1.160156 -5.90625 1.328125 -6.03125 C 1.441406 -6.125 1.570312 -6.171875 1.71875 -6.171875 C 1.945312 -6.171875 2.132812 -6 2.28125 -5.65625 C 2.28125 -5.46875 2.222656 -5.304688 2.109375 -5.171875 C 2.003906 -5.046875 1.90625 -4.921875 1.8125 -4.796875 C 1.59375 -4.566406 1.367188 -4.335938 1.140625 -4.109375 C 0.910156 -3.878906 0.675781 -3.648438 0.4375 -3.421875 C 0.1875 -3.160156 -0.0664062 -2.898438 -0.328125 -2.640625 C -0.585938 -2.378906 -0.828125 -2.101562 -1.046875 -1.8125 C -1.160156 -1.613281 -1.273438 -1.398438 -1.390625 -1.171875 C -1.515625 -0.953125 -1.578125 -0.769531 -1.578125 -0.625 C -1.578125 -0.5625 -1.554688 -0.507812 -1.515625 -0.46875 C -1.410156 -0.394531 -1.304688 -0.359375 -1.203125 -0.359375 C -1.117188 -0.359375 -1.035156 -0.375 -0.953125 -0.40625 C -0.878906 -0.4375 -0.800781 -0.457031 -0.71875 -0.46875 C -0.59375 -0.5 -0.390625 -0.578125 -0.109375 -0.703125 C 0.160156 -0.828125 0.40625 -0.953125 0.625 -1.078125 C 0.988281 -1.273438 1.347656 -1.46875 1.703125 -1.65625 C 2.054688 -1.851562 2.410156 -2.050781 2.765625 -2.25 C 2.984375 -2.382812 3.195312 -2.519531 3.40625 -2.65625 C 3.613281 -2.800781 3.832031 -2.945312 4.0625 -3.09375 C 4.28125 -3.25 4.492188 -3.398438 4.703125 -3.546875 C 4.910156 -3.703125 5.132812 -3.859375 5.375 -4.015625 C 5.269531 -4.378906 5.21875 -4.738281 5.21875 -5.09375 C 5.21875 -5.757812 5.375 -6.34375 5.6875 -6.84375 C 5.9375 -7.3125 6.207031 -7.675781 6.5 -7.9375 C 6.789062 -8.207031 7.160156 -8.476562 7.609375 -8.75 C 7.671875 -8.78125 7.742188 -8.8125 7.828125 -8.84375 C 7.910156 -8.875 7.976562 -8.90625 8.03125 -8.9375 C 8.175781 -8.976562 8.359375 -9 8.578125 -9 C 8.816406 -9 9.035156 -8.957031 9.234375 -8.875 C 9.441406 -8.789062 9.570312 -8.65625 9.625 -8.46875 C 9.632812 -8.425781 9.640625 -8.382812 9.640625 -8.34375 C 9.640625 -8.300781 9.640625 -8.253906 9.640625 -8.203125 C 9.640625 -7.992188 9.601562 -7.796875 9.53125 -7.609375 C 9.414062 -7.304688 9.257812 -7.015625 9.0625 -6.734375 C 8.863281 -6.453125 8.625 -6.191406 8.34375 -5.953125 C 8.132812 -5.753906 7.929688 -5.570312 7.734375 -5.40625 C 7.546875 -5.25 7.285156 -5.054688 6.953125 -4.828125 C 6.921875 -4.796875 6.890625 -4.769531 6.859375 -4.75 C 6.828125 -4.726562 6.785156 -4.703125 6.734375 -4.671875 C 6.648438 -4.628906 6.550781 -4.550781 6.4375 -4.4375 C 6.320312 -4.332031 6.160156 -4.210938 5.953125 -4.078125 C 5.972656 -3.898438 6.054688 -3.71875 6.203125 -3.53125 C 6.347656 -3.34375 6.519531 -3.203125 6.71875 -3.109375 C 6.96875 -2.984375 7.265625 -2.921875 7.609375 -2.921875 C 7.835938 -2.921875 8.082031 -2.953125 8.34375 -3.015625 C 8.613281 -3.078125 8.898438 -3.179688 9.203125 -3.328125 C 9.378906 -3.410156 9.59375 -3.523438 9.84375 -3.671875 C 10.101562 -3.816406 10.320312 -3.960938 10.5 -4.109375 C 10.632812 -4.203125 10.742188 -4.285156 10.828125 -4.359375 C 10.910156 -4.429688 11.015625 -4.515625 11.140625 -4.609375 C 11.148438 -4.617188 11.175781 -4.625 11.21875 -4.625 C 11.257812 -4.625 11.289062 -4.597656 11.3125 -4.546875 C 11.332031 -4.492188 11.3125 -4.453125 11.25 -4.421875 C 11.164062 -4.347656 11.078125 -4.273438 10.984375 -4.203125 C 10.890625 -4.128906 10.816406 -4.070312 10.765625 -4.03125 C 10.554688 -3.875 10.367188 -3.738281 10.203125 -3.625 C 10.035156 -3.519531 9.84375 -3.40625 9.625 -3.28125 C 9.394531 -3.164062 9.175781 -3.0625 8.96875 -2.96875 C 8.757812 -2.875 8.535156 -2.796875 8.296875 -2.734375 C 8.179688 -2.710938 8.066406 -2.695312 7.953125 -2.6875 C 7.835938 -2.675781 7.710938 -2.671875 7.578125 -2.671875 C 7.347656 -2.671875 7.125 -2.691406 6.90625 -2.734375 C 6.6875 -2.785156 6.484375 -2.867188 6.296875 -2.984375 C 6.179688 -3.035156 6.035156 -3.132812 5.859375 -3.28125 C 5.691406 -3.425781 5.5625 -3.59375 5.46875 -3.78125 C 5.300781 -3.65625 5.171875 -3.554688 5.078125 -3.484375 C 4.992188 -3.421875 4.898438 -3.363281 4.796875 -3.3125 C 4.390625 -3 3.96875 -2.710938 3.53125 -2.453125 C 3.101562 -2.191406 2.660156 -1.9375 2.203125 -1.6875 C 1.828125 -1.46875 1.441406 -1.253906 1.046875 -1.046875 C 0.648438 -0.847656 0.257812 -0.648438 -0.125 -0.453125 C -0.269531 -0.378906 -0.421875 -0.320312 -0.578125 -0.28125 C -0.742188 -0.238281 -0.910156 -0.203125 -1.078125 -0.171875 Z M 5.9375 -4.328125 C 6.019531 -4.378906 6.113281 -4.445312 6.21875 -4.53125 C 6.332031 -4.613281 6.410156 -4.664062 6.453125 -4.6875 C 6.691406 -4.863281 6.882812 -5.007812 7.03125 -5.125 C 7.175781 -5.238281 7.304688 -5.335938 7.421875 -5.421875 C 7.847656 -5.742188 8.210938 -6.078125 8.515625 -6.421875 C 8.828125 -6.773438 9.023438 -7.054688 9.109375 -7.265625 C 9.210938 -7.398438 9.289062 -7.570312 9.34375 -7.78125 C 9.394531 -8 9.425781 -8.1875 9.4375 -8.34375 C 9.394531 -8.519531 9.320312 -8.613281 9.21875 -8.625 C 9.113281 -8.632812 9.03125 -8.644531 8.96875 -8.65625 C 8.800781 -8.644531 8.628906 -8.582031 8.453125 -8.46875 C 8.273438 -8.363281 8.125 -8.269531 8 -8.1875 C 7.5625 -7.820312 7.175781 -7.421875 6.84375 -6.984375 C 6.601562 -6.648438 6.382812 -6.238281 6.1875 -5.75 C 6 -5.257812 5.914062 -4.785156 5.9375 -4.328125 Z M 5.9375 -4.328125 "/></g></g></g><g fill="#000000" fill-opacity="1"><g transform="translate(148.789365, 150.831434)"><g><path d="M 5.46875 -8.734375 C 5.4375 -8.734375 5.410156 -8.734375 5.390625 -8.734375 C 5.367188 -8.742188 5.34375 -8.75 5.3125 -8.75 C 5.09375 -8.832031 4.953125 -9 4.890625 -9.25 C 4.890625 -9.375 4.925781 -9.484375 5 -9.578125 C 5.082031 -9.679688 5.175781 -9.769531 5.28125 -9.84375 C 5.34375 -9.90625 5.410156 -9.953125 5.484375 -9.984375 C 5.554688 -10.015625 5.632812 -10.03125 5.71875 -10.03125 C 5.75 -10.03125 5.816406 -10.015625 5.921875 -9.984375 C 6.085938 -9.816406 6.171875 -9.625 6.171875 -9.40625 C 6.171875 -9.375 6.164062 -9.332031 6.15625 -9.28125 C 6.15625 -9.238281 6.148438 -9.195312 6.140625 -9.15625 C 5.960938 -8.875 5.738281 -8.734375 5.46875 -8.734375 Z M -0.765625 -0.296875 C -1.023438 -0.296875 -1.300781 -0.367188 -1.59375 -0.515625 C -1.738281 -0.648438 -1.847656 -0.773438 -1.921875 -0.890625 C -1.992188 -1.015625 -2.03125 -1.179688 -2.03125 -1.390625 C -2.03125 -1.453125 -2.03125 -1.503906 -2.03125 -1.546875 C -2.03125 -1.597656 -2.023438 -1.65625 -2.015625 -1.71875 C -1.960938 -1.925781 -1.867188 -2.160156 -1.734375 -2.421875 C -1.597656 -2.691406 -1.472656 -2.914062 -1.359375 -3.09375 C -1.265625 -3.21875 -1.148438 -3.378906 -1.015625 -3.578125 C -0.890625 -3.773438 -0.703125 -4.015625 -0.453125 -4.296875 L -0.21875 -4.546875 C -0.0507812 -4.742188 0.0703125 -4.894531 0.15625 -5 C 0.25 -5.101562 0.351562 -5.222656 0.46875 -5.359375 C 0.6875 -5.535156 0.859375 -5.675781 0.984375 -5.78125 C 1.109375 -5.882812 1.222656 -5.972656 1.328125 -6.046875 C 1.429688 -6.117188 1.5625 -6.207031 1.71875 -6.3125 C 1.84375 -6.40625 1.984375 -6.484375 2.140625 -6.546875 C 2.304688 -6.617188 2.46875 -6.640625 2.625 -6.609375 C 2.769531 -6.546875 2.84375 -6.429688 2.84375 -6.265625 C 2.84375 -6.242188 2.84375 -6.210938 2.84375 -6.171875 C 2.84375 -6.140625 2.835938 -6.109375 2.828125 -6.078125 C 2.765625 -5.960938 2.675781 -5.859375 2.5625 -5.765625 C 2.445312 -5.671875 2.34375 -5.578125 2.25 -5.484375 C 2.125 -5.367188 2 -5.257812 1.875 -5.15625 C 1.757812 -5.050781 1.632812 -4.953125 1.5 -4.859375 C 1.21875 -4.640625 0.957031 -4.410156 0.71875 -4.171875 C 0.476562 -3.941406 0.234375 -3.691406 -0.015625 -3.421875 C -0.0546875 -3.390625 -0.125 -3.316406 -0.21875 -3.203125 C -0.3125 -3.097656 -0.382812 -3.015625 -0.4375 -2.953125 C -0.570312 -2.804688 -0.6875 -2.660156 -0.78125 -2.515625 C -0.882812 -2.367188 -1 -2.191406 -1.125 -1.984375 C -1.1875 -1.898438 -1.253906 -1.800781 -1.328125 -1.6875 C -1.398438 -1.570312 -1.453125 -1.460938 -1.484375 -1.359375 C -1.515625 -1.273438 -1.53125 -1.1875 -1.53125 -1.09375 C -1.53125 -1.019531 -1.515625 -0.941406 -1.484375 -0.859375 C -1.453125 -0.785156 -1.394531 -0.71875 -1.3125 -0.65625 C -1.21875 -0.601562 -1.117188 -0.566406 -1.015625 -0.546875 C -0.910156 -0.523438 -0.800781 -0.515625 -0.6875 -0.515625 C -0.4375 -0.515625 -0.234375 -0.550781 -0.078125 -0.625 C 0.140625 -0.71875 0.382812 -0.8125 0.65625 -0.90625 C 0.9375 -1.007812 1.144531 -1.113281 1.28125 -1.21875 C 1.414062 -1.28125 1.535156 -1.335938 1.640625 -1.390625 C 1.742188 -1.453125 1.847656 -1.515625 1.953125 -1.578125 C 2.148438 -1.679688 2.328125 -1.796875 2.484375 -1.921875 C 2.648438 -2.054688 2.832031 -2.171875 3.03125 -2.265625 C 3.300781 -2.421875 3.5625 -2.582031 3.8125 -2.75 C 4.0625 -2.925781 4.300781 -3.097656 4.53125 -3.265625 C 4.769531 -3.441406 5.023438 -3.628906 5.296875 -3.828125 C 5.578125 -4.023438 5.851562 -4.222656 6.125 -4.421875 C 6.175781 -4.472656 6.234375 -4.519531 6.296875 -4.5625 C 6.359375 -4.613281 6.414062 -4.632812 6.46875 -4.625 C 6.488281 -4.613281 6.5 -4.585938 6.5 -4.546875 C 6.5 -4.535156 6.488281 -4.515625 6.46875 -4.484375 C 6.457031 -4.460938 6.441406 -4.441406 6.421875 -4.421875 L 6.34375 -4.328125 C 5.8125 -3.910156 5.269531 -3.503906 4.71875 -3.109375 C 4.175781 -2.710938 3.601562 -2.347656 3 -2.015625 C 2.65625 -1.773438 2.289062 -1.546875 1.90625 -1.328125 C 1.519531 -1.117188 1.113281 -0.921875 0.6875 -0.734375 C 0.601562 -0.691406 0.519531 -0.648438 0.4375 -0.609375 C 0.363281 -0.566406 0.28125 -0.535156 0.1875 -0.515625 C 0.0390625 -0.460938 -0.109375 -0.410156 -0.265625 -0.359375 C -0.429688 -0.316406 -0.597656 -0.296875 -0.765625 -0.296875 Z M -0.765625 -0.296875 "/></g></g></g><g fill="#000000" fill-opacity="1"><g transform="translate(154.854606, 150.831434)"><g><path d="M 3.65625 -0.125 C 3.539062 -0.125 3.425781 -0.128906 3.3125 -0.140625 C 3.207031 -0.160156 3.109375 -0.179688 3.015625 -0.203125 C 2.828125 -0.285156 2.695312 -0.390625 2.625 -0.515625 C 2.5625 -0.648438 2.53125 -0.789062 2.53125 -0.9375 C 2.53125 -1.113281 2.5625 -1.289062 2.625 -1.46875 C 2.695312 -1.65625 2.757812 -1.789062 2.8125 -1.875 C 2.9375 -2.113281 3.035156 -2.289062 3.109375 -2.40625 C 3.179688 -2.519531 3.273438 -2.65625 3.390625 -2.8125 C 3.515625 -2.976562 3.640625 -3.144531 3.765625 -3.3125 C 3.898438 -3.476562 4.023438 -3.644531 4.140625 -3.8125 C 4.179688 -3.863281 4.210938 -3.910156 4.234375 -3.953125 C 4.265625 -4.003906 4.296875 -4.0625 4.328125 -4.125 C 4.441406 -4.3125 4.5 -4.453125 4.5 -4.546875 C 4.5 -4.710938 4.363281 -4.796875 4.09375 -4.796875 C 3.875 -4.796875 3.609375 -4.75 3.296875 -4.65625 C 2.984375 -4.5625 2.722656 -4.472656 2.515625 -4.390625 C 2.210938 -4.242188 1.898438 -4.078125 1.578125 -3.890625 C 1.265625 -3.703125 1.066406 -3.582031 0.984375 -3.53125 C 0.753906 -3.382812 0.5 -3.21875 0.21875 -3.03125 C -0.0625 -2.851562 -0.304688 -2.675781 -0.515625 -2.5 C -0.628906 -2.425781 -0.785156 -2.300781 -0.984375 -2.125 C -1.179688 -1.957031 -1.421875 -1.738281 -1.703125 -1.46875 C -1.835938 -1.351562 -1.929688 -1.257812 -1.984375 -1.1875 C -2.046875 -1.125 -2.117188 -1.0625 -2.203125 -1 C -2.234375 -0.988281 -2.269531 -0.976562 -2.3125 -0.96875 C -2.351562 -0.957031 -2.382812 -0.945312 -2.40625 -0.9375 C -2.582031 -0.96875 -2.703125 -1.066406 -2.765625 -1.234375 C -2.765625 -1.265625 -2.765625 -1.296875 -2.765625 -1.328125 C -2.773438 -1.367188 -2.773438 -1.394531 -2.765625 -1.40625 C -2.703125 -1.632812 -2.617188 -1.835938 -2.515625 -2.015625 C -2.222656 -2.378906 -1.960938 -2.679688 -1.734375 -2.921875 C -1.597656 -3.054688 -1.457031 -3.203125 -1.3125 -3.359375 C -1.175781 -3.515625 -1.003906 -3.703125 -0.796875 -3.921875 L -0.234375 -4.515625 C -0.140625 -4.609375 -0.0507812 -4.703125 0.03125 -4.796875 C 0.125 -4.890625 0.210938 -4.976562 0.296875 -5.0625 C 0.503906 -5.28125 0.710938 -5.492188 0.921875 -5.703125 C 1.128906 -5.910156 1.316406 -6.09375 1.484375 -6.25 C 1.660156 -6.414062 1.835938 -6.570312 2.015625 -6.71875 C 2.191406 -6.863281 2.378906 -7.003906 2.578125 -7.140625 C 2.734375 -7.253906 2.84375 -7.320312 2.90625 -7.34375 C 2.96875 -7.363281 3.09375 -7.375 3.28125 -7.375 C 3.488281 -7.289062 3.59375 -7.164062 3.59375 -7 C 3.65625 -6.863281 3.597656 -6.722656 3.421875 -6.578125 C 3.242188 -6.441406 3.0625 -6.269531 2.875 -6.0625 C 2.769531 -5.976562 2.660156 -5.890625 2.546875 -5.796875 C 2.429688 -5.703125 2.328125 -5.609375 2.234375 -5.515625 L 1.640625 -4.96875 C 1.597656 -4.925781 1.5625 -4.882812 1.53125 -4.84375 C 1.5 -4.800781 1.457031 -4.757812 1.40625 -4.71875 C 1.101562 -4.425781 0.800781 -4.125 0.5 -3.8125 C 0.207031 -3.507812 -0.0859375 -3.203125 -0.390625 -2.890625 L -0.53125 -2.734375 C -0.539062 -2.722656 -0.597656 -2.671875 -0.703125 -2.578125 C -0.816406 -2.492188 -0.882812 -2.4375 -0.90625 -2.40625 C -0.257812 -2.863281 0.28125 -3.238281 0.71875 -3.53125 C 1.15625 -3.832031 1.378906 -3.984375 1.390625 -3.984375 C 1.742188 -4.203125 2.109375 -4.394531 2.484375 -4.5625 C 2.859375 -4.738281 3.253906 -4.875 3.671875 -4.96875 C 3.765625 -4.988281 3.878906 -5.007812 4.015625 -5.03125 C 4.148438 -5.050781 4.265625 -5.0625 4.359375 -5.0625 C 4.546875 -5.0625 4.695312 -5.039062 4.8125 -5 C 4.925781 -4.957031 5.039062 -4.847656 5.15625 -4.671875 C 5.195312 -4.609375 5.21875 -4.5 5.21875 -4.34375 C 5.21875 -4.1875 5.195312 -4.054688 5.15625 -3.953125 C 5.039062 -3.671875 4.925781 -3.4375 4.8125 -3.25 C 4.695312 -3.070312 4.554688 -2.859375 4.390625 -2.609375 C 4.222656 -2.398438 4.066406 -2.21875 3.921875 -2.0625 C 3.785156 -1.914062 3.664062 -1.773438 3.5625 -1.640625 C 3.476562 -1.523438 3.398438 -1.40625 3.328125 -1.28125 C 3.265625 -1.15625 3.222656 -1.007812 3.203125 -0.84375 C 3.203125 -0.789062 3.207031 -0.710938 3.21875 -0.609375 C 3.238281 -0.515625 3.304688 -0.429688 3.421875 -0.359375 C 3.472656 -0.347656 3.523438 -0.335938 3.578125 -0.328125 C 3.640625 -0.328125 3.703125 -0.328125 3.765625 -0.328125 C 3.921875 -0.328125 4.078125 -0.34375 4.234375 -0.375 C 4.390625 -0.40625 4.53125 -0.4375 4.65625 -0.46875 C 4.894531 -0.539062 5.128906 -0.625 5.359375 -0.71875 C 5.585938 -0.820312 5.816406 -0.929688 6.046875 -1.046875 C 6.335938 -1.191406 6.660156 -1.359375 7.015625 -1.546875 C 7.367188 -1.742188 7.664062 -1.921875 7.90625 -2.078125 C 8.332031 -2.335938 8.671875 -2.5625 8.921875 -2.75 C 9.171875 -2.945312 9.484375 -3.179688 9.859375 -3.453125 C 10.054688 -3.609375 10.257812 -3.757812 10.46875 -3.90625 C 10.6875 -4.0625 10.898438 -4.222656 11.109375 -4.390625 C 11.203125 -4.460938 11.28125 -4.515625 11.34375 -4.546875 C 11.40625 -4.585938 11.457031 -4.613281 11.5 -4.625 L 11.53125 -4.625 C 11.644531 -4.625 11.660156 -4.582031 11.578125 -4.5 C 11.492188 -4.425781 11.382812 -4.34375 11.25 -4.25 C 11.125 -4.164062 11.050781 -4.113281 11.03125 -4.09375 C 10.800781 -3.914062 10.59375 -3.753906 10.40625 -3.609375 C 10.226562 -3.460938 10 -3.289062 9.71875 -3.09375 C 9.207031 -2.707031 8.707031 -2.347656 8.21875 -2.015625 C 7.738281 -1.691406 7.21875 -1.390625 6.65625 -1.109375 C 6.34375 -0.953125 6.019531 -0.800781 5.6875 -0.65625 C 5.351562 -0.519531 5.019531 -0.398438 4.6875 -0.296875 C 4.320312 -0.179688 3.976562 -0.125 3.65625 -0.125 Z M 3.65625 -0.125 "/></g></g></g><g clip-path="url(#0910462475)"><path fill="#000000" d="M 136.578125 67.878906 C 136.539062 69.714844 136.296875 71.277344 135.867188 72.511719 C 134.945312 75.167969 133.515625 77.863281 131.050781 80.328125 C 116.441406 94.9375 104.648438 94.375 90.597656 80.328125 C 88.136719 77.863281 86.707031 75.167969 85.78125 72.511719 C 85.351562 71.277344 85.113281 69.714844 85.070312 67.878906 C 85.027344 65.976562 85.199219 63.746094 85.574219 61.253906 C 86.554688 54.742188 88.773438 47.53125 90.460938 42.625 C 91.492188 39.628906 92.503906 36.496094 92.945312 35.382812 L 128.449219 35.378906 C 128.890625 36.496094 130.15625 39.628906 131.1875 42.625 C 132.875 47.527344 135.09375 54.742188 136.074219 61.253906 C 136.453125 63.746094 136.621094 65.976562 136.578125 67.878906 Z M 137.21875 61.078125 C 136.238281 54.574219 134.058594 47.414062 132.28125 42.25 C 130.796875 37.941406 129.59375 35.019531 129.59375 35.019531 C 129.292969 35.019531 128.992188 35.019531 128.695312 35.019531 C 128.429688 35.019531 128.167969 35.019531 127.90625 35.019531 C 127.570312 35.019531 127.234375 35.019531 126.898438 35.019531 C 126.078125 35.019531 125.257812 35.019531 124.4375 35.019531 C 122.527344 35.019531 120.621094 35.019531 118.710938 35.019531 C 116.070312 35.019531 113.425781 35.019531 110.785156 35.019531 C 108.628906 35.019531 106.46875 35.019531 104.3125 35.019531 C 101.878906 35.019531 99.441406 35.019531 97.007812 35.019531 C 96.539062 35.019531 96.066406 35.019531 95.597656 35.019531 C 95.183594 35.019531 94.765625 35.019531 94.351562 35.019531 C 93.828125 35.019531 93.308594 35.019531 92.789062 35.019531 C 92.542969 35.019531 92.300781 35.019531 92.054688 35.019531 C 92.054688 35.019531 90.851562 37.941406 89.367188 42.25 C 87.589844 47.414062 85.410156 54.574219 84.429688 61.078125 C 84.066406 63.488281 83.867188 65.808594 83.914062 67.902344 C 83.957031 69.777344 84.195312 71.472656 84.6875 72.890625 C 85.753906 75.957031 87.578125 78.671875 89.734375 81.097656 C 93.472656 85.292969 98.21875 88.605469 101.78125 91.28125 C 104.652344 93.441406 106.753906 95.1875 106.945312 96.652344 C 106.945312 96.660156 106.945312 96.667969 106.949219 96.671875 C 106.953125 96.675781 106.953125 96.675781 106.957031 96.675781 C 106.96875 96.695312 106.980469 96.710938 106.992188 96.730469 C 107.003906 96.742188 107.402344 97.929688 108.082031 99.476562 C 108.167969 99.675781 108.265625 99.871094 108.335938 100.074219 C 108.464844 100.417969 108.585938 100.863281 108.699219 101.414062 C 109.382812 104.832031 109.730469 112.234375 109.730469 123.492188 C 109.730469 126.117188 109.691406 128.351562 109.628906 130.253906 C 109.414062 136.636719 108.90625 139.277344 108.503906 140.4375 C 108.269531 141.097656 108.078125 141.277344 107.992188 141.398438 C 107.925781 141.496094 107.878906 141.5625 107.867188 141.757812 C 99.90625 141.964844 93.867188 142.960938 93.867188 144.160156 C 93.867188 145.503906 101.503906 146.59375 110.929688 146.59375 C 120.355469 146.59375 127.996094 145.503906 127.996094 144.160156 C 127.996094 142.949219 121.851562 141.945312 113.785156 141.753906 C 113.773438 141.5625 113.726562 141.496094 113.660156 141.398438 C 113.574219 141.277344 113.390625 141.097656 113.179688 140.433594 C 112.800781 139.269531 112.332031 136.632812 112.136719 130.242188 C 112.078125 128.347656 112.042969 126.113281 112.042969 123.492188 C 112.042969 112.226562 112.308594 104.828125 112.964844 101.410156 C 113.070312 100.859375 113.1875 100.410156 113.316406 100.070312 C 113.390625 99.867188 113.484375 99.667969 113.574219 99.46875 C 114.25 97.925781 114.652344 96.726562 114.660156 96.710938 C 114.675781 96.691406 114.6875 96.671875 114.703125 96.652344 C 114.703125 96.648438 114.707031 96.648438 114.707031 96.648438 C 114.894531 95.183594 116.996094 93.441406 119.867188 91.28125 C 123.429688 88.605469 128.175781 85.292969 131.914062 81.097656 C 134.074219 78.671875 135.894531 75.957031 136.960938 72.890625 C 137.457031 71.472656 137.695312 69.777344 137.734375 67.902344 C 137.78125 65.808594 137.582031 63.488281 137.21875 61.078125 " fill-opacity="1" fill-rule="nonzero"/></g><path fill="#000000" d="M 86.84375 62.445312 C 86.550781 64.554688 86.421875 66.445312 86.457031 68.070312 C 86.496094 69.726562 86.703125 71.109375 87.074219 72.171875 C 88.0625 75.011719 89.503906 77.355469 91.480469 79.332031 C 98.464844 86.316406 104.496094 89.570312 110.460938 89.570312 C 113.421875 89.570312 116.371094 88.765625 119.476562 87.113281 C 122.667969 85.414062 125.9375 82.871094 129.476562 79.332031 C 131.453125 77.355469 132.894531 75.011719 133.882812 72.171875 C 134.253906 71.109375 134.460938 69.726562 134.496094 68.070312 C 134.535156 66.269531 134.375 64.140625 134.011719 61.742188 C 133.824219 60.496094 133.589844 59.222656 133.320312 57.941406 C 108.328125 56.855469 106.417969 79.417969 86.84375 62.445312 " fill-opacity="1" fill-rule="nonzero"/></svg>